<?xml version="1.0" standalone="no"?>
<!DOCTYPE svg PUBLIC "-//W3C//DTD SVG 1.1//EN" "http://www.w3.org/Graphics/SVG/1.1/DTD/svg11.dtd" >
<svg>
<metadata>
Created by FontForge 20120731 at Sat Jun 29 14:12:24 2019
 By www
By PintassilgoPrints, 2014. All rights reserved. 
</metadata>
<defs>
<font id="DaftBrush" horiz-adv-x="420" >
  <font-face 
    font-family="DaftBrush"
    font-weight="500"
    font-stretch="normal"
    units-per-em="1024"
    panose-1="2 0 5 3 0 0 0 0 0 0"
    ascent="819"
    descent="-205"
    x-height="736"
    cap-height="720"
    bbox="-82 -278 861 994"
    underline-thickness="51"
    underline-position="-128"
    unicode-range="U+0020-2122"
  />
<missing-glyph horiz-adv-x="374" 
d="M34 0v682h272v-682h-272zM68 34h204v614h-204v-614z" />
    <glyph glyph-name=".notdef" horiz-adv-x="374" 
d="M34 0v682h272v-682h-272zM68 34h204v614h-204v-614z" />
    <glyph glyph-name="glyph1" horiz-adv-x="0" 
 />
    <glyph glyph-name="glyph1" horiz-adv-x="0" 
 />
    <glyph glyph-name="nonmarkingreturn" horiz-adv-x="341" 
 />
    <glyph glyph-name="space" unicode=" " horiz-adv-x="372" 
 />
    <glyph glyph-name="exclam" unicode="!" horiz-adv-x="254" 
d="M191 19q2 -20 11 -44q10 -27 10 -50q0 -7 -2 -23q-3 -15 -13 -20q-16 -9 -36 -12h-2q-2 -1 -3 -1q-13 0 -30 9.5t-22 20.5q-20 43 -23 88v2q0 6 4 14q17 37 41 54q2 2 3 2q18 9 26 9q7 0 14 -4q22 -15 22 -37v-8zM199 605q2 -22 8.5 -117t9.5 -124q7 -62 7 -184v-34
q0 -24 -28 -32q-16 -4 -23 -4q-29 0 -67 27q-5 3 -8 12q-10 24 -16 65q-2 17 -2.5 121.5t-2.5 122.5q-2 14 -3.5 42.5t-2.5 43.5q-2 26 -2 39q0 44 8 94q8 53 8 62q0 21 11 50q13 35 53 35q9 0 21 -5q15 -6 15 -17q0 -5 -3 -11t-3 -20v-8q18 -135 20 -158z" />
    <glyph glyph-name="quotedbl" unicode="&#x22;" horiz-adv-x="275" 
d="M42 574q-20 9 -22 36q0 2 -0.5 5t-0.5 5t0.5 8t0.5 8q4 83 9 110q7 33 8 36q6 13 21 13q14 0 24 -9q7 -5 9 -16q7 -36 7 -78v-3v-1q0 -24 5 -54q1 -5 1 -16q0 -27 -8 -47q-4 -10 -18 -10q-13 0 -27 8q-1 1 -4 2.5zM248 661q4 -27 4 -59v-16v-26v-18v-1q0 -8 -3 -17
q-6 -15 -20 -15h-5q-12 2 -16 2q-3 0 -11 -2h-3q-5 0 -16 9q-19 17 -22 23q-8 14 -8 43v31v59q0 24 -1 36v18q0 24 4 43q5 20 31 31q6 3 11 3q4 0 22 -6q3 -1 9 -5.5t7 -7.5q2 -11 5 -45t8 -50q2 -6 2.5 -16t1.5 -14z" />
    <glyph glyph-name="numbersign" unicode="#" horiz-adv-x="657" 
d="M322 165q5 20 8 34q1 3 1 8q0 11 -12 11h-3q-26 -2 -41 -4q-6 -1 -12.5 -1.5t-15 -1t-12.5 -0.5q-16 -1 -19 -19l-18 -108q-3 -13 -13 -42q-6 -16 -21 -26q-8 -5 -14 -5q-5 0 -10 4q-6 4 -11 4h-2q-1 0 -3 -1h-1q-1 1 -2 1q-10 2 -31 19.5t-24 27.5q-5 15 -5 27
q0 20 16 36q6 6 10 19q3 8 7 26t7 26q2 6 2 8q0 10 -17 12q-13 1 -39 5q-2 1 -6.5 2t-6.5 1q-19 6 -19 23q0 7 5 15q24 35 52 41q39 9 40 9q2 0 4.5 -0.5t3.5 -0.5h2q9 0 12 10q1 4 14.5 43.5t18.5 60.5q2 6 2 10v1q0 12 -9 12q0 -1 -1 -1q-4 -1 -11 -1q-4 0 -14 1t-15 1h-4
h-1h-5h-4q-5 -2 -15 -2t-43 7q-16 4 -17 21v12t-1 12v3q0 15 11.5 29t26.5 17q44 10 65 10q2 0 6.5 -0.5t6.5 -0.5q5 0 16 0.5t16 1.5q19 1 23 23q9 50 26 120q3 13 11.5 21t19.5 8h1q16 0 20 -16q0 -1 3 -20v-16q0 -16 -10 -88q-1 -3 -1 -9q0 -11 11 -11q1 0 2.5 0.5
t3.5 0.5q85 13 117 13q16 0 19 17q2 9 4 31q0 8 3 15q6 18 6 28q0 6 -1 9v1q0 1 1 3v2q2 9 15.5 19t23.5 10q1 0 3 -1q16 -3 21.5 -9t8.5 -24q4 -28 4 -44q0 -12 -1 -18q0 -1 -0.5 -3.5t-0.5 -3.5q0 -9 13 -12q17 -4 70 -22q19 -7 37 -35q12 -18 12 -41q0 -1 -0.5 -3
t-0.5 -3q-1 -12 -9 -18q-11 -8 -28 -10q-14 -2 -48 -6.5t-52 -7.5q-2 0 -6.5 -1t-6.5 -2q-11 -3 -14 -15q-10 -54 -15 -82v-2l-1 -2q0 -12 13 -12h5q23 0 39 10q11 7 26 7q13 0 25 -6q5 -3 17 -10t19 -10q12 -5 13 -18q0 -1 3 -14.5t3 -20.5v-4q-3 -31 -36 -43
q-10 -3 -22 -3q-49 -4 -114 -9q-12 -1 -15.5 -4.5t-7.5 -17.5q-9 -30 -35 -150q-2 -8 -4 -12q-6 -12 -13 -12h-3h-2q-3 0 -9 -2t-8 -2q-3 0 -7 2q-7 4 -19.5 9l-17.5 7q-15 8 -15 28q0 7 3 13q10 18 23 81zM277 341q1 0 14.5 1.5t20.5 1.5q17 0 28 -6q4 -3 9 -3q12 0 17 20
l6 30q2 8 5.5 24.5t4.5 24.5v5q0 12 -11 13q-62 5 -75 5q-17 0 -25 -1q-18 -1 -19 -22q0 -7 -0.5 -20t-1 -24t-1.5 -20v-6v-4q0 -21 15 -21q1 0 3 0.5t3 0.5t3.5 0.5t3.5 0.5z" />
    <glyph glyph-name="dollar" unicode="$" horiz-adv-x="408" 
d="M251 730q5 -3 11 -7q7 -4 22.5 -13.5t26.5 -17.5q35 -26 50 -63q7 -17 7 -36q0 -11 -3 -15q-3 -5 -26 -15q-6 -3 -15 -4.5t-14 -3.5l-7 -2q-7 -2 -11 -2q-8 0 -13 4q-11 8 -13 48q-1 17 -13.5 31.5t-27.5 18.5q-5 1 -14 1q-35 0 -56 -39q-9 -17 -13 -35q-1 -3 -1 -7
q0 -12 19 -19q31 -13 67 -28q38 -16 77 -61q44 -51 51 -95q7 -46 15 -65q10 -25 11 -35q0 -2 9 -41q1 -5 1 -15q0 -34 -22 -62q-27 -35 -46 -40q-6 -2 -20 -9t-27.5 -11.5t-23.5 -4.5q-3 0 -4 -47q-1 -28 -5 -35t-17 -7q-2 0 -6.5 0.5t-7.5 0.5h-2q-21 0 -31 7q-13 9 -14 39
t-4 35q-5 12 -34 24.5t-39 23.5q-50 56 -57 109q-2 13 -4.5 23.5t-5 19.5t-3.5 14q-3 14 -3 25q0 2 0.5 5.5t0.5 4.5q0 11 10 21q20 20 39 27q12 4 16 4q7 0 15 -9q14 -17 15 -31q1 -16 10 -40q9 -25 14 -44q6 -21 18 -35q11 -12 18 -28q9 -20 44 -22h12q10 0 17 2
q12 2 17 25q1 4 1 7.5t0.5 5t0.5 2.5l2 6q0 1 0.5 4.5t1.5 4.5t1 3v4v2l1 2v1q0 4 1 7q1 2 1 4v3.5t0.5 4.5t0.5 5q1 4 1 13q0 2 -0.5 3.5t-0.5 2.5q-2 8 -2 9v5t-1 6q-2 10 -4 32q-4 41 -36 81q-19 23 -62 45q-16 8 -67 28q-42 15 -42 59q0 5 2 15q12 60 38 89q8 9 19.5 24
t19.5 23q17 16 32 24v8q0 7 -1 10t-2 2.5t-2 2.5t-1 10q0 17 1 26q1 12 12 21q22 18 42 18h2q25 -2 29 -21q3 -15 3 -31v-18q0 -16 -1 -22z" />
    <glyph glyph-name="percent" unicode="%" horiz-adv-x="417" 
d="M15 43q0 3 5 16q24 49 55 144q4 14 16 40q11 23 50 120q4 12 15 42.5t17 46.5l21 51q36 82 57 121q9 17 15 38q10 31 33 80q8 18 33 37q8 7 19 7q13 0 23 -9q8 -6 8 -19v-4q-2 -6 -12 -44q-4 -16 -16 -55.5t-16 -60.5q-1 -4 -14 -39q-20 -55 -34 -97q-18 -53 -22 -83
q-2 -10 -6 -17q-29 -56 -51 -106q-66 -145 -78 -189q-3 -10 -20 -46q-5 -11 -16 -14q-8 -2 -11 -4q-9 -6 -18 -6q-6 0 -18 4q-35 13 -35 46zM280 127q13 -16 32 -25q1 -1 4 -1q4 0 7.5 3t3.5 7v1q-5 26 -26 41q-2 1 -4 1h-1h-2q-12 0 -18 -11q-1 -2 -1 -5q0 -6 5 -11zM327 2
q-28 4 -40 10q-27 13 -59 42q-20 17 -26 64v1q0 3 2 7t9.5 23.5t13 31t13.5 21.5q26 34 51 34q1 0 3 -0.5t4 -0.5q56 -8 74 -40q2 -4 6.5 -11t6.5 -10q17 -26 17 -57v-4v-13q-1 -12 -3 -18q-5 -20 -17 -30q-25 -23 -30 -37t-21 -14l-1 1h-3zM126 666q-2 -6 -2 -8
q0 -14 14 -22q1 -1 4 -1q7 0 14 13q8 14 8 26v3l-1 2v8v4v1q0 6 -5 9l-1 1h-2t-6 -5q-4 -4 -11 -13t-10 -13q0 -1 -1 -3zM97 560q-27 5 -42 27t-19 47q0 4 -1 10t-1 10q0 1 -0.5 3.5t-0.5 4.5q0 16 10 29q5 6 12.5 17.5t14.5 21t15 16.5q19 17 53 30q2 1 5 1h1h4q17 0 39 5
q1 0 2.5 0.5t2.5 0.5q19 0 24 -25q2 -8 3.5 -17.5t3 -20.5t2.5 -17q0 -4 2 -11t2 -10v-2q-3 -49 -33 -98q-5 -8 -13 -11q-14 -5 -21 -11q-5 -5 -8 -5l-1 1q-7 2 -21 2q-23 0 -35 2z" />
    <glyph glyph-name="ampersand" unicode="&#x26;" horiz-adv-x="631" 
d="M225 110q2 2 3 2q1 1 2.5 3t3 3.5l3 3t3.5 2.5q7 11 19 35t19 35q2 3 2 8q0 4 -2.5 8.5t-6.5 10t-5 6.5q-5 8 -16.5 23t-17.5 23q-5 8 -11.5 15t-16 16t-13.5 14q-3 3 -5 3q-1 0 -5 -2q-24 -20 -33 -36q-2 -4 -8.5 -14t-10.5 -18.5t-6 -16.5q-8 -37 -8 -44q0 -13 4 -22
q19 -51 67 -70q2 0 11 -5q2 0 3.5 0.5t3.5 1.5t3 1q0 2 3 2q0 2 2 2q4 4 5 4q0 2 3 2q0 2 3 2zM341 103l-1 -1l-1 1q-76 -103 -167 -103q-2 0 -5 0.5t-4 0.5q-7 0 -13.5 2.5t-14 6t-11.5 4.5q-25 9 -42 36q-29 46 -53 99q-7 15 -7 37q0 12 3 37t3 36q0 2 2 7t2 6
q21 85 80 131q5 3 5 6q0 2 -3 5q-20 26 -35 67q-1 1 -2 3.5t-1 3.5q-4 5 -7 16t-4 13q-7 18 -7 38q0 18 9 61q0 3 1 4q5 8 9 30q6 39 31 61q7 6 21.5 15.5t16.5 10.5q1 1 3 1t3 1q38 12 59 14q18 2 27 2q12 0 18 -2q3 -1 8 -1.5t7 -0.5q24 -4 38 -16q3 -3 24.5 -18.5
t29.5 -27t8 -28.5t-10 -38l-1 -1q0 -2 -1 -2q-6 -5 -17 -5q-12 0 -20 10q-6 6 -13 10q-13 8 -23 18q-14 15 -40 15q-39 0 -69 -35q-3 -3 -3 -4q-1 -5 -6 -14t-6 -14q-6 -28 -6 -42q0 -17 7 -32q3 -7 9.5 -20l9.5 -19q1 -2 29 -44l3 -3q8 -6 24 -26q25 -28 27 -31
q7 -11 16 -22t21 -25l18 -21q4 -4 6 -4t2 2q1 5 2.5 19.5t4 26.5t5.5 19q1 2 1 7q0 7 -6 10q-27 11 -34 17q-32 12 -49 28q-3 3 -3 7q0 7 9.5 17t17.5 14q6 3 11 3h2h10q1 0 34 3q17 2 46 2q14 0 40.5 -1t41.5 -1q24 0 38 1q3 0 9 0.5t8 0.5q16 0 19 -9q7 -14 12 -56
q2 -14 2 -17q0 -13 -20 -15q-45 -5 -100 -6q-9 0 -10 -7q-2 -10 -8.5 -47.5t-12 -65t-8.5 -35.5v-1q0 -11 35 -46q4 -4 28 -36q3 -4 19 -18t29 -28t14 -25l-40 -45l-2 -1q-1 0 -1 -1q-1 -7 -11 -9q-1 0 -3.5 -2t-4.5 -2h-2q-5 2 -12 8t-11 7q-12 7 -42 34.5t-42 35.5z" />
    <glyph glyph-name="quotesingle" unicode="'" horiz-adv-x="139" 
d="M45 574q-21 10 -23 36v10v16q4 83 9 110q6 29 9 36q6 13 20 13t25 -9q7 -5 9 -16q7 -36 7 -78v-3v-1q0 -30 4 -54q1 -5 1 -16q0 -30 -7 -47q-4 -10 -18 -10t-28 8q-1 1 -3.5 2.5t-4.5 2.5z" />
    <glyph glyph-name="parenleft" unicode="(" horiz-adv-x="311" 
d="M293 -33q1 -3 2.5 -8.5t1.5 -8.5q1 -3 1 -8q0 -8 -11 -14q-5 -3 -14 -7.5t-12 -6.5q-5 -3 -9 -3q-3 0 -9 2q-42 14 -78 59q-11 13 -29 40t-26 38q-1 2 -5 6.5t-5 6.5q-13 7 -13 18v5q-29 52 -55 143q-7 23 -9 83q0 10 -2 32q-3 24 -3 64q0 86 14 125q27 73 52 110
q6 9 35 45q4 5 11.5 15t11.5 15q12 26 58 64q15 12 40 12q8 0 13 -1q17 -2 17 -18v-3q-1 -4 -1 -12q0 -10 7 -43q1 -3 1 -8q0 -11 -9 -22q-42 -50 -61 -77l-27 -39q-16 -32 -18 -51q-2 -14 -9 -21q-9 -20 -13 -62q-1 -13 -1 -66q0 -50 -1 -62q0 -3 -0.5 -9.5t-0.5 -9.5
q0 -26 5 -58q7 -48 20 -84q11 -29 40 -68q12 -16 17 -26q13 -26 31 -36q3 -2 34 -30q7 -7 9 -21z" />
    <glyph glyph-name="parenright" unicode=")" horiz-adv-x="311" 
d="M20 -29q2 14 9 21q31 28 34 30q18 10 31 36q3 7 17 25q29 39 40 68q13 36 20 85q5 32 5 58q0 3 -0.5 9.5t-0.5 9.5q-1 12 -5 64.5t-5 64.5q-4 42 -13 62q-7 7 -9 21q-2 18 -18 50q-4 9 -26 40q-14 20 -62 77q-9 10 -9 21q0 6 1 9q7 33 7 42t-1 13v2q0 7 5 12.5t12 6.5
q0 1 7 0h7q24 0 39 -12q42 -34 54 -54q2 -5 4 -9q4 -5 11.5 -15t11.5 -15q24 -30 35 -46q26 -38 52 -109q16 -45 16 -95q0 -14 -2 -40v-5q0 -10 1.5 -43t1.5 -38v-2q-2 -60 -9 -83q-25 -89 -55 -142v-5q0 -13 -13 -19q-1 -2 -5 -6.5t-5 -6.5q-8 -11 -26 -38t-29 -40
q-35 -44 -78 -58q-6 -2 -9 -2q-6 0 -9 2q-18 10 -26 15q-11 6 -11 14q0 1 2 7z" />
    <glyph glyph-name="asterisk" unicode="*" horiz-adv-x="512" 
d="M299 751q1 0 3 0.5t3 0.5q17 0 17 -17q0 -5 -3 -12q-3 -9 -7.5 -26t-6.5 -23q-1 -2 -1 -6q0 -9 11.5 -14t37.5 -8.5t34 -5.5q10 -2 15 -6q8 -6 8 -11q0 -7 -9 -11q-32 -14 -49 -20q-12 -4 -19.5 -5.5t-9 -1.5t-6.5 -2.5l-17 -8.5q-2 -2 -4 -2q-1 -1 -3 -2.5t-3 -2.5
q-5 -5 -5 -10q0 -3 3 -8q4 -6 6.5 -12.5t5.5 -15t5 -13.5q2 -6 2 -10q0 -1 -0.5 -3t-0.5 -3q-4 -14 -16 -14q-2 0 -6 2q-17 6 -29 21q-5 3 -8 3q-7 0 -13 -7q-2 -2 -6.5 -7.5t-6.5 -8.5q-14 -22 -50 -45q-5 -4 -12 -4q-17 0 -17 22v5q4 31 15 60q2 6 2 9q0 4 -3 7h-4
q-5 0 -14 -2t-11 -2q-5 -1 -15 -1h-2q-13 -4 -39 -8h-4q-21 0 -27 21q-2 5 -2 15q0 15 10 25q20 20 41 28q2 1 19 4q16 3 16 10q0 5 -3 12q-6 15 -6 30t6 28q7 19 20 22q14 2 17 2q18 0 32 -25q1 -3 4.5 -9t5.5 -9q5 -8 11 -8h3q4 4 5 8q21 63 80 75z" />
    <glyph glyph-name="plus" unicode="+" horiz-adv-x="399" 
d="M355 402q26 -9 26 -33v-1q-2 -30 -26 -41q-10 -5 -32 -7q-27 -3 -79 -3h-12q-20 0 -20 -15q0 -5 1 -8q2 -12 3 -26t1.5 -30.5t1.5 -25.5q0 -3 0.5 -8.5t0.5 -8.5q0 -22 -5 -37q-5 -12 -7 -14q-6 -7 -14 -7q-5 0 -10 4q-3 3 -10.5 6t-9.5 5q-31 21 -39 63q-1 4 -2 11
t-2 12.5t-2 10.5q-1 6 -1 17q0 15 -2 23q-3 14 -9 19.5t-20 5.5q-5 0 -15.5 1t-15.5 1q-8 0 -12 -1h-4q-20 0 -23 20q0 1 -0.5 3.5t-0.5 4.5q0 5 2 14t2 12q1 10 15 12q7 2 21 4.5t21 3.5q3 1 7.5 2t6.5 1q11 3 11 11q0 4 -1 6q0 1 -9 62q-1 5 -1 15q0 21 7 47q8 32 40 32
q1 0 13 -3q15 -5 20.5 -12t5.5 -22v-4v-5q0 -8 11 -82q2 -8 4 -14q4 -12 16 -12h1q3 0 8.5 0.5t8.5 0.5h26q6 1 17 1l40 1h1l2 1q2 0 6 -1.5t5 -1.5q28 -8 32 -10z" />
    <glyph glyph-name="comma" unicode="," horiz-adv-x="195" 
d="M116 66h8q13 0 37 -15q13 -8 13 -28q0 -10 -1 -15q-3 -31 -14 -57q-2 -3 -15.5 -34t-24.5 -45q-2 -1 -3.5 -3t-3 -5t-2.5 -4q-24 -29 -45 -33q-3 -1 -8 -1q-19 0 -21 21v6q0 23 21 51q14 18 14 49q0 9 -1.5 26.5t-1.5 25.5q0 22 6 33q2 5 7 7q1 5 6 6q6 10 29 15z" />
    <glyph glyph-name="hyphen" unicode="-" horiz-adv-x="443" 
d="M385 270q-37 -9 -49 -10q-19 -1 -71 -15q-3 -1 -20.5 -5.5t-26.5 -6.5q-10 -2 -16 -2q-14 0 -39 4.5t-30 5.5q-67 8 -75 8h-3h-1q-30 0 -32 29v24v1q0 24 27 30q10 2 28 3t26 2q54 10 61 11q12 2 21 7q23 13 50 13q2 0 6.5 -0.5t6.5 -0.5h8h14h2q27 0 85 -6q39 -4 61 -46
q4 -6 4 -10q0 -1 -2 -5q-19 -27 -35 -31z" />
    <glyph glyph-name="period" unicode="." horiz-adv-x="172" 
d="M21 109q2 26 16.5 41t37.5 15q12 0 19 -2q32 -8 41 -29q4 -10 8.5 -29t7.5 -27q2 -4 2 -6q0 -11 -12 -20q-10 -8 -15 -16q-13 -18 -28 -18q-2 0 -8 2h-7q-15 0 -22 7q-30 28 -34 45q-6 22 -6 32v5z" />
    <glyph glyph-name="slash" unicode="/" horiz-adv-x="355" 
d="M333 721v-6q0 -7 2 -19q4 -16 4 -37q0 -24 -7 -59q-11 -55 -34 -103q-11 -21 -26.5 -61t-21.5 -54q-27 -60 -51 -186q-4 -23 -14.5 -68t-14.5 -68q-7 -41 -21 -82q-5 -17 -28 -38q-7 -6 -17 -6h-1h-10h-15v1h-15h-10q-18 1 -28.5 11t-10.5 27q0 6 1 9q4 18 8 28
q24 64 35 122q4 22 15 62t14 54t14 66t18 80q21 83 32 117q7 22 18 63.5t14 53.5t7 19q14 36 24 79q6 25 26.5 41.5t46.5 18.5q1 0 1 0.5t1 0.5q12 0 21 -10q23 -27 23 -51v-5z" />
    <glyph glyph-name="zero" unicode="0" horiz-adv-x="519" 
d="M57 116q-26 78 -37 167q-4 29 -4 64t4 63q6 48 16 77q2 6 3 8q8 12 18 36t15 32q17 32 23 55q4 17 17 35q41 59 85 97q16 14 25 20q29 18 59 18q19 0 34 -5q8 -3 22 -10t19 -9q7 -3 17 -15q60 -60 104 -129l4 -8t4 -9t3 -8q7 -16 7 -51v-10q0 -18 3 -34q5 -25 5 -50
q0 -18 -12 -75q-2 -8 -4 -32.5t-7 -42t-14 -26.5q0 -4 -3 -4q-6 -21 -18.5 -59t-15.5 -49q-10 -31 -31 -62q-17 -25 -37 -50q-10 -12 -14 -15q-7 -4 -10 -15q-4 -19 -22 -25q-42 -13 -78 -13q-33 0 -63 13q-88 37 -117 121zM97 458q-8 -66 -8 -98q0 -20 1 -30l6 -42
q9 -66 36 -101q26 -34 58 -37q10 -1 31 -1h4q23 0 35 19q3 5 8 5l2 -1h2q8 -3 10 -3q4 0 9 12q1 2 2.5 7t2.5 7q20 50 39 145q19 93 19 167v15v10v7q-1 58 -24 112q-14 36 -61 45q-12 2 -18 2q-10 0 -13 -3q-4 -3 -22 -14t-26 -20l-1 -1q-11 -12 -30 -49q-20 -36 -28 -50.5
t-19.5 -45t-14.5 -57.5z" />
    <glyph glyph-name="one" unicode="1" horiz-adv-x="439" 
d="M20 495q-18 16 -18 36q0 8 5 20q32 77 76 123q15 16 40.5 49t30.5 39l1 1q20 26 35 26q10 0 31 -9q33 -12 43 -27q4 -5 27 -41q1 -2 1 -6v-5q-2 -16 -2 -23q0 -10 2 -27.5t2 -23.5q1 -6 1 -18q0 -16 -5 -27q-3 -8 -3 -15v-7q3 -26 3 -51v-18t-0.5 -54.5t-0.5 -54.5v-35
v-17q3 -69 3 -71v-1q0 -30 -4 -86q-1 -7 -1 -21q0 -1 3 -58q0 -14 11 -14q5 0 7 2q12 8 20 8q3 0 11 -3t16 -4q25 -2 48 -15q27 -16 27 -43v-8q-1 -9 -10 -20q-5 -5 -6.5 -11t-1.5 -9.5t-2.5 -6t-10.5 -2.5q-50 -3 -79 -10q-16 -4 -38 -4t-45 3q-63 7 -100 18q-7 2 -22 3.5
t-22 3.5q-16 5 -17 6q-13 6 -13 19v5l3 33q2 33 31 33q6 0 10 -1q41 -9 66 -10h4q18 0 18 21v19q0 28 -2 84t-2 84v15v9q0 6 -0.5 18.5t-0.5 18.5q0 36 -5 54v3v6v10v1q0 75 -1 113q0 6 -0.5 12t-1.5 14t-1 12q-1 12 -7 12q-4 0 -9 -5q-7 -6 -36.5 -29.5t-44.5 -39.5
l-15 -11q-15 -11 -16 -12q-2 -2 -7 -2q-4 0 -8 3.5t-9.5 9.5t-8.5 9z" />
    <glyph glyph-name="two" unicode="2" horiz-adv-x="535" 
d="M45 471q-1 3 -8 26.5t-14 35.5q-21 39 -21 82q0 17 3 35q7 40 23 70q25 43 52 52q4 1 10 5q35 19 65 19q13 0 26 -3q84 -19 94 -23q11 0 25 -7q7 -3 7 -4q5 -8 16.5 -16.5t14.5 -11.5q12 -12 20 -29q12 -26 31 -87q5 -18 5 -35q0 -7 -2 -23q-3 -18 -5 -22q0 -6 0.5 -16
t1 -18.5t1.5 -16.5v-13q0 -19 -10 -55q-2 -5 -21 -61q-9 -24 -12 -49q-1 -5 -14 -59q-5 -20 -14.5 -60.5t-14.5 -61.5q-2 -7 -7 -21t-6 -18q-1 -3 -1 -8q0 -7 10 -10q12 -2 17 -2q1 0 4 0.5t4 0.5h9q15 0 27 -4q35 -11 68 -14h8q10 0 27 2.5t25 2.5q19 0 34 -11
q11 -8 11 -31q0 -17 -6 -39q-2 -5 -2 -15v-9q0 -14 -11 -17q-19 -5 -47 -5q-6 0 -69 6h-17q-20 0 -41 -3q-47 -7 -61 -7t-29 3q-17 3 -29 7q-45 14 -57 16q-11 2 -20 6q-17 9 -17 29q0 10 3 15q2 5 7 26q9 54 18 69q26 45 59 138q16 47 20 62q0 1 2 3q9 14 15.5 30.5
t13.5 40.5t10 33q10 29 26 87q5 20 5 35q0 21 -6 40q-2 6 -5.5 18t-6.5 21.5t-6 17.5q-13 42 -45 55q-34 15 -71 18h-3q-26 0 -41 -28q-14 -25 -14 -47q0 -5 -2.5 -16t-2.5 -17q0 -1 0.5 -3t0.5 -3q1 -8 11 -51l1 -2q5 -9 9 -19.5t7.5 -24t5.5 -19.5q1 -2 1 -8q0 -8 -6 -24
q-3 -7 -10 -7h-1q-1 1 -2 1q-6 1 -17 1h-9h-1q-21 0 -35 12.5t-14 32.5z" />
    <glyph glyph-name="three" unicode="3" horiz-adv-x="473" 
d="M18 557q-2 6 -2 9q0 5 2 15t2 15t-2 11t-2 10t2.5 12.5t2.5 11.5q11 85 50 122.5t121 37.5h15q37 -1 109 -32q16 -6 20 -15q2 -5 14 -14q16 -13 36 -38q6 -9 12 -24q20 -58 21 -64q6 -21 6 -41q0 -31 -18 -60q-10 -16 -20 -47q-3 -11 -24 -43q-14 -24 -29 -38
q-6 -6 -6 -9q0 -6 9 -11q7 -3 20 -11t19 -11q20 -11 35 -26q41 -40 41 -99v-6v-32q0 -29 2 -43q1 -5 1 -17q0 -10 -2 -32q-5 -41 -8 -61.5t-12 -43.5t-18.5 -32.5t-32 -23t-47.5 -21.5t-70 -21q-6 -2 -21 -2q-32 0 -72 16q-2 1 -13 9q-54 45 -82 91q-7 11 -19 58
q-10 42 -10 75q-3 4 -3 11q0 5 5 13q16 22 27 30q8 5 12 5q9 0 13 -12l6 -21q9 -14 10 -19q0 -1 1 -4t2 -4q6 -6 14.5 -19t11.5 -16q35 -40 61 -65l2 -2q5 -2 5 -6q2 -3 4.5 -4t6 -1.5t4.5 -1.5h29q12 3 20 16q14 24 21 35q4 6 4 8q1 6 6 28t5 35v3v1q0 10 3 17q9 19 9 44
q0 23 -11 58q-6 20 -26 26q-24 7 -51 7q-21 0 -48 -5q-9 -2 -20 -2q-9 0 -38 12q-17 7 -21 21q0 1 -9 19q-4 10 -4 15q0 22 25 30q3 1 6.5 1.5t8 1t6.5 0.5q13 2 23 5t14.5 5t18 9t18.5 10q29 14 46 49q12 26 29 56q9 17 9 37t-9 41q-2 6 -9 20t-10 22q-12 30 -41 52
q-9 8 -27 8q-21 0 -39 -16q-25 -25 -31 -59q-2 -9 -8 -30t-8 -32q-1 -10 -15 -16q-20 -9 -35 -9q-5 0 -17 2q-33 6 -36 16z" />
    <glyph glyph-name="four" unicode="4" horiz-adv-x="393" 
d="M290 -45q-24 14 -24 40v5v68v33q0 5 -0.5 15.5t-0.5 15.5q0 38 3 76q1 10 1 28q0 27 -4 50v8v17q0 11 -3.5 15t-13.5 4h-1q-15 0 -30.5 -3.5t-38 -9.5t-30.5 -8q-2 0 -32.5 -18t-48.5 -18q-29 0 -42 39q-6 17 -10 64v5q0 7 3.5 20t4.5 17q6 30 10.5 91.5t7.5 83.5
q2 14 5.5 67t7.5 72q1 5 1 14t2 12.5t10 7.5q3 2 9 2q4 0 15 -3t17 -3q16 0 23 -19q3 -7 8 -58q2 -24 6 -74q1 -10 1 -32v-44q0 -11 -1 -33.5t-1 -33.5v-20q0 -12 -1 -18q0 -2 -0.5 -4t-0.5 -3q0 -13 17 -16q7 -3 8 -3t2.5 0.5t2.5 0.5q11 4 34 6t26 2q4 1 11.5 1t11.5 1
q14 1 16 18q2 19 4.5 68.5t5.5 76.5v8q0 7 -1.5 20t-1.5 21v5q-1 0 -1 2v1q-2 9 -2.5 29t-1.5 28q0 1 -0.5 3t-0.5 3q0 25 22 30q20 5 29 5q14 0 18 -10q3 -7 4 -19t1 -28v-20q1 -17 3.5 -52t3.5 -53v-13v-5v-10q0 -13 2 -37t2 -32v-9v-24q0 -11 -1 -34.5t-1 -35.5
q0 -23 1 -34q1 -6 1 -19q0 -12 -1.5 -35t-1.5 -34v-2v-7q0 -8 -0.5 -23.5t-0.5 -23.5q0 -21 1 -32v-11v-38v-2q0 -36 9 -88q0 -2 0.5 -4t0.5 -4q0 -9 -15 -41q-4 -8 -16 -8h-1q-29 2 -42 10z" />
    <glyph glyph-name="five" unicode="5" horiz-adv-x="474" 
d="M323 296q7 37 8 66q0 2 0.5 5t0.5 5q0 21 -12 36q-21 16 -48 25q-9 3 -30 12t-32 12q-10 3 -21 3q-17 0 -44 -9q-5 -1 -9 -10q-3 -7 -8 -12t-14 -11.5t-11 -8.5q-3 -2 -8 -2q-6 0 -10 4q-28 24 -28 50v5v4v14q0 8 3 14v6v2l-1 2q-1 4 -1 11q0 16 14 32q3 4 8 21
q10 43 33 116q8 24 21 50q11 21 33 23q78 6 116 7h38q56 0 85 -3q9 -1 41 -18q6 -4 6 -12v-6q-1 -4 -7.5 -14.5t-13.5 -19.5l-6 -9q-4 -2 -12 -2q-7 0 -22 2t-18 2h-12h-13q-21 0 -31 3l-1 1h-2t-4 -0.5t-5 -0.5q-35 -5 -42 -5q-27 0 -45 -28q-13 -22 -34 -77q-1 -1 -1 -4
q0 -2 5 -7q4 -4 11 -4q54 0 145 -36q43 -16 74 -53q22 -29 25 -61q2 -28 6 -41q5 -15 5 -38v-21q0 -2 -0.5 -7t-0.5 -7q0 -4 2 -14v-4q0 -8 -3 -15q-19 -55 -58 -110q-23 -32 -33 -38q-6 -5 -17.5 -15.5t-16.5 -16.5q-2 -3 -7 -9t-7 -9v-2q0 -18 -15 -25q-7 -3 -15 -11
q-15 -15 -44 -15h-4q-22 0 -48 8q-36 11 -73 52q-60 47 -85 103q-7 16 -14 41q-1 2 -1 6q0 20 46 29l18 3h3q21 0 24 -20q3 -23 21 -41q30 -30 53 -47q24 -18 40 -18h2q13 18 38 48l35 42q19 25 28 72z" />
    <glyph glyph-name="six" unicode="6" horiz-adv-x="528" 
d="M133 299q-26 -31 -26 -65q0 -10 1 -15q13 -82 56 -156q27 -48 99 -70h4q6 0 13 9q10 12 15 12h2v1q0 2 2 6q29 38 38 114q2 26 2 39q0 19 -2 59q-1 23 -17 42q-20 26 -53 47q-7 5 -21.5 7t-19.5 4v2h-1q-2 -4 -10 -4h-1l-8 -3q-9 -2 -26.5 -6.5t-20.5 -5.5
q-17 -5 -26 -17zM133 -28q-57 68 -68 94q-25 55 -36 97q-2 8 -5.5 23.5t-5.5 22.5q-2 8 -2 12v5v23q0 60 5 101q4 30 16 72q24 84 51 134q24 45 61 94q3 4 35 36q3 2 9 9.5t11 10.5q27 31 58 58q19 16 49 23q1 0 3.5 0.5t3.5 0.5q5 0 17 -2q10 -2 11 -14v-5q0 -9 -4 -16
q-7 -11 -23 -31q-11 -13 -32.5 -40.5t-32.5 -40.5q-7 -8 -25 -27.5t-27 -31.5q-23 -28 -46 -77q-18 -38 -22 -53q-2 -7 -6.5 -21.5t-6.5 -22.5q0 -1 -0.5 -2.5t-0.5 -2.5v-1q2 -9 6 -9q3 0 5 1q2 0 11 5q34 17 76 17h6h3h25q15 0 22 -3q12 -4 61 -31q22 -13 40 -29
q4 -4 29 -26t39 -36.5t26 -31.5q34 -47 37 -108q0 -2 6 -70v-19q0 -37 -10 -62q-6 -17 -29 -26q-30 -11 -60 -32q-8 -6 -12 -6h-1h-1q-1 1 -2 1q-7 0 -19 -2.5t-19 -2.5h-3q-14 -11 -20 -22q-4 -8 -14 -11q-7 -2 -22 -2q-18 0 -45 9q-13 5 -78 32q-23 10 -44 36z" />
    <glyph glyph-name="seven" unicode="7" horiz-adv-x="444" 
d="M364 366q7 -2 24.5 -3t28 -5t16.5 -14q3 -5 3 -11q0 -16 -9.5 -34t-20.5 -20q-12 -2 -19 -2h-5q-7 1 -20 1q-5 0 -77 -6q-13 -1 -15 -15q-3 -11 -7.5 -34t-6.5 -34l-6 -21q-5 -16 -15.5 -47t-15.5 -47q-14 -50 -20 -75q-6 -24 -17 -56q0 -1 -1 -3q-1 -3 -2 -4
q-7 -7 -10.5 -28t-7.5 -27q-9 -16 -27 -16q-19 0 -37 18q-13 13 -13 25q0 5 1 8q2 8 2 11v6q0 10 2 15q0 19 20 70q3 8 9 21.5t10.5 25t7.5 22.5q2 14 8 38.5t7 28.5q4 18 14 52t13 49q2 6 2 10v3q0 10 -9 10h-2q-5 0 -17 -2q-3 -1 -9 -1q-7 0 -19 4q-19 7 -33 8
q-13 1 -26 11q-17 14 -17 31q0 9 5 19q13 27 24 27h18q13 0 36.5 -1t35.5 -1q10 0 30 2q11 1 14 14q8 31 11 37v1v1q1 4 3 11.5t3 11.5q5 25 5 47q0 4 11 43q3 11 9.5 33t9.5 33q1 2 1 6v1v6q0 4 8 36q1 3 1 8q0 11 -14 11h-7q-7 0 -14 -0.5t-15.5 -1.5t-13.5 -1h-17h-10
q-8 -1 -23 -2t-27 -2.5t-23 -4.5h-1q-27 -5 -27 -20q0 -7 3 -17q3 -9 3 -18q0 -15 -6 -25q-11 -21 -44 -21q-15 0 -23 9q-20 24 -20 63q0 11 1 16v6v9v1v1v5q0 3 1 5q13 38 26 57q4 6 14 8q48 14 92 14h5q3 2 9 2q76 4 115 4h13q12 0 36 -2q22 -2 39 -17q7 -6 10 -16
q3 -13 3 -25q0 -21 -10 -44q-7 -14 -15 -52q-7 -35 -17 -61q-14 -36 -25 -97q0 -1 -0.5 -2.5t-0.5 -2.5q0 -6 1 -9q2 -10 2 -16q0 -11 -1 -17q0 -2 -0.5 -4t-0.5 -3q0 -9 12 -13q4 -1 61 -15z" />
    <glyph glyph-name="eight" unicode="8" horiz-adv-x="449" 
d="M341 376q28 -26 41 -60q36 -97 41 -116q10 -36 10 -76v-16q-2 -22 -2 -33q0 -9 1 -14v-3q0 -4 -3 -12.5t-3 -11.5q-6 -43 -24 -80q-1 -2 -2.5 -4.5t-2.5 -3.5q-10 -31 -28 -52q-19 -22 -51 -37q-6 -3 -11 -3q-4 0 -10 2l-25 10q-6 2 -9 2q-6 0 -9 -1q-18 -6 -27 -6
q-16 0 -36 10q-5 3 -17.5 8.5t-19.5 9.5t-17 10t-18 12q-56 44 -81 109q-17 46 -21 84q-2 14 -2 22q0 15 4 41q11 73 72 153q21 28 68 77l9 9q4 5 4 9q0 5 -5 10q-4 4 -10 8q-53 41 -55 43q-30 25 -42 56q-1 1 -1 5q-10 23 -10 48t10 48q19 46 45 69q9 9 43 31q30 18 81 29
q14 2 21 2q13 0 35 -2q12 -1 22 -15q6 -7 15 -12q50 -26 54 -76q2 -22 2 -33q0 -40 -10 -74q-6 -22 -18 -42q-18 -29 -33 -44q-4 -4 -20 -28q-4 -8 -4 -9q0 -6 5 -10q7 -6 21.5 -21t22.5 -22zM170 529q6 -6 50 -37q7 -5 10 -5q4 0 11 7l24 30q38 42 40 119v5q0 20 -9 29
q-19 21 -38 21q-3 0 -13 -2q-6 -2 -19 -6.5t-20 -6.5q-19 -7 -35 -26q-7 -9 -27 -51q-5 -10 -5 -22q0 -16 9 -29q6 -10 22 -26zM300 102q-2 4 -2 14t2 15q8 24 8 46q0 28 -10 63l-2.5 7.5t-2.5 8.5t-1 8q0 1 0.5 2.5t0.5 2.5h-1q-3 5 -11 22.5t-14 25.5q-1 1 -3.5 5t-4.5 6
q-10 10 -16 10q-5 0 -16 -11q-11 -14 -17 -16q0 -3 -7 -10q-53 -54 -83 -140q-7 -17 -7 -39q0 -38 18 -77t41 -57q29 -23 68 -25h1q8 0 18 12q15 20 33 73q4 14 7 21q4 8 4 18q0 7 -3 15z" />
    <glyph glyph-name="nine" unicode="9" horiz-adv-x="399" 
d="M146 -97q-12 0 -12 11v1q1 1 1 2v2q0 7 -6 13q-4 4 -4 9q0 6 2 9q14 27 51 119q18 45 33 128q3 17 10 51.5t10 51.5q2 6 2 8v1q0 8 -7 8q-3 0 -4 -1q-10 -6 -14 -9q-15 -11 -42 -11q-51 0 -80 31q-41 41 -67 101q-11 24 -20 60q-4 17 -4 39q0 17 1 25q11 94 75 158
q31 31 66 47q41 18 78 25q4 1 12 5q7 3 16 3q4 0 7 -1t8 -1h4q2 0 4 0.5t4 0.5q26 0 56 -28q28 -26 37 -87q7 -45 13 -161q0 -2 0.5 -6t0.5 -6q0 -11 -7 -62q-4 -28 -4 -42q0 -13 -4 -39q-1 -5 -2.5 -14t-2.5 -16t-1 -14v-16q0 -15 -1 -23q-2 -27 -5 -41q-3 -16 -9 -33
q-5 -14 -22 -84q-8 -33 -20 -46q-7 -9 -8 -12q-9 -23 -26 -45q-37 -47 -59 -86q-2 -2 -4.5 -8.5t-3.5 -8.5q-9 -16 -23 -16q-7 0 -14 4t-15 4zM216 423q20 16 28 20q15 8 16 24q0 3 0.5 12.5t1.5 14.5q6 26 8 111q0 5 -0.5 13t-0.5 13v15v6q0 17 -3 32q-3 13 -15 13h-3
q-13 -1 -27 -6q-24 -9 -63 -34q-34 -23 -51 -58q-11 -20 -18 -55q-3 -14 -3 -26v-7v-4q12 -68 68 -93q12 -6 24 -6q20 0 38 15z" />
    <glyph glyph-name="colon" unicode=":" horiz-adv-x="182" 
d="M159 464q5 -12 5 -16q0 -9 -10 -19q-11 -11 -11 -22v-6q0 -1 0.5 -2.5t0.5 -2.5q0 -14 -13 -14q-4 0 -10 2q-26 10 -49 34q-5 5 -15.5 16t-15.5 16q-6 6 -6 14q0 3 2 9q11 29 17 37q16 22 40 22q17 0 27 -11q25 -30 38 -57zM94 218q4 -4 11.5 -13t11.5 -13q18 -20 20 -54
v-3q0 -12 -8 -32q-6 -15 -21 -15h-2q-2 1 -3 1q-19 2 -28 8q-14 9 -49 40q-9 7 -9 19q0 4 2 10q8 40 39 56q10 6 17 6q9 0 19 -10z" />
    <glyph glyph-name="semicolon" unicode=";" horiz-adv-x="180" 
d="M91 -156q-5 -5 -14 -5q-21 0 -43 26q-16 19 -16 40q0 5 2 15q1 3 1 8v6q-1 5 -1 16q0 35 20 69q14 23 20 49q3 12 14 21.5t24 9.5q33 0 42 -20q1 -2 5.5 -8t5.5 -10q6 -7 6 -17q0 -2 -0.5 -4t-0.5 -4q0 -15 -8 -43q-20 -69 -26 -83q-2 -4 -7.5 -20.5t-11 -28t-12.5 -17.5
zM28 317q2 26 16.5 41t37.5 15q12 0 19 -2q32 -8 41 -29q4 -10 8.5 -29t7.5 -27q2 -4 2 -7q0 -10 -12 -19q-8 -7 -15 -17q-12 -17 -28 -17q-2 0 -8 2q-1 0 -3.5 -0.5t-3.5 -0.5q-15 0 -22 7q-29 27 -34 46q-6 22 -6 32v5z" />
    <glyph glyph-name="less" unicode="&#x3c;" horiz-adv-x="311" 
d="M277 97q-15 -16 -30 -16q-11 0 -23 6q-33 16 -68 59q-17 21 -37.5 44.5t-45 51t-38.5 43.5q-20 24 -20 36q0 4 2 10q0 2 -0.5 4.5t-0.5 3.5v3q0 12 12 17q20 7 31 28q1 2 14 20q20 28 25 44q10 30 34.5 71.5t32.5 60.5q8 20 17 27q12 10 24 10q5 0 7 -1q3 -1 9 -2
q24 -6 35 -13q8 -6 16 -11q10 -7 11 -9q11 -13 11 -19q0 -7 -7 -17l-63 -108q-42 -71 -81 -109l-2 -2q-13 -14 -13 -21q0 -8 13 -22q7 -7 88 -105q9 -11 29 -29q16 -14 21 -23q5 -8 5 -14q0 -8 -8 -18z" />
    <glyph glyph-name="equal" unicode="=" horiz-adv-x="360" 
d="M306 220q-32 -8 -50 -9q-37 -3 -74 -16t-63 -13q-23 0 -48 4h-1q-2 1 -3 1q-5 0 -18 -1.5t-15 -1.5h-1q-13 0 -13 20q0 2 0.5 6.5t0.5 7.5v3q0 4 -1 11.5t-1 11.5v2q0 26 28 31q2 1 8 1t8 1q5 1 17 1h5q6 0 18 2q40 8 59 10q27 3 67.5 11t88.5 13h2q7 0 9.5 -7.5t4 -21
t6.5 -22.5q2 -6 2 -8t-2 -6q-1 -2 -4 -6t-5 -6.5t-5 -6t-5.5 -5.5t-6.5 -4t-8 -3zM70 500q2 1 6 1q6 0 12 -3q9 -4 20 -4h5q29 -3 111 -10q10 -3 28.5 -4.5t32 -5t23.5 -12.5q7 -7 7 -37q0 -4 -0.5 -11t-0.5 -10v-3l1 -2v-1q0 -13 -14 -20q-13 -7 -34 -9q-59 11 -111.5 15.5
t-81.5 8.5q-2 1 -18 2.5t-20 3.5q-11 7 -11 19q0 3 7 29q1 3 2.5 9.5t2.5 9.5q5 22 33 34z" />
    <glyph glyph-name="greater" unicode="&#x3e;" horiz-adv-x="311" 
d="M33 620q15 16 31 16q10 0 22 -6q35 -17 69 -59q17 -21 37.5 -44.5t45 -51t38.5 -43.5q19 -23 19 -36q0 -7 -1 -10q0 -2 0.5 -4t0.5 -3v-4q0 -12 -13 -17q-20 -7 -31 -27q-4 -7 -14 -21q-18 -26 -24 -44q-9 -25 -14 -34q-4 -8 -4 -12q-6 -53 -27 -101q-8 -20 -18 -28
q-12 -10 -23 -10q-5 0 -7 1q-3 1 -13 2t-16 3q-27 10 -36 22q-8 10 -17 15q-10 8 -12 10q-11 13 -11 19q0 7 7 17q10 16 20.5 34t23 40t19.5 34q41 69 82 109l1 1q14 16 14 22q0 5 -14 21q-7 7 -88 105q-9 11 -29 29q-16 14 -21 23q-4 7 -4 15q0 9 7 17z" />
    <glyph glyph-name="question" unicode="?" horiz-adv-x="438" 
d="M406 722q29 -39 32 -92q0 -2 0.5 -5t0.5 -4q0 -33 -20 -82q-23 -55 -80 -116q-17 -19 -24 -34q-2 -4 -22 -24q-23 -23 -30.5 -37t-7.5 -33q0 -6 2 -32q2 -18 9.5 -50t9.5 -49q0 -2 0.5 -4.5t0.5 -3.5q0 -18 -20 -26q-10 -5 -25 -5q-13 0 -25 3q-23 5 -30 33q-9 33 -9 66
q0 13 0.5 38t0.5 37q0 31 -2 46q-2 14 -2 21q0 50 39 92q27 30 62 60q9 8 24 25.5t22 24.5q17 17 25 43q4 9 4 21q0 25 -26 40q-21 13 -61 13q-32 0 -53 -5q-23 -6 -50 -25q-16 -11 -16 -26q0 -5 1 -8q6 -29 14 -59q1 -5 1 -13q0 -12 -14 -25q-14 -11 -31 -11l-33 9
q-27 15 -27 44v3q0 6 0.5 17t0.5 16q-2 22 -2 33q0 6 2 20q4 31 27 57q6 6 10 8q16 7 35 28q22 23 63 32q33 7 59 7q31 0 66 -8q62 -13 99 -60zM219 -146q-12 4 -30 28q-3 5 -7 6q-14 5 -20 31t-7 48t-4 40v11v6q0 1 -1 2v2q0 14 12 19q4 2 5 3q7 13 35 20q2 0 3.5 1t3.5 1
q2 2 20 7q8 8 13 8q4 0 9 -3q8 -5 22 -15q4 -3 4 -7t-3 -8q7 -49 7 -89q0 -113 -49 -113q-3 0 -13 2z" />
    <glyph glyph-name="at" unicode="@" horiz-adv-x="680" 
d="M409 423q1 6 1 19q-2 16 -11 16h-2q-3 -1 -9 -1q-11 0 -29 6q-3 1 -10 1q-11 0 -25 -6q-38 -14 -63 -50h-1q0 -5 -3 -8q-19 -22 -19 -53q0 -9 6 -48q0 -2 3 -5q7 -12 9 -15.5t9 -9t18 -6.5q30 -5 37 -5q10 0 20 3q2 1 5 1l4 -1q3 5 11 9q9 5 18 25t12 35q10 52 19 93z
M487 -34q-62 -22 -114 -23q-34 -2 -54 -2q-33 0 -53 6q-93 24 -153 90q-34 29 -53 66q-31 58 -38 134q-5 60 -5 70q1 131 67 277q25 54 95 132q2 3 8.5 8t9.5 9q18 20 41 21q6 0 23 5q50 16 85 16q17 0 39 -5q50 -11 87 -41q57 -46 96 -111q3 -4 25 -46q35 -62 52 -140
q19 -84 19 -183q0 -55 -10 -78q-3 -6 -7 -17.5t-5 -13.5q-17 -41 -49 -47q-18 -6 -32 -6h-6q-43 0 -82 18q-31 14 -54 45q-2 2 -4 15.5t-5 16.5q-6 -4 -10.5 -9t-10.5 -8t-20 -5q-12 -2 -21 -2t-13 1q-5 1 -16 1h-16q-19 0 -32 5q-8 2 -13 2h-6q-9 0 -17.5 2.5t-15.5 8
t-13 10t-11.5 14t-9 15t-8.5 17.5t-6.5 16t-6 16.5t-4.5 13.5q-10 27 -10 54q0 55 39 103q8 9 17 17q22 20 33 31q8 10 24 21q2 1 6.5 4.5t8.5 6t8 2.5q4 3 13 5t11 3q34 12 43 14h7q10 0 31 -8t27 -9q3 0 5 3t3 6.5t3 8t4 6.5q7 5 30 10q3 1 7 1t6 -2q5 -3 15.5 -6.5
t16.5 -7.5t6 -10v-2q-3 -22 -15 -73t-15 -71q0 -1 -0.5 -4t-0.5 -5q-3 -6 -5 -19.5t-3 -16.5q-6 -18 -8 -56q-1 -10 -7 -28q0 -1 -2 -15t-4 -20q1 -12 10.5 -24.5t20.5 -16.5q8 -2 11 -2q10 0 18 6.5t13.5 19t9.5 25.5t7 31t4.5 30t3 28.5t2.5 21.5q2 12 2 37q0 48 -15 106
q-20 78 -59 127q-38 50 -75 72q-8 5 -30 12q-22 5 -39 5l-35 -4q-57 -12 -89 -60q-3 -5 -9 -15.5t-9 -15.5q-21 -35 -39 -88q-3 -11 -7.5 -31.5t-6.5 -27.5q-17 -68 -17 -120v-14v-14q2 -69 13 -109q0 -2 13 -33q25 -62 63.5 -89.5t98.5 -31.5h23q45 0 60 1q42 -6 73 -27.5
t31 -39.5q0 -11 -14 -16z" />
    <glyph glyph-name="A" unicode="A" 
d="M186 273q0 -1 -0.5 -1t-0.5 -1q0 -10 15 -10h1q54 11 64 14q11 3 11 13q0 4 -1 7q-15 67 -19 78q-12 43 -17 74q-3 24 -11 72q-2 7 -6 7t-6 -7q-1 -4 -2.5 -12t-2.5 -14.5t-1 -12.5q-1 -21 -10 -101q-10 -84 -14 -106zM295 196q-5 12 -14 12h-7q-77 -13 -88 -14
q-15 -1 -17 -22q-5 -82 -19 -157q-1 -5 -5 -15q-5 -11 -18 -11h-5q-24 2 -52 32q-30 31 -47 66q-7 14 -7 24q0 1 0.5 2t0.5 2t-0.5 3t-0.5 3q0 11 6 18q18 22 23 57q5 34 44 180q4 16 13.5 59.5t16.5 67.5q5 17 9.5 36.5t9.5 42.5t8 36q17 70 47 127q11 21 31 21
q23 0 34 -23q11 -21 14 -43q11 -74 25 -120q12 -39 18 -79q2 -14 26 -109q23 -102 28 -133q5 -30 20.5 -82t19.5 -69q2 -5 4 -19q0 -1 0.5 -3t0.5 -3q0 -21 -22 -21h-8q-8 2 -20.5 7l-17.5 7q-10 3 -14 16q-8 22 -11 34q-2 10 -26 70z" />
    <glyph glyph-name="B" unicode="B" horiz-adv-x="507" 
d="M346 117q2 4 5.5 14t6.5 15q10 21 10 46v9q-2 26 -2 39v12v3q0 51 -26 95q-17 32 -49 33q-8 0 -16.5 0.5t-18.5 1.5t-16 1q-3 0 -10 0.5t-10 0.5q-28 0 -47 -5q-9 -2 -10 -3.5t-1 -11.5q0 -1 -0.5 -3.5t-0.5 -3.5q0 -4 0.5 -14t0.5 -14q0 -31 -4 -56q-2 -16 -2 -24v-2
q0 -15 1 -43.5t1 -43.5q0 -3 1 -11t1 -13v-5q-2 -13 -4.5 -38.5t-3.5 -38.5v-5v-3q1 0 3.5 -0.5t4.5 -0.5h13h25h1q7 -1 21 -1q34 0 67 15q41 18 59 55zM182 600q-2 -39 -7 -68q-3 -12 -5 -58v-2h2h1q5 0 7 1q14 4 42.5 14.5t43.5 14.5q10 3 17 9q45 34 65 83q4 12 4 13
q0 7 -9 15q-33 30 -68 38q-29 6 -57 6h-14h-8l-7 -1v-2l-2 -4q-3 -13 -5 -59zM372 456q52 -25 90 -85q13 -21 23 -60q5 -17 5 -42q0 -17 -4 -47q-8 -64 -11 -76q-11 -46 -36 -82q-9 -13 -14 -31q-3 -9 -8 -18t-11 -18.5t-9 -14.5q-3 -6 -14 -13q-39 -26 -44 -29
q-21 -14 -48 -14h-10q-47 5 -113 5q-22 0 -48 7q-41 11 -76 30q-28 15 -28 43q0 15 10 28q18 22 18 54q0 20 2.5 42t6.5 48.5t6 39.5q2 15 3 43.5t2 37.5q4 57 12 115q7 58 7 98q0 23 10 138q2 24 2 36v6v3q0 27 15.5 47t42.5 28q6 2 11 2h4q17 -4 42 -4q7 0 21 0.5t22 0.5
h4q51 0 104 -28q44 -23 73 -64q20 -28 22 -72v-6q0 -19 -21 -52q-36 -56 -70 -90l-1 -1l1 -1q4 -2 7 -4z" />
    <glyph glyph-name="C" unicode="C" horiz-adv-x="416" 
d="M99 535q25 37 68 62q65 38 96 45q10 2 40 14t47 12q12 0 18 -2q1 0 3.5 -6t4.5 -12.5t3 -7.5q5 -1 9 -8t6 -14l1 -7q8 -18 8 -28q0 -17 -20 -26q-26 -14 -98 -44q-71 -32 -98 -101q-10 -29 -13 -42q0 -2 -2 -5t-2 -4q-27 -51 -39 -134v-10v-3q0 -13 -3 -19
q10 -66 49 -116q45 -58 131 -68q21 -2 36 -14q13 -11 13 -20l-1 -2v-3q9 -14 9 -30q0 -17 -7 -24q-7 -8 -14 -8q-3 0 -15 4q-27 3 -40 3h-2q-6 -3 -14 -3q-7 0 -15 2.5t-17.5 7t-13.5 5.5q-41 17 -46 18q-10 3 -17 9q-18 15 -37 25q-17 10 -29 28q-24 37 -27 43
q-9 17 -16 41q-28 77 -35 110q-3 11 -3 34q0 22 1 33q3 45 9 90q11 72 47 136q4 7 12.5 20t12.5 19z" />
    <glyph glyph-name="D" unicode="D" horiz-adv-x="440" 
d="M373 620q25 -40 47 -134q4 -16 5.5 -33.5t2.5 -39.5t2 -33v-11v-18v-2q0 -37 -19 -100q-15 -48 -20 -60q-17 -37 -40 -60q-36 -39 -85 -69q-8 -6 -12 -10q-7 -8 -21 -15q-12 -10 -25.5 -16.5t-22 -9t-29 -6.5t-28.5 -6q-12 -3 -24 -3q-22 0 -43 9q-15 6 -22 19
q-9 18 -9 36v1v2q0 34 -5 77q-4 38 -4 60q0 78 -2 117v13q0 29 3 59q2 19 7 174q2 44 5 66q2 20 2 29q0 2 -0.5 7t-0.5 8v11q0 28 13 51q12 21 37 27q2 1 5 1q8 0 13 -4t14 -4q1 0 3 0.5t4 0.5q5 1 15 1q8 0 22.5 -2t19.5 -2q18 -2 34 -6q98 -23 158 -125zM337 326
q7 32 7 68q0 2 -0.5 5t-0.5 5q-2 65 -6 87q-12 74 -48 118q-37 45 -89 57q-23 5 -53 7h-3q-13 0 -13 -12q0 -1 0.5 -3t0.5 -3q2 -22 2 -34q0 -10 -2 -26q-1 -10 -1 -29q0 -8 0.5 -22t0.5 -22q0 -9 1 -28t1 -28v-7q0 -5 -0.5 -16t-0.5 -16q0 -7 0.5 -21.5t0.5 -21.5
q0 -8 0.5 -25t0.5 -26q0 -3 -0.5 -7t-0.5 -7v-33q0 -35 1 -52q1 -13 1 -39q0 -4 -0.5 -12t-0.5 -12v-10q0 -13 2 -35q2 -12 9 -12h3l17.5 7t19.5 9q35 21 71 47q44 34 67 93q3 7 13 56z" />
    <glyph glyph-name="E" unicode="E" horiz-adv-x="326" 
d="M20 129q-2 24 -2 36q0 9 0.5 27t0.5 27v8v14q0 51 3 102q2 42 10 121q1 9 2.5 28t2.5 28q1 3 2 8.5t1 8.5q1 6 1 17q0 5 -2 17q-1 3 -1 10v1v3q0 30 -3 45l-1 1v1q0 3 2 9t2 8q3 19 24 27q10 4 14 4q6 0 11 -4q3 -3 9 -3q8 -1 27.5 -6t29.5 -6q4 0 15.5 -2.5t18.5 -2.5h3
h7h1q18 -1 38 -11q3 -1 12 -10q33 -20 48 -40q7 -9 7 -17v-2q0 -10 -3.5 -14t-13.5 -9t-25 -5q-14 0 -21 1q-11 1 -38 5q-10 2 -15 4q-48 16 -62 20q-3 1 -7 1q-7 0 -7 -12v-1v-72q0 -2 0.5 -5t0.5 -4q0 -14 -1.5 -42.5t-1.5 -43.5q0 -10 3 -19q3 -1 16.5 -5t22.5 -5
q1 0 3.5 0.5t3.5 0.5q6 0 10 -3q1 0 7 -3q9 -7 36.5 -14t35.5 -22q1 -2 1 -9q0 -13 -7 -30t-14 -22q-9 -6 -16 -6q-5 0 -13 2q-9 3 -27.5 8.5t-27.5 8.5q-7 2 -19 8q-6 2 -8 2q-5 0 -5 -10v-10q0 -21 1 -31q3 -32 3 -63q0 -5 0.5 -16t0.5 -17v-1v-1q0 -4 4 -10h1q1 -1 2 -1
h1h8q4 0 13 -0.5t13 -0.5q7 0 11 1h10h37q30 0 35 3q1 1 3 1t6 -2q2 -1 5 -4q9 -7 17 -28q3 -5 5 -12t7 -14q11 -16 14 -26q1 -2 1 -6q0 -2 -8 -21q-3 -6 -16 -8q-14 -3 -42 -5q-13 -1 -43.5 -6t-47.5 -6q-4 0 -11 -0.5t-10 -0.5q-32 0 -55 10l-1 1q-3 4 -15 13.5t-18 18
t-6 20.5q0 1 -1 1t-1 1q-4 6 -6.5 12.5t-3.5 14.5t-1.5 13t-1.5 14.5t-1 13.5z" />
    <glyph glyph-name="F" unicode="F" horiz-adv-x="292" 
d="M193 610q-2 0 -6 -0.5t-6 -0.5h-20h-18h-11q-15 0 -15 -12v-5q7 -29 9 -102q2 -49 9 -82q2 -10 5 -13.5t12 -3.5h3h2q30 0 65 -24q16 -11 23 -35q2 -6 2 -8q0 -11 -11 -20q-16 -13 -37 -13q-1 0 -4 0.5t-5 0.5q-5 0 -15.5 1t-15.5 1h-5q-16 0 -16 -16v-4q1 -7 1.5 -26
t1.5 -32t5 -25q4 -16 4 -35v-23q0 -37 -6 -62q-2 -8 -2 -25q0 -5 0.5 -15.5t0.5 -15.5v-3q0 -23 -25 -48q-11 -11 -36 -21t-29 -13q-2 -1 -6 -1q-8 0 -14 8q-10 13 -10 26q0 1 0.5 3.5t0.5 3.5q3 24 3 47q0 26 -1 40q0 3 -0.5 11t-0.5 11q0 11 1 32t1 31q0 3 -0.5 9.5
t-0.5 9.5v29v28q0 24 -1 36q0 1 -0.5 3.5t-0.5 3.5q0 6 1 17t1 17v3v4v5q0 13 -2 19q-1 2 -1 8q0 5 1 7q3 11 3 34v25v2v7v6q4 16 4 22q0 14 -6 26q-1 2 -1 6v4q2 9 2 28v11q0 13 1 20v7q0 15 -5 25q-5 12 -5 30q0 4 0.5 12t0.5 12t0.5 10t0.5 9q0 6 -2 14v4q0 13 9.5 26
t21.5 16q13 4 30 4h5q8 -1 24 -1q36 0 65 7q8 2 13 2q9 0 21 -5q11 -5 35 -13q15 -4 24.5 -18.5t9.5 -30.5q0 -6 -1 -9q-3 -11 -16 -16q-7 -3 -32 -5q-6 0 -17 -1t-16 -1z" />
    <glyph glyph-name="G" unicode="G" horiz-adv-x="423" 
d="M332 52q-26 -9 -38 -22q-8 -8 -16 -12q-26 -12 -51 -12q-11 0 -16 1q-14 3 -29 11q-23 13 -28 15q-21 10 -34 28q-5 7 -15.5 18t-14.5 16q-25 28 -32 63v2q-2 2 -2 6v2l-6 18q-23 70 -24 94q0 3 -4 45.5t-5 64.5q0 2 -0.5 6.5t-0.5 6.5q0 9 8 78q8 66 36 141q1 3 14 24v1
l-1 1q0 2 2 5t2 4q28 56 82 87q22 13 29 16q37 14 51 14h2l1 -1q3 0 8 1t7 1q3 0 5 -1q8 -3 24 -4.5t23 -3.5q44 -12 60 -55q5 -13 12.5 -37.5t10.5 -32.5q1 -3 1 -11q0 -9 -1 -13q-1 -3 -1 -12q0 -7 1 -24t1 -24q0 -11 -1 -14q-1 -4 -4 -4h-3q-5 0 -6 -1q0 -1 -3 -1t-9 1
t-8 1h-1q-5 -2 -9.5 -3.5t-7 -2.5t-5.5 -2t-5 -1q-9 0 -16 3h-3q-4 0 -5 2q-2 1 -6.5 2.5l-6 2t-4 2t-4 3t-2.5 4.5t-1 7v4q0 13 3 46q1 8 2 24.5t2 24.5q-4 27 -33 36q-8 3 -16 3q-12 0 -23 -8q-4 -3 -14 -9.5t-15 -10.5q-23 -20 -29 -51l-12 -42q-10 -34 -13 -72
q0 -2 -0.5 -7.5t-1.5 -8.5q-3 -11 -3 -20q0 -10 1 -15q0 -2 0.5 -4t0.5 -4q0 -10 -4 -26q-5 -20 -5 -47q0 -6 0.5 -19.5t0.5 -20.5q1 -29 11 -61q12 -32 20 -58q7 -16 8 -20q15 -43 58 -46q26 -2 38 -2h10q4 0 12 2t12 2q5 0 7 -1h1q6 0 8 10q5 25 5 30v7q-1 13 -2 27.5
t-2 32.5t-2 28q-1 9 -4 12t-11 3q-24 0 -36 -1l-38 -5h-2q-19 0 -21 45v2q0 10 6 19t15 10h1q3 0 11 -2.5t11 -2.5h3q17 8 36 11q10 1 31 3.5t32 4.5q1 0 3 0.5t3 0.5q20 0 31 -18q8 -13 11 -27q0 -8 2 -25.5t2 -26.5v-3v-2q0 -18 8 -56q2 -7 4 -41v-1q0 -10 -13 -34
q-3 -9 -3 -19v-2v-3q0 -22 -14 -33q-5 -6 -33 -32q-3 -3 -11 -5z" />
    <glyph glyph-name="H" unicode="H" horiz-adv-x="437" 
d="M20 276q-1 6 -1 19v18v6v32q0 11 0.5 33.5t0.5 33.5q0 28 2 83.5t3 83.5q0 16 7 74q1 7 3 22.5t3 23.5q3 38 12 54q5 9 17 9q3 0 11.5 -1t12.5 -1h1h4q19 0 20 -12v-4q0 -13 -6 -43q-5 -26 -9 -82q-4 -43 -5 -67q-1 -16 -2.5 -50t-2.5 -50v-1v-2q1 -22 10 -22q7 0 12 1
q86 13 99 13h7q5 0 14 -0.5t13 -0.5q6 0 16 0.5t16 0.5q19 1 19 16v7q-2 22 -2 34v14v3q0 20 -2 56t-2 48q-1 13 -3 60t-2 60v1q0 15 21 15q41 0 58 -13q8 -7 8 -25v-18v-7q1 -18 4 -52t4 -51q2 -28 4 -84q2 -32 11.5 -107t12.5 -114q1 -7 2.5 -20t1.5 -19q5 -53 5 -96
q0 -33 -5 -75q-2 -16 -10 -22q-11 -9 -23 -24q-8 -11 -17 -11q-7 0 -16 6q-23 13 -26 39q-6 49 -12 151q-1 14 -2.5 41.5t-2.5 41.5q-1 17 -15 17h-3q-26 -2 -40 -2h-3h-5q-20 0 -40.5 -2t-45 -5t-40.5 -4q-15 -1 -15 -17q-1 -13 -1 -40q0 -23 1 -34q0 -1 -0.5 -5t-0.5 -5
q0 -21 2 -64t2 -64q0 -4 -0.5 -12t-0.5 -12v-2v-5v-5q-4 -15 -33 -27h-5q-9 0 -19.5 5t-10.5 11v1q-8 24 -8 82q-2 4 -2 17q0 9 1 34.5t1 37.5v4q0 50 -3 70z" />
    <glyph glyph-name="I" unicode="I" horiz-adv-x="155" 
d="M130 153q4 -24 8 -68v-9q0 -17 -6 -28q-2 -4 -4 -14q-6 -21 -27 -21h-1q-2 0 -6.5 0.5t-6.5 0.5q-1 0 -2.5 -0.5t-2.5 -0.5h-5q-17 0 -24 18q-4 10 -4 16v2q-9 17 -18 49q-3 9 -3 17v4q1 8 1 24q0 13 -5 70q-2 36 -2 53q0 38 1 57q1 17 3 52t3 53v2l-3 21q-2 2 -2 7v2
q0 13 -0.5 40.5t-0.5 40.5v26q0 1 -1 1t-1 1v1v9q0 11 -0.5 34t-0.5 34q0 20 1 30q1 13 12 24q21 19 42 19h2q24 -1 28 -24q3 -16 3 -34q2 -126 2 -190q0 -12 1 -18q10 -41 10 -88q0 -29 2 -85q1 -13 1 -40t1 -48t5 -40z" />
    <glyph glyph-name="J" unicode="J" horiz-adv-x="347" 
d="M320 549v-21v-25v-29v-19v-1q0 -4 -2 -13t-2 -13q5 -7 5 -26q0 -10 -2.5 -32.5t-2.5 -31.5v-12q0 -8 0.5 -26t0.5 -26q0 -4 -0.5 -13t-0.5 -13q-1 -14 -10 -61q0 -1 -2 -4t-2 -5q-2 -16 -9 -41t-8 -32q-3 -18 -18 -35q-3 -3 -13 -18q-19 -29 -49 -53q-3 -2 -8 -6.5
t-8 -6.5q-15 -9 -41 -9h-12q-9 0 -36 9q-3 0 -5 2q-39 29 -62 87q-8 21 -11 41q-6 34 -6 52v1q0 17 4 53q3 22 42 29q3 0 7 2q3 1 7 1q9 0 12 -11q2 -8 2 -13v-6q0 -1 -1.5 -12t-1.5 -17q0 -48 27 -85q12 -16 34 -25q4 -2 12 -2q19 0 37 32.5t20 56.5q1 16 3.5 46.5
t3.5 44.5q1 9 1 29v11v19q0 21 1 31q2 15 2 42t1 39q3 33 3 67q0 6 -0.5 19t-0.5 19v17q0 10 0.5 32t0.5 32v10v2q0 34 22 55q10 10 25 10q1 0 3.5 -0.5t3.5 -0.5q12 -1 17 -15q7 -21 7 -27v-1v-2q0 -6 2 -16q3 -10 5 -58q0 -4 1.5 -13.5t1.5 -14.5z" />
    <glyph glyph-name="K" unicode="K" horiz-adv-x="478" 
d="M159 269h-1q-8 0 -8 -9v-1v-17v-51q0 -30 2 -45q1 -5 1 -16v-17v-10q2 -58 4 -87q5 -71 7 -80q2 -7 2 -23v-4v-1q0 -14 -10 -14q-4 0 -6 1q-14 6 -30 6q-8 0 -12 -1q-2 0 -4 -0.5t-3 -0.5q-23 0 -40 26q-4 6 -5 10q-2 8 -13 40t-13 51q0 7 -3 22t-3 23q0 1 -0.5 2.5
t-0.5 2.5q0 8 5 13q5 7 5 20q0 8 -1 12q-3 17 -3 35q0 4 0.5 13t0.5 14q0 2 -0.5 6.5t-0.5 6.5q-1 10 -1 29v32q0 25 -1 38q0 2 -0.5 6.5t-0.5 6.5q0 8 1.5 26t1.5 27v41q0 29 1 43q0 5 1 17t1 17v71v34v15q-3 4 -3 12v7q0 4 0.5 11t0.5 10q0 19 -2 55q-2 21 -8 31
q-4 5 -4 13q0 7 6 21q4 7 16 9q6 1 19 1q8 0 26 -2q13 -1 13 -13v-5v-3q0 -12 4 -21q15 -36 25 -80q1 -7 5 -16q8 -16 8 -37q0 -2 -0.5 -5t-0.5 -4q6 -54 7 -82v-5q0 -6 5 -8h2q3 0 6 5q2 2 5.5 8t4.5 8q8 12 23 37.5t23 38.5q19 31 56.5 88t46.5 71q1 1 1 2q11 23 28 23
q36 0 52 -19q9 -11 9 -19q0 -9 -5 -16q-20 -34 -31 -51q-12 -19 -48.5 -74.5t-55.5 -86.5q-17 -30 -22 -42q-3 -6 -10 -16.5l-9 -13.5q-2 -4 -6.5 -10t-6.5 -10q-6 -11 -6 -17t6 -16q21 -32 61 -78q50 -55 77 -101q12 -20 38 -58q2 -3 3.5 -6t3 -7t2.5 -6q11 -24 44 -70
q0 -1 4 -5.5t6 -7.5q9 -17 9 -23t-14 -25t-45 -26q-15 -3 -40 -7q-1 0 -2.5 -0.5t-2.5 -0.5q-11 0 -19 8q-25 25 -30 36q-3 5 -12 17q-25 33 -45 81q-33 80 -72 136q-2 3 -19 34z" />
    <glyph glyph-name="L" unicode="L" 
d="M91 -79q-17 0 -30 15q-16 18 -42 76q-2 4 -2 13v8q8 95 13 136q5 44 9 132q1 14 3 41.5t2 40.5q0 12 2 35.5t2 35.5q0 20 18 120q5 22 14 67t14 68q5 19 20 27q4 2 16 10.5t19 10.5q9 4 16 5h4q12 0 14 -14q6 -34 6 -54q-1 -7 -4 -31.5t-5 -38.5q-9 -50 -15 -106
q-7 -70 -7 -91q0 -19 1 -28q4 -48 5 -72q1 -37 1 -112v-3q0 -14 -2 -42.5t-2 -42.5v-10q0 -2 -1 -7.5t-1 -8.5v-4q0 -16 16 -21q13 -4 63 -14q17 -3 44 -7q5 -1 15 -1t15 1q1 0 3 0.5t3 0.5q12 0 21 -10q37 -42 41 -48q5 -8 17 -22q19 -22 19 -47v-6q-1 -12 -11 -19
q-34 -25 -72 -25q-18 0 -31 4q-48 13 -55 15q-6 2 -10 2h-1q-1 0 -2.5 -0.5t-2.5 -0.5q-10 0 -53 12q-11 3 -35 6t-36 6h-3q-2 0 -6.5 -1t-6.5 -1z" />
    <glyph glyph-name="M" unicode="M" horiz-adv-x="645" 
d="M242 6v13q0 32 -9 77q-14 68 -22 102q-10 44 -19 65q-5 11 -10 33.5t-7 28.5q-2 8 -11 41.5t-15 50.5l-1 2q-1 1 -1 4q-3 5 -5 6h-1q-5 -1 -5 -7v-2v-3l-3 -12q2 -8 2 -12q0 -2 -0.5 -6t-0.5 -6v-8q0 -17 3 -26q2 -6 2 -17v-15v-6q1 -15 1 -45q0 -16 -0.5 -49t-0.5 -50
v-12v-37v-67q0 -16 -2 -48q0 -3 -0.5 -9.5t-0.5 -9.5q0 -8 2 -22v-5q0 -17 -9.5 -31t-24.5 -19q-3 -1 -9 -1h-11q-16 0 -33 6q-9 1 -13 12q-11 27 -11 48v7q0 15 1.5 44.5t1.5 44.5v9v12q0 17 1 35.5t2.5 41.5t2.5 36q3 45 3 46q0 16 3 45.5t3 42.5q1 34 3.5 97.5t3.5 83.5
v6q0 14 -4 20q-4 7 -4 17q0 11 -2 33v10q0 29 9 56q1 2 2 5.5t2 5.5q5 28 35 45q7 4 12 4q7 0 13 -7q14 -16 28 -22q13 -7 18 -25q7 -22 11 -38q8 -30 24 -88.5t24 -87.5q8 -26 22 -79t22 -80q11 -40 18 -74q0 -3 2 -7q2 -8 8 -8t8 7q11 24 17 44q7 21 24 54q21 38 43 105
q4 13 16 39q21 48 39 120q12 52 14 64q3 22 7 61q5 39 17 65q2 6 10 6h1q2 -1 3 -1q12 -3 20 -10q4 -1 11 -3t11 -3q16 -4 19 -20q2 -11 8.5 -38t7.5 -42q2 -14 2 -20q2 -78 4 -115q1 -9 1.5 -26.5t1.5 -32t3 -26.5q1 -5 1 -17v-14q0 -9 1 -13q2 -14 3.5 -46t4.5 -49
q4 -24 9 -85.5t12 -94.5q2 -12 2 -20v-13q0 -15 2 -22q4 -13 7 -32q7 -13 9 -30q4 -27 10 -81v-7q0 -21 -18 -29q-10 -4 -16 -15q-9 -13 -25 -13h-7q-17 3 -34 12q-13 7 -14 18q0 4 -3.5 24t-3.5 31v10q3 20 3 22q1 3 1 9q0 4 -1 6q-2 5 -2 16q0 5 2 17q1 2 1 6q0 3 -2 11
q-4 13 -8 39.5t-8 39.5q-1 4 -2 15.5t-3 16.5q-5 5 -7 25q-1 16 -6.5 45t-6.5 42q-1 12 -2.5 36.5t-2.5 36.5q-1 11 -1.5 41.5t-3.5 46.5q0 1 -0.5 3.5t-0.5 3.5q0 5 2 17q-8 4 -9 4q-2 0 -5 -7q-7 -25 -25 -59q-34 -66 -44 -103q-1 -5 -6 -14.5t-6 -11.5q-38 -99 -48 -145
q-8 -34 -8 -53t5 -33q2 -6 2 -9q0 -9 -9 -17q-8 -6 -9 -13q-5 -17 -19 -18l-15 -18q-7 -7 -13 -7q-7 0 -15 11q-2 2 -4 15q-3 16 -3 35q0 2 0.5 5.5t0.5 5.5z" />
    <glyph glyph-name="N" unicode="N" horiz-adv-x="571" 
d="M527 431q-1 -7 -1 -20t-1 -23.5t-5 -19.5q-2 -6 -2 -10q0 -2 0.5 -5.5t0.5 -5.5v-11q0 -33 -4 -58q-1 -5 -1 -16q0 -12 2 -18q1 -3 1 -9q0 -3 -0.5 -10t-0.5 -11q0 -5 -0.5 -14.5t-0.5 -14.5q0 -49 3 -99q0 -1 0.5 -3t0.5 -3v-4q-2 -18 -2 -29q0 -17 3 -48.5t3 -45.5
q0 -4 2 -11.5t2 -9.5q1 -5 1 -16q0 -27 -22 -42q-24 -19 -27 -22q-6 -7 -16 -7q-1 0 -2.5 0.5t-2.5 0.5q-28 3 -44 16q-3 3 -12 8.5t-13 9.5q-15 10 -39 38q-6 7 -14 25q-29 57 -58 135q-4 10 -6 32q-3 13 -3 14q-11 25 -26 87q-4 15 -14 43q-36 94 -56 129q-4 7 -7 19
q-7 21 -17 46q-2 1 -5 1q-7 0 -7 -9v-7q0 -13 3 -27q1 -8 1.5 -17t1 -19.5t0.5 -16.5q0 -8 0.5 -23.5t1 -28t1.5 -23.5q2 -26 4.5 -74.5t3.5 -64.5q2 -31 4 -87t3 -78l6 -99v-7q0 -7 -1 -10q-4 -16 -18 -17t-24 -9q-8 -7 -18 -7q-8 0 -19 7q-7 5 -17 17q-8 11 -14 15
q-16 14 -37 55q-3 6 -3 13t5 15v1q0 6 3 10q10 16 10 42v11q-1 22 -1 65v6q0 10 1 30t1 30v46q0 6 -0.5 19.5t-0.5 20.5v4q0 8 1.5 24t1.5 24v7q-1 14 -1 42v54v4v8q0 29 2 89v24q0 21 -2 32q0 1 -0.5 3.5t-0.5 3.5q0 3 0.5 8t0.5 7v3q-2 24 -9 40q-2 4 -2 7v1q2 44 12 69
q16 37 59 37q13 0 24 -4q3 -1 6.5 -2.5t7.5 -4t6 -3.5q9 -5 13 -18q34 -106 48 -137q8 -18 37 -98q3 -9 11 -27q3 -5 49 -118q4 -11 13.5 -33t14.5 -33q7 -18 21.5 -49.5t18.5 -40.5q5 -13 7 -16q2 -6 6 -6h2q4 1 4 9q0 3 1 8.5t1.5 10t0.5 8.5v4q0 1 -0.5 5t-0.5 6
q0 8 1.5 25t1.5 25q1 18 5 54q1 12 5 37t5 38q2 25 10.5 79t9.5 84q1 14 5 40t5 40q2 30 2 45q0 20 -5 45q-4 7 -4 16q0 6 2 18q2 14 21 16h8q5 0 16 -0.5t17 -0.5h5h4q15 0 21.5 -6t11.5 -25q3 -8 3 -16v-14v-8q0 -4 3 -21q2 -8 2 -25v-8q-1 -22 -1 -66q0 -4 -2 -10
q-4 -16 -6 -34.5t-3.5 -41.5t-2.5 -35z" />
    <glyph glyph-name="O" unicode="O" horiz-adv-x="484" 
d="M464 394v-7q0 -13 -6 -23q-3 -22 -3 -67q0 -34 1 -51q2 -40 2 -60q0 -32 -3 -64q-4 -41 -13 -67q-4 -12 -16 -52q-4 -16 -14 -32q-6 -22 -29 -30q-19 -7 -28 -17q-15 -16 -46 -18q-3 0 -9 -0.5t-9 -0.5q-41 0 -74 15q-7 3 -15 3h-3h-5q-14 0 -29 10q-46 31 -66 57
q-1 0 -2 2l-1 2q-10 10 -15 20q-31 34 -41 76q-15 65 -19 118q0 7 -0.5 20t-1 24t-1.5 20q0 1 -0.5 3.5t-0.5 3.5q0 4 2 10q5 21 5 62v10v11q0 17 3 26q1 2 1 8q0 5 -1 7q-5 16 -5 38q0 24 7 57q17 82 65 166q2 11 16 27q4 6 17.5 20t19.5 23q2 2 15 10q30 16 33 19
q5 5 14 5h1q2 0 6 -0.5t6 -0.5q5 0 7 1h3q4 0 9 -4.5t8 -4.5h3q6 3 12 3q3 0 11 -2q50 -17 94 -61q25 -25 29 -39q3 -8 10 -17q8 -12 13 -30q5 -19 18 -50q13 -30 13 -50q0 -10 3 -19q7 -19 7 -50v-12v-7q0 -27 2 -41zM342 374q-1 2 -1 6q0 2 0.5 5t0.5 5q1 15 1 46
q0 38 -6 63q-8 34 -24 104q-6 24 -9 35q-12 41 -51 50q-5 1 -16 2t-12 1t-3 1q-16 0 -27 -16q-31 -48 -43 -84q-5 -15 -11.5 -45t-9.5 -42q-10 -36 -11 -72q-4 -66 -4 -100v-35q0 -49 4 -88q6 -68 14 -102q4 -17 17 -31q11 -11 13 -16h1h2q3 0 12 -7q12 -9 25 -9q8 0 16 3
t14 3q13 0 21 -12q3 -4 9 -4h3l9 6q20 30 31 69q22 79 30 164q1 5 1 14t1 13v2q0 8 1 11v1q1 1 1 2q1 3 1 8.5v8.5v1q1 6 1 18q0 14 -1 21z" />
    <glyph glyph-name="P" unicode="P" horiz-adv-x="495" 
d="M176 351q2 -14 11 -14q2 0 6 2q6 4 23.5 11t31 15t17.5 18q27 58 29 89q0 6 4 16q5 12 5 37v3q0 26 -20 40q-28 20 -107 31h-3q-12 0 -13 -16v-4q0 -7 2.5 -20t2.5 -18q1 -9 3.5 -38.5t3.5 -45.5q0 -12 2 -35.5t2 -35.5v-6v-18v-11zM191 232h-1q-12 0 -13 -15v-4v-3
q1 -9 1 -26q0 -15 -2 -43t-2 -36q0 -4 -0.5 -12.5t-0.5 -12.5q0 -33 2 -49q0 -1 0.5 -2t0.5 -2l-3 -24q-6 -64 -6 -95v-7q0 -21 -21 -28q-11 -4 -35.5 -10.5t-36.5 -11.5q-8 -3 -14 -3q-14 0 -24 9.5t-11 25.5q-1 10 -1 31q0 6 0.5 17t0.5 16q0 3 -0.5 9t-0.5 9v24
q0 23 -1 34v5q0 4 0.5 12.5t0.5 12.5v3v28q0 12 0.5 36t0.5 36v15l-3 150v8v2q1 13 1 38q0 13 -0.5 39t-0.5 39v22v2q0 6 -2.5 18t-2.5 18v3q4 86 23 125q9 18 15.5 28t20.5 20t32 11q7 0 17 6q8 4 26 12q22 9 43 9q6 0 20 -2q65 -11 116 -51q6 -5 17 -12t15 -9
q65 -43 99 -110q14 -30 15 -47q0 -4 0.5 -12t0.5 -12q0 -56 -20 -88q-14 -24 -22 -36q-11 -17 -31 -27q-12 -7 -32.5 -22.5t-29.5 -20.5q-45 -28 -92 -34q-6 -1 -17.5 -2.5t-21 -2.5t-17.5 -1h-3z" />
    <glyph glyph-name="Q" unicode="Q" horiz-adv-x="527" 
d="M381 242q0 1 0.5 3.5t0.5 4t1.5 3t3.5 1.5q-4 5 -4 15v6v4q0 105 -16 204q-1 4 -1 12t3 12l-1 1q-2 0 -5 11q-10 44 -19 67q-14 36 -43 53q-9 6 -18 6q-13 0 -22 -9q-24 -24 -43 -26q-5 -1 -16 -12q-36 -41 -52 -106q-25 -99 -30 -167q-2 -28 -2 -43q0 -57 14 -116
q4 -15 10 -15q5 0 10 4q36 27 80 27q61 0 109 -45q9 -9 13 -9q5 0 8 17q16 74 19 97zM287 41q1 1 1 3q0 4 -4 8q-15 20 -41 20q-1 0 -1 -0.5t-1 -0.5h-4h-1q-7 0 -11 -2q-9 -5 -9 -10q0 -7 9 -11q18 -8 51 -13h3q5 0 8 6zM520 -1q8 -5 8 -11t-4 -11q-22 -33 -24 -44
q-2 -6 -5 -9q-29 -25 -48 -25q-1 0 -2.5 0.5t-2.5 0.5q-35 2 -44 5q-27 7 -54 39q-2 2 -4.5 5.5t-3.5 4.5q-6 8 -11 8t-10 -4q-25 -20 -59 -23q-2 0 -6 -0.5t-6 -0.5q-18 0 -45 9q-53 18 -82 44q-22 18 -45 52q-2 2 -2 4q0 1 0.5 1t0.5 1q-7 7 -15 25q-38 99 -38 184v20
q0 2 0.5 8t0.5 8v6q0 25 3 37q0 1 -0.5 2t-0.5 2q0 5 3 10v1v1v4q0 3 2 8t2 7q24 87 29 100q4 11 13 49t30 71q32 51 35 55q4 6 8.5 13.5t10 17t8.5 14.5q22 40 65 54q4 1 11.5 4t11.5 5q24 8 36 8q15 0 29 -7q62 -29 92 -76q42 -65 52 -131q4 -24 4 -53v-22q0 -1 -0.5 -3
t-0.5 -3q0 -9 2 -24.5t2 -20.5q1 -9 5 -44t5 -54v-16q0 -37 -3 -73q-1 -8 -6 -23t-6 -17q-11 -42 -20 -58q-3 -3 -3 -5v-3q0 -4 -1 -5v-2q0 -5 -3 -8v-2q0 -6 -3 -8q-3 -1 -3 -6v-2q0 -4 -1 -5q-3 -17 -10 -31q-4 -8 -4 -17q0 -23 27 -31q13 -4 31 -4q2 0 6.5 0.5t6.5 0.5
h11q16 0 25 -7z" />
    <glyph glyph-name="R" unicode="R" horiz-adv-x="523" 
d="M425 128q55 -71 70 -108q5 -10 8 -21q2 -8 2 -9q0 -7 -10 -13q-21 -12 -44 -12q-11 0 -31 6q-39 15 -53 30q-2 3 -33 28q-14 12 -18 21q-1 2 -3.5 6.5t-4.5 8t-4 6.5q-13 16 -42 77q-7 15 -8 20q-1 1 -2 4l-1 3q-6 8 -6 12v1q-8 11 -17 33q-14 22 -16 26q-5 7 -16 27
t-21 36t-19 24q-3 0 -4.5 -7.5t-2.5 -20.5l-1 -12q-7 -105 -7 -136v-8v-4q0 -15 -2 -41.5t-2 -35.5q-2 -38 -2 -58v-18q0 -12 2 -24.5t2 -22.5v-5q0 -8 -7.5 -23.5t-13.5 -16.5q-4 -1 -11 -1h-2h-11q-4 0 -13 -0.5t-14 -0.5q-6 0 -18 2q-10 2 -14 4q-16 7 -16 40
q0 5 0.5 15.5t0.5 15.5v1q-4 8 -4 13v2q1 2 1 3q3 16 3 32v27q1 19 5 62q6 54 8 85q5 55 5 66q1 15 3.5 43t2.5 42q3 56 4 67q2 10 2.5 28.5t1.5 25.5q7 58 7 100q0 22 4 64t4 61q2 32 9 52q5 11 12 16q20 11 35 11q1 0 4 -0.5t4 -0.5q5 -1 15 -1q7 0 21 2q16 2 48 2t48 -2
q28 -2 42 -5q35 -8 87 -43q4 -1 16 -10q45 -37 64 -80q2 -4 11.5 -24.5t13.5 -32.5q6 -18 6 -36q0 -31 -15 -54q-18 -29 -42 -45q-13 -8 -35 -30q-7 -8 -33 -22q-7 -3 -20 -10t-20 -11q-10 -5 -16 -11q-3 -3 -11 -6t-8 -7v-3v-1q43 -65 60 -106q19 -44 51 -90q6 -8 11 -22z
M291 499q34 24 50 38q20 18 20 37q0 6 -3 15q-2 6 -3.5 17.5t-4 20.5t-7.5 16q-24 37 -63 51q-33 11 -71 11q-23 0 -34 -2q-17 -3 -17 -20v-5q1 -7 1 -22q0 -8 -0.5 -26t-0.5 -26q0 -16 -2 -47.5t-2 -47.5v-5v-23v-15q0 -11 8 -11q1 0 7 2q2 1 6 3.5t7.5 4t7.5 1.5
q11 2 19 8q3 3 17 5q48 9 65 20z" />
    <glyph glyph-name="S" unicode="S" horiz-adv-x="410" 
d="M198 746q10 3 20 3q3 0 11.5 0.5t13.5 0.5q26 0 34 -7q11 -8 49 -40q7 -6 13 -16.5t9 -18t8 -22.5l6 -18q7 -20 7 -40q0 -11 -3 -17q-4 -7 -26 -17q-6 -3 -15 -4.5t-14 -3.5h-3q-8 0 -25 12q-15 11 -16 41q-1 19 -13.5 35.5t-27.5 20.5q-10 2 -14 2q-35 0 -56 -45
q-7 -14 -7 -27q0 -27 29.5 -49.5t70 -46t56.5 -43.5q44 -56 51 -105q8 -54 15 -73q10 -26 11 -39q0 -5 1.5 -10t3.5 -15.5t4 -19.5q1 -5 1 -16q0 -38 -22 -69q-28 -38 -46 -45q-11 -4 -15.5 -8t-6.5 -13q-4 -15 -28 -21q-10 -3 -22 -3h-1h-3q-10 0 -35 -1h-2q-28 0 -63 15.5
t-59 47.5q-50 63 -57 122q-2 14 -4.5 26t-5 23t-3.5 15q-3 15 -3 27q0 2 0.5 6t0.5 5q0 12 10 23q19 21 39 30q8 4 16 4t15 -9q14 -19 15 -35q1 -17 10 -45q10 -32 14 -48q6 -23 18 -39q11 -14 18 -31q9 -22 44 -24q3 0 7 -0.5t5 -0.5q6 0 17 3q12 4 17 28q1 3 1 6v5t0.5 3
t0.5 2q1 1 1.5 3.5t0.5 3.5q0 2 1 5t1 4v3.5t1 4.5l1 2v3v1q0 5 1 8t1.5 10t0.5 9q1 4 1 14q0 2 -0.5 4t-0.5 3q0 2 -1 5q0 3 -1 5q-1 1 -1 5v7q-2 9 -4 36q-1 11 -9 22.5t-22.5 26.5t-21.5 24q-17 22 -60 53t-58 47q-36 40 -36 99q0 44 21 86q15 29 39 53q14 14 79 32z" />
    <glyph glyph-name="T" unicode="T" horiz-adv-x="403" 
d="M228 -20q-3 -2 -10 -2q-6 0 -16.5 4t-15.5 4h-3q-3 0 -11.5 -1t-12.5 -1q-11 0 -19 6q-10 10 -10 38q0 7 0.5 14.5t2 15t1.5 11.5q2 17 5 51t5 51q10 87 18 133q2 42 2 64v10v4q0 25 4 73q2 24 2 34v1v3q0 5 3 7v3l3 18q4 12 4 19v2l-1 2q-1 15 -16 15h-1h-6
q-21 0 -67.5 4t-59.5 5q-5 0 -8.5 2.5t-5 4.5t-3.5 7.5t-4 8.5q-5 9 -5 17q0 4 2 11.5t3 13.5q2 15 7 22q2 3 3 6.5t1.5 5.5t2.5 4t6 3q18 5 52 5h13q7 -1 20 -1q28 0 86 10q9 2 25 2q7 0 68 -9q4 -1 12 -1q4 0 13 0.5t13 0.5q12 0 21 -3q2 -1 11 -1t17 -1t8 -4q13 0 13 -19
q0 -3 -1 -8t-1 -8q0 -93 -36 -94q-38 4 -49 8q-6 2 -18 4.5t-16 3.5q-10 2 -13 2q-12 0 -14 -10q-3 -24 -3 -49v-27q0 -19 -1 -29q1 -11 1 -34q0 -13 -0.5 -39t-0.5 -39q2 -44 2 -65q0 -15 -0.5 -44t-0.5 -44v-14q0 -61 2 -91q0 -4 0.5 -12t0.5 -11q0 -7 -0.5 -22.5
t-0.5 -22.5l-3 -6q-5 -18 -20 -22z" />
    <glyph glyph-name="U" unicode="U" horiz-adv-x="636" 
d="M597 428q-5 -52 -9 -64q-1 -3 -1 -10v-3v-9q0 -17 -11 -59q-1 -4 -4.5 -19.5t-6.5 -22.5q-1 -3 -8 -20t-9.5 -22.5t-9 -19.5t-11.5 -21t-12.5 -17t-16.5 -18q-17 -14 -32 -38q-12 -20 -31 -20q-11 0 -18 -6q-30 -22 -93 -30q-3 0 -13.5 -0.5t-16.5 -1.5q-16 -2 -22 -2
q-43 0 -86 30l-9 6q-47 25 -84 94q-22 43 -37 99q-1 3 -9.5 37t-11.5 52q-1 6 -5 19.5t-5 20.5q-7 42 -7 53q0 12 3 22q1 2 1 7q0 1 -0.5 2t-0.5 2q-3 18 -3 37q0 1 3 52v2q0 5 -2 12.5t-2 10.5q-7 42 -7 60q0 26 8 43q2 5 6 7.5t11.5 4.5t10.5 3q12 5 22 5q14 0 20 -11
q3 -7 4 -16.5t1 -21t1 -17.5q4 -35 4 -79q0 -29 -1 -45v-5v-30q0 -35 4 -64q5 -36 13 -60q2 -6 16.5 -57.5t24.5 -76.5q9 -23 15 -28q40 -38 81 -41h19q24 0 56 5q17 3 28 17q14 17 28 46l2.5 5t3 5.5t3.5 4.5q45 58 53 139q1 11 16 66q13 43 19 95q3 21 19 61q11 28 26 113
q2 18 18 18q4 0 22 -2q54 -3 54 -30v-3q0 -3 -6.5 -46.5t-6.5 -65.5q0 -11 1 -17q1 -8 1 -24q0 -11 -8 -96q0 -5 -2 -17z" />
    <glyph glyph-name="V" unicode="V" horiz-adv-x="498" 
d="M305 104q-21 -45 -29 -73q-4 -24 -19 -53q-3 -6 -3 -11q0 -2 0.5 -6t0.5 -5q0 -4 -3 -7q-7 -6 -18 -8q-7 -1 -22 -1q-24 0 -41 13q-8 8 -15 28.5t-15.5 57.5t-10.5 43t-3.5 29.5t-4.5 36.5q-3 14 -7.5 38.5t-6.5 33.5q-12 46 -18 67q-7 24 -15 63q-1 4 -6 33t-9 41
q-2 6 -8 50q-3 23 -16 38q-7 8 -14 42q-2 8 -3 22t-2 19q-3 22 -13 43q-4 9 -4 21q0 4 1 11t1 10q1 15 7 29q8 21 33 22h5q22 0 26 -24q6 -26 19 -65q4 -12 31 -76q5 -13 19 -50.5t23 -57.5q10 -22 30 -105q4 -20 10 -51t8 -38q6 -60 7 -62q3 -10 7 -10q6 0 16 44q2 13 4 21
q6 21 20 81.5t18 76.5q26 85 33 100q8 17 20 65q20 80 40 109q25 34 38 39q3 1 8 1q12 0 15 -12q5 -8 23 -19q10 -7 15 -26q2 -16 2 -25q0 -46 -19 -87q-4 -9 -8 -22t-10.5 -33.5t-11.5 -34.5q-29 -87 -40 -111q-10 -21 -16 -53q-12 -58 -26 -98q-8 -21 -10.5 -30.5
t-8.5 -25.5q-2 -5 -10.5 -20.5t-13.5 -27.5z" />
    <glyph glyph-name="W" unicode="W" horiz-adv-x="607" 
d="M9 467q-3 19 -7 56t-7 56q-2 18 -2 29q0 18 5 40q6 24 17 30q15 9 30 9q4 0 14 -2q18 -5 18 -20l-1 -2v-3q-4 -24 -4 -55q0 -39 10 -87q2 -11 4.5 -31t3.5 -27q9 -54 25 -101q14 -29 40 -108q10 -28 14 -42l15 -54q0 -2 1 -5.5t2 -5.5q2 -4 5 -4h1q5 0 6 4q2 6 2 9
q10 110 10 132q0 32 -2 48q1 13 3 38t4 37q0 3 -0.5 7t-0.5 6q0 17 4 49q8 68 8 80q1 17 12 64q5 18 25 18h2q4 0 11.5 -0.5t11.5 -0.5q9 0 15 -6t6 -14v-1v-5q0 -7 8 -52q0 -1 0.5 -5t0.5 -5q6 -16 12 -48t11 -47q5 -16 13.5 -47.5t10.5 -38.5q2 -6 12 -38.5t15 -50.5
q3 -6 6 -18.5t5 -17.5l30 -96q2 -8 4 -12q2 -5 5 -5h2q5 1 5 8v27q0 5 -0.5 14t-0.5 14v4q0 7 2 21q2 9 2 26q0 15 -2 43q0 2 -0.5 6.5t-0.5 6.5q0 6 3 14q9 20 9 26q0 1 -0.5 2.5t-0.5 2.5q-3 10 -3 30v5v30v40v1v14v7q1 6 1 18t-2.5 34t-2.5 30q0 12 -1 35.5t-1 35.5
q-7 11 -7 24q0 16 8 28q18 29 23 33q11 11 24 11q7 0 11 -2q14 -6 48 -12q26 -5 26 -23q0 -4 -2 -14q-1 -6 -1.5 -20.5t-3.5 -21.5q2 -20 2 -29q0 -16 -2 -48q-1 -27 -7 -79v-14q0 -15 1 -23q2 -10 2 -14q0 -15 -7 -28q-5 -9 -5 -24v-3v-4q0 -24 -11 -41v-27q0 -55 2 -83v-1
q0 -5 -1 -7q-4 -13 -5.5 -27t-2.5 -31.5t-2 -26.5q-2 -12 -4.5 -42t-5.5 -47q-3 -16 -10 -92q0 -3 -2 -15t-2 -19v-1v-1q0 -11 -16 -13h-6q-16 0 -28 4q-9 2 -11 7q-1 1 -8 14t-8 20q-5 35 -33 116q-8 22 -22 68q-23 74 -26 87q-13 58 -50 155q0 2 -3.5 18.5t-5.5 24.5
q-3 9 -6 9q-2 0 -9 -4v-5q0 -14 0.5 -43t0.5 -44q0 -32 -3 -65q-4 -38 -13 -106t-12 -91q0 -4 -5.5 -53t-9.5 -74q-2 -12 -7 -20t-11 -8q-2 0 -8 4q-11 7 -25 7q-13 1 -24.5 13.5t-15.5 29.5q-10 48 -15 71q-25 109 -44 165q-45 134 -58 172q-19 54 -27 113z" />
    <glyph glyph-name="X" unicode="X" horiz-adv-x="375" 
d="M330 684q5 4 14 4q16 0 22 -14t6 -27q0 -9 -3 -16q-9 -35 -29 -74q-5 -10 -16.5 -27.5t-15.5 -23.5q-12 -20 -25 -60q-3 -9 -8.5 -27t-9 -29t-9.5 -25.5t-13 -26.5q-3 -5 -9 -13q-5 -5 -5 -12q0 -3 2 -9q7 -22 25 -64q2 -3 5 -9.5t4 -10.5q5 -3 7 -14q3 -7 9.5 -21.5
t9.5 -21.5q4 -7 9 -19.5t6 -14.5q19 -42 29 -58q7 -11 10 -25q0 -1 1 -2v-2q0 -6 -4 -9q-13 -11 -26 -15q-2 -1 -5 -1q-4 0 -6 1q-34 11 -56 37l-24 33q-9 12 -17 18q-7 5 -7 12l1 1v2q-2 6 -4 22t-5 23q-2 4 -5 13t-5 14q-3 6 -6 6t-6 -5q-10 -18 -25 -31q-3 -2 -8 -15
q-1 -1 -6 -15.5t-9 -21.5q-11 -17 -27 -53q-6 -13 -11 -25q-2 -6 -12 -14q-3 -3 -8 -3h-1l-2 1q-3 1 -8 1q-2 0 -6 -0.5t-6 -0.5h-1q-20 0 -32 15q-4 4 -4 12q0 1 0.5 2.5t0.5 2.5q2 12 5 18q8 18 26 50.5t24 44.5q13 25 25 50q0 1 1 3.5t2 3.5q3 4 28 48q8 15 15 43
q1 2 1 7q0 4 -1 6q-24 68 -37 101q-25 61 -27 65q-12 22 -23 66q-6 27 -18 49q-8 18 -8 33v2q0 27 25 35q1 0 2.5 0.5t2.5 0.5q18 0 27 -16q4 -7 12.5 -21.5t12.5 -22.5q29 -54 33 -61q2 -5 4 -11l4.5 -13.5t3.5 -11.5q5 -14 16.5 -39.5t13.5 -31.5q2 -2 2 -5q5 -4 7 -4t6 5
q3 4 5.5 8.5t5 10t4.5 8.5q21 38 36 73q3 6 22 33q18 27 30 52q8 16 9 24q1 14 12 21q3 2 8 5.5t7 5.5z" />
    <glyph glyph-name="Y" unicode="Y" horiz-adv-x="414" 
d="M70 490q-43 78 -52 92q-2 3 -9 14.5t-10 16.5t-8.5 15.5t-7.5 17.5t-4.5 16t-2.5 18q0 16 39 33q7 3 13 3q14 0 23 -9q2 -2 4 -6.5t3 -5.5q25 -51 33 -65q7 -11 46 -79q12 -19 34 -57.5t33 -57.5q28 -48 43 -70q9 27 10 41q0 1 8 25q2 5 2 13v3q0 19 7 40q6 22 18 63.5
t17 60.5q19 67 28 116q3 10 15 10q5 0 15.5 -2t14.5 -2q11 -1 19 -7q11 -11 11 -30q0 -8 -1 -12q-1 -7 -4 -18.5t-3 -13.5t-1.5 -7t-1.5 -7v-1l1 -1v-2q0 -8 -4 -18q-14 -29 -23 -84q0 -2 -6 -72q-1 -11 -1 -33q0 -27 -1 -40q-2 -32 -9 -55q4 -7 4 -16q0 -5 -2 -17
q-1 -9 -6 -22.5t-6 -17.5q-5 -19 -24 -72q-11 -38 -16 -84v-14v-5q0 -1 -6 -58q0 -4 -0.5 -11t-1.5 -10q0 -3 -2 -25.5t-4 -36t-6.5 -30.5t-10.5 -24q-6 -8 -19 -9.5t-14 -10.5q-1 -5 -6 -5q-1 0 -4 0.5t-5 0.5t-8 -2q-6 -3 -10 -3q-5 0 -16 -3t-18 -4q-1 0 -3 -0.5t-3 -0.5
q-15 0 -25 7.5t-10 18.5v1l3 54q1 6 9 32q4 8 15 54q4 16 10 46q9 45 9 56q0 2 6 62q0 6 2 12.5t4 12t3 8.5q2 6 5.5 16t4.5 14q1 2 1 5v1q-10 8 -32 44q-3 5 -15 24t-18 30q-1 3 -13.5 24.5t-17.5 33.5q-12 27 -42 81z" />
    <glyph glyph-name="Z" unicode="Z" horiz-adv-x="584" 
d="M28 589q-13 0 -20.5 7.5t-7.5 18.5q0 7 3 13q4 10 10 12q6 6 18 8q38 8 58 12q1 0 4 0.5t5 0.5q5 0 8 -1q4 -1 10 -1q8 0 18 2q12 4 37.5 11t38.5 10q3 1 8.5 2.5t8.5 2.5q18 5 22 8q6 5 13 6q50 9 103 26q9 4 27.5 10.5t27.5 9.5q32 12 44 17q8 4 17 4q13 0 20 -5
q15 -10 26 -21q8 -8 8 -18q0 -7 2 -17v-3q0 -4 -3 -9q-4 -7 -6 -18q-5 -22 -27 -46q-26 -28 -40 -41q-23 -21 -28 -27q-15 -19 -39 -36q-14 -11 -26 -38q-2 -5 -8 -13q-11 -14 -19 -33q-14 -41 -19 -52q-3 -6 -3 -7v-1q0 -10 -12 -28t-21 -39q-6 -18 -24 -42q-1 -1 -3.5 -4
t-3.5 -5l-30 -60q-2 -6 -2 -8q0 -8 11 -10q9 -1 27.5 -4t27.5 -5l108 -18q5 -1 13.5 -2.5t15.5 -2.5t13 -1t8 -2q1 0 4 -1t4 -2q5 -2 14.5 -6.5t17.5 -7.5t16 -4q8 -2 12 -7l21 -9q10 -4 29 -25q1 -1 1 -4v-2q-1 -3 -2 -9t-2.5 -10t-5.5 -8q-2 -2 -11 -13.5t-17.5 -19.5
t-12.5 -8h-1q-12 1 -64 8q-11 2 -42 6.5t-47 7.5q-2 0 -4 2q-6 0 -13 -0.5t-15 -1.5t-13 -1q-6 0 -26 -2t-31 -2q-21 0 -38 4q-8 2 -24 2q-11 0 -35 11q-24 12 -44 12q-1 0 -28 6q-11 3 -11 24q0 1 4 41q1 14 11 30q8 14 24.5 39t23.5 36q46 80 54 106q0 1 2 3q1 2 2.5 6.5
t3 8t3.5 6.5q3 9 10 20v1q0 2 2 3q5 10 29 46q22 34 93 131q6 8 13 17t15.5 20t13.5 17q1 1 2 2.5t1 2.5q2 4 2 6q0 6 -6 7q-2 1 -5 1q-4 0 -7 -1q-24 -7 -73.5 -16.5t-59.5 -11.5q-12 -2 -32 -5t-24 -4q-16 -2 -21 -5t-10 -3q-10 0 -38.5 -3t-44.5 -3q-7 0 -20 -0.5
t-19 -0.5z" />
    <glyph glyph-name="bracketleft" unicode="[" horiz-adv-x="391" 
d="M224 -167q-9 -2 -25 -2q-26 0 -60 12q-7 3 -20.5 5t-23.5 6t-18 12q-21 20 -21 58q0 6 2 18q10 46 10 88q0 26 -5 84t-5 96v22q0 8 0.5 24t0.5 25q0 70 -8 111q-1 5 -4 14t-4 14q-5 22 -10 56q-10 75 -10 91q0 2 0.5 5.5t0.5 5.5v1q0 1 -3 4q0 3 0.5 9t0.5 9q0 15 -1 40
t-1 36q0 46 18 70.5t73 32.5q9 5 73 15q73 11 100 11h15h5q8 0 17 1.5t12 1.5q9 0 23 -14q8 -8 18 -67q0 -1 0.5 -2.5t0.5 -2.5l-1 -1q-10 -29 -22 -40q-5 -5 -13 -5q-1 0 -4 0.5t-5 0.5h-34q-11 0 -29 -1q-6 0 -40.5 -1t-52.5 -4h-1q-6 -10 -6 -16v-4q2 -9 2 -27
q0 -7 -0.5 -21t-0.5 -21q0 -8 -2 -24.5t-2 -24.5v-7v-3q3 -12 4.5 -36t2.5 -30q10 -78 13 -137q1 -25 5 -75q1 -13 1.5 -36.5t0.5 -30.5q1 -39 6 -80q1 -10 1.5 -28t0.5 -24q3 -36 3 -44q0 -1 -2 -35v-2q0 -19 17 -21q39 -5 92 -10h6q4 0 14 0.5t15 0.5q18 0 26 -5
q8 -6 8 -14q0 -16 -17 -39q-6 -8 -18 -22q-13 -16 -36 -18q-5 0 -36.5 -1t-46.5 -4z" />
    <glyph glyph-name="backslash" unicode="\" horiz-adv-x="366" 
d="M22 721v5q0 24 23 51q9 10 21 10l1 -1h1q26 -2 46.5 -18.5t26.5 -41.5q8 -36 27 -79q4 -7 7 -19q27 -88 37 -117q8 -23 32 -117q2 -9 33 -146q3 -14 14 -54t15 -62q11 -58 35 -122q4 -10 8 -28q1 -3 1 -9q0 -16 -11 -26.5t-29 -11.5h-9h-15v-1h-15h-10h-1q-10 0 -18 6
q-22 21 -29 38q-13 35 -23 82q-5 23 -16 68t-16 68q-26 126 -53 186q-6 14 -21.5 54t-26.5 61q-23 48 -34 103q-7 35 -7 59q0 21 4 37q2 12 2 19v6z" />
    <glyph glyph-name="bracketright" unicode="]" horiz-adv-x="441" 
d="M191 805q9 2 26 2q26 0 60 -12q8 -3 21 -5.5t22.5 -6t18.5 -11.5q24 -22 24 -61q0 -10 -1 -15q-5 -25 -17 -39q-11 -12 -11 -30q0 -7 5 -37q0 -1 0.5 -3t0.5 -3q0 -6 -3 -17.5t-3 -17.5v-4q3 -3 3 -8v-3q1 0 1 -1l-1 -1q3 -3 3 -9v-2q1 0 1 -1v-1q30 -79 30 -155
q0 -104 13 -161q1 -5 4.5 -14t4.5 -14q8 -30 12 -56q12 -66 12 -100v-2q0 -1 3 -4q0 -21 2.5 -56.5t2.5 -49.5q0 -41 -18 -62.5t-70 -28.5q-13 -7 -72 -16q-73 -11 -100 -11q-3 0 -8 0.5t-7 0.5h-8q-7 0 -23.5 -1t-25.5 -1q-42 0 -57 15q-9 9 -19 67q0 1 -1 2.5t-1 2.5v1
q7 27 21 41q4 4 13 4q1 0 4 -0.5t5 -0.5q17 0 49.5 -1t47.5 -1h23q10 1 29 1.5t34.5 1.5t29.5 3q6 10 6 15q0 1 -1 4q-3 13 -3 38q0 5 0.5 15t0.5 15v1q0 33 1 49q0 1 0.5 3t0.5 3t-0.5 2t-0.5 2q-4 12 -6.5 36t-3.5 30q-12 74 -17 137q-2 25 -8 75q-1 10 -4 67q-3 38 -9 80
q-2 9 -2.5 27t-1.5 25q-4 37 -4 86q0 6 0.5 18t0.5 18q0 20 -17 22q-36 5 -93 10q-1 0 -3 0.5t-3 0.5q-4 0 -14 -0.5t-15 -0.5q-19 0 -27 5t-8 15q0 16 16 38q5 8 17 22q13 16 36 18q5 0 36 1t46 4z" />
    <glyph glyph-name="asciicircum" unicode="^" horiz-adv-x="311" 
d="M45 599h-5q-23 0 -28 25q0 1 -0.5 2.5t-0.5 2.5q0 13 23 28q11 7 26.5 20.5t17.5 14.5q14 11 36 25.5t30 20.5q21 15 49 22q4 1 13 1q24 0 48 -21q10 -9 33 -43q11 -17 13 -49v-3q0 -3 -6 -33q-2 -10 -2 -14t1 -6v-4q0 -10 -12 -13q-10 -2 -14 -2q-13 0 -27 6q-5 2 -9 6
t-9 10.5t-7 9.5q-35 40 -53 50q-8 4 -11 4q-5 0 -11 -3q-10 -5 -31 -22t-30 -22q-19 -11 -34 -13z" />
    <glyph glyph-name="underscore" unicode="_" horiz-adv-x="475" 
d="M417 -30q25 -11 31 -41q2 -16 2 -17q0 -6 -4 -9t-17 -8q-25 -9 -51 -12q-21 -3 -63 -3q-26 0 -76 2l-78 3h-33q-18 0 -36 3q-21 3 -42 14q-26 15 -26 39v6q2 23 10 41q9 19 27 19h5h3q32 -5 58 -5t39 1q8 1 26 2t26 1l38 1h4h2q9 4 21 4q15 0 47 -10q16 -4 46 -14
q18 -7 41 -17z" />
    <glyph glyph-name="grave" unicode="`" horiz-adv-x="216" 
d="M163 612q-14 8 -21 10q-21 6 -34 22q-14 17 -44 37q-19 13 -28 32q-2 6 -8 16.5t-8 15.5q-6 13 0 23q8 14 17 12q3 -1 18 -4t23 -7q31 -15 60 -57q7 -10 23.5 -35.5t26.5 -38.5q6 -8 7 -14q2 -8 -2.5 -13t-11.5 -5q-6 0 -18 6z" />
    <glyph glyph-name="a" unicode="a" horiz-adv-x="392" 
d="M256 237q10 2 10 13v3q0 3 -2 11t-2 13v4v5q0 12 -1 18q-6 42 -8 59q-11 123 -20 171q-1 5 -3.5 16t-3.5 17q-2 9 -6 9h-1q-3 0 -5 -9q0 -5 -2 -15.5t-2 -15.5q-3 -29 -12 -81t-11 -67q-1 -9 -4 -25.5t-5 -30t-3 -25.5q0 -1 -0.5 -2.5t-0.5 -2.5q0 -2 0.5 -7t0.5 -7
q0 -6 -2 -14q-2 -10 -3 -28.5t-2 -26.5v-4q0 -10 9 -10q1 0 2 0.5t2 0.5q18 6 26 9q5 2 22 11t27 11zM343 203q3 -27 15 -76t15 -70q2 -10 2 -16q0 -12 -12 -17q-3 -2 -3 -10q-1 -13 -9 -39q-5 -14 -18 -14h-2q-13 0 -20 13q-10 22 -15 49q-13 79 -17 110q-2 14 -12 14
q-5 0 -8 -2q-46 -23 -61 -25q-4 0 -13.5 -2t-14.5 -3q-16 -3 -20 -20q-27 -113 -36 -134q-1 -4 -4 -4q-1 0 -5 1.5t-7 1.5q-2 0 -6 -2q-26 -4 -36 -4q-20 0 -33 10q-7 6 -7 14v2q0 21 -4 37q-1 3 -1 9q0 3 2 11q2 7 16 82q4 22 13 66.5t14 66.5q5 24 18.5 68t18.5 65
q6 27 21.5 78.5t21.5 75.5q18 86 31 127q10 34 28 65q6 10 15 10q3 0 5 -1q1 -1 10.5 -2.5t14.5 -5.5q14 -11 19 -33q25 -105 27 -112q1 -5 9.5 -48.5t16.5 -75.5q0 -3 3.5 -17.5t3.5 -22.5q0 -1 -0.5 -3t-0.5 -3q0 -2 3.5 -41t5.5 -59q2 -19 8 -57t8 -57z" />
    <glyph glyph-name="b" unicode="b" horiz-adv-x="558" 
d="M404 307q2 16 2 22q0 28 -21 43q-6 4 -15 8q-44 19 -106 21h-2q-12 0 -33.5 -3.5t-31.5 -3.5q-23 -1 -49 -15q-12 -6 -12 -20v-3v-18q0 -1 -0.5 -4.5t-0.5 -5.5q-3 -20 -5 -92v-3q0 -6 1 -17.5t1 -17.5v-9q-2 -18 -2 -27v-17q0 -7 2 -27q2 -16 14 -18q14 -2 20 -2t9 1
q46 10 53 14q11 5 20 8q12 4 25 15q67 59 75 67q46 46 56 104zM142 574q-4 -50 -4 -75q0 -13 9 -14q3 0 8.5 -0.5t8.5 -0.5q5 0 13 2q57 18 74 26q59 27 94 66q13 14 13 36q0 21 -12 36q-19 24 -44 31q-33 10 -61 10q-1 0 -3.5 -0.5t-3.5 -0.5h-5q-28 0 -65 -7
q-13 -2 -14 -15q-3 -27 -3 -28v-2v-6q0 -11 -2.5 -30.5t-2.5 -27.5zM514 376q20 -29 25 -72q1 -6 1 -17q0 -30 -14 -70q-20 -55 -79 -109q-54 -50 -74 -69q-45 -50 -85 -62q-4 -1 -13.5 -5t-15.5 -5q-23 -5 -54 -5h-8q-27 -12 -55 -26q-9 -4 -22 -4q-10 0 -15 2q-9 3 -27 7
q-19 4 -37 19q-22 19 -22 44v2v4q0 8 -1 22.5t-1 21.5q0 2 0.5 5t0.5 4q1 16 1 47v20q0 6 0.5 17t0.5 17v8q0 4 -0.5 11.5t-0.5 11.5q0 7 2 21q1 7 1 22v27v10q1 16 3.5 48.5t3.5 48.5q0 7 0.5 20t1 24t1.5 20q2 14 3 42t3 42v9q0 11 -2 17t-2 11q0 3 0.5 7t0.5 7q0 47 1 71
v14q0 8 -0.5 23t-0.5 22q0 9 2 29q5 34 36 34h2h9q18 0 51.5 3.5t37.5 3.5q42 2 62 2q56 0 99 -13q32 -9 63 -44.5t34 -75.5q3 -30 3 -31v-4q-4 -55 -61 -101q-10 -8 -10 -11q0 -1 1 -1q0 -2 1.5 -4t3 -2.5t4 -1.5t3.5 -1q5 -2 15 -4q66 -14 102 -74q3 -6 11 -16t10 -13z
" />
    <glyph glyph-name="c" unicode="c" horiz-adv-x="428" 
d="M373 727q1 -2 1 -7q0 -10 -10 -20q-12 -12 -16 -14q-16 -8 -44 -28q-15 -11 -76 -45q-23 -12 -34 -35q-42 -78 -54 -168q0 -2 -2 -6q-3 -30 -3 -31v-17q0 -67 19 -114q0 -1 2 -2.5t2 -2.5q2 -3 5.5 -9.5t5.5 -9.5q13 -21 26 -26q12 -5 23 -21q7 -9 40 -33q6 -5 18 -5
q3 0 9 0.5t9 0.5h17q5 0 17 -2h6h7q10 2 14 2q22 0 43 -25q11 -13 11 -22q0 -6 -3 -12q-2 -4 -2 -6q0 -1 0.5 -2.5t0.5 -2.5q1 -3 1 -8q0 -12 -8 -32q-6 -16 -23 -21q-36 -9 -47 -15q-3 -2 -10 -2q-6 0 -8 1q-10 2 -15 2q-12 0 -32 -8q-9 -4 -20 -4q-12 0 -23 7
q-71 41 -121 101q-5 6 -17 18q-41 41 -56 100q-9 37 -9 76q0 20 4 60v8v6v4q3 104 40 183q3 11 9 20q2 9 7 16q2 10 7 17v1q0 5 3 6q4 12 16 26q3 2 7 8.5t5 7.5q5 14 26 35q19 19 44 33q24 14 37 20q25 13 55 13h17q32 0 49 -1q1 0 3 -0.5t3 -0.5q21 -2 24 -14z" />
    <glyph glyph-name="d" unicode="d" horiz-adv-x="395" 
d="M206 -2q-12 -10 -12 -22q0 -4 1 -6v-3q0 -7 -10 -13q-59 -33 -79 -39q-12 -4 -19 -4q-2 0 -10 2q-3 1 -10 1q-1 0 -5 -0.5t-5 -0.5h-3q-18 0 -26 20q-7 14 -7 32v10q2 22 2 31q0 13 -1.5 39.5t-1.5 39.5v5v5q0 13 -1.5 39.5t-1.5 39.5v7q0 37 9 147q1 13 2.5 38t2.5 37
q2 17 5 51t4 50q2 26 4 74q1 27 13 128q3 22 21 37.5t41 17.5h25q45 0 80 -8q3 -1 47 -20q3 -1 9.5 -5t10.5 -5q21 -7 34 -32q10 -21 23 -55q19 -55 25 -105q1 -7 1.5 -21.5t0.5 -18.5q0 -3 0.5 -10t0.5 -11q0 -43 -11 -160q-7 -71 -27 -127q-19 -53 -48 -90
q-50 -65 -84 -95zM168 56q24 22 36 34q13 13 53 67q3 3 5 8q30 69 40 158q2 15 4 45.5t3 45.5v9q0 4 -0.5 12.5t-0.5 12.5q0 1 0.5 2.5t0.5 2.5v20q0 25 -3 49q-3 22 -21 90q-9 35 -34 52q-36 25 -72 26h-1q-12 0 -14 -12q0 -5 -1 -15t-1 -15q-3 -46 -3 -47q-3 -19 -3 -40
v-8q0 -9 0.5 -26.5t0.5 -26.5v-23q0 -1 -0.5 -2.5t-0.5 -2.5q0 -6 3 -14q1 -3 1 -8q0 -9 -2 -13q-7 -17 -7 -38q0 -2 0.5 -6t0.5 -6q5 -71 7 -79t2 -25q0 -6 -0.5 -13t-1.5 -15.5t-1 -13.5v-24v-8q0 -37 -6 -55v-2l-1 -2v-1q1 -4 1 -12q0 -7 -1 -20t-1 -19v-7v-14v-11v-7
q0 -7 4 -9q1 -1 4 -1t10 7z" />
    <glyph glyph-name="e" unicode="e" horiz-adv-x="374" 
d="M187 748q9 1 28 1q31 0 59 -7l28 -6q20 -4 27.5 -7t14 -10.5t6.5 -21.5q0 -5 -2 -19q-3 -18 -7.5 -23t-15.5 -5h-8h-9q-11 -1 -32 -1q-22 0 -33 2q-63 10 -75 10h-5q-12 0 -38 -6q-13 -3 -13 -18v-2q4 -55 7 -79q3 -25 11 -82.5t11 -88.5q0 -4 6 -91q1 -15 16 -18
q5 -1 15 -1q24 0 41 8q16 6 24 6q11 0 18 -5q31 -22 32 -44v-4v-9q0 -9 1 -13v-2q0 -5 -3.5 -8t-12 -7t-10.5 -5q-23 -15 -59 -26q-16 -4 -23 -4q-9 0 -14 2q-2 1 -7 1q-2 0 -8 -2l-3 -9q0 -7 -1 -20t-1.5 -23.5t-0.5 -19.5q0 -26 2 -39q1 -11 4.5 -14.5t13.5 -3.5h1
q19 0 55 6q56 9 59 9q18 2 28 9q8 5 14 5q4 0 25 -8q7 -3 7 -11q0 -2 -2 -6q-4 -8 -5.5 -24t-2.5 -21l-1 -1q2 -6 2 -9q0 -6 -2.5 -11t-8 -12.5t-6.5 -9.5q-18 -28 -54 -36q-8 -1 -24.5 -7t-24.5 -7q-2 0 -6 -4q-4 -5 -10.5 -7.5t-9.5 -3.5t-12.5 -2t-10.5 -1
q-5 -1 -16.5 -1t-18.5 -2q-1 0 -2 -0.5t-2 -0.5q-3 0 -9 2q-18 5 -32 5h-1q-3 0 -13 -1t-15 -1q-16 0 -20 6q-6 13 -6 31q0 6 1 19t1 20q0 3 -1.5 8t-1.5 7l-3 120v17v22q0 31 -4 56q-1 3 -1 10q0 3 0.5 9.5t0.5 9.5v5q-2 19 -5 59t-4 60v2q0 4 1 11t1 10v1l-1 2
q-2 21 -2 63v19v29v15q0 3 -0.5 9t-0.5 9q0 6 0.5 20t0.5 20l1 1v2q0 12 -7 22q-5 6 -5 18v2v14v40q0 4 -1 20t-1 25q0 25 5 34q7 14 29 14q3 0 9 -0.5t9 -0.5q8 0 12 1q8 1 28 3t31 4q1 0 2.5 0.5t2.5 0.5t5 -2q9 -4 20 -4q6 0 18 2z" />
    <glyph glyph-name="f" unicode="f" horiz-adv-x="406" 
d="M369 736q19 -4 19 -27q0 -8 -2 -26q-2 -8 -2 -13v-2v-4q0 -28 -28 -28h-1q-9 0 -26 2t-22 2q-18 1 -51 3.5t-48 2.5q-9 0 -27.5 1t-28.5 1h-2q-17 0 -17 -9q0 -5 3 -11q8 -18 12 -26q6 -12 9 -25.5t4.5 -34.5t2.5 -27q1 -10 2 -21t2 -25t2 -21q0 -3 2.5 -11.5t2.5 -12.5
l-1 -1v-2q5 -11 24 -17q8 -2 43 -4.5t42 -4.5q6 -2 20 -3.5t24 -5t17 -11.5q5 -7 5 -19q0 -19 -7 -33q0 -2 -1 -7t-1.5 -8.5t-2 -7.5t-4 -7t-5.5 -4q-8 -2 -13 -2q-6 0 -17.5 2.5t-15.5 2.5q-5 1 -25 1.5t-37.5 2t-24.5 5.5q-12 -3 -12 -13v-3q2 -17 3.5 -50t1.5 -40
q1 -13 2 -38t2 -38v-4q0 -8 -2 -22v-18q0 -17 -2 -25v-5v-33q0 -25 -4 -44q-2 -9 -25.5 -22t-35.5 -13h-2q-33 8 -35 9q-28 11 -34 32q-10 13 -14 26q-2 2 -2 5t3 6q6 9 6 19q0 8 -2 12q-2 6 -2 9q0 8 5 18q6 11 6 23q0 4 -2 12q-1 2 -1 6v5q2 38 2 59q0 22 -2 68
q-1 27 -3 81.5t-4 81.5q-1 24 -6 50q-1 8 -4 94v1v8v4q-9 33 -10 58q0 8 -7 13q-12 11 -12 23q0 8 3 15q1 2 1.5 7.5t1.5 7.5q12 30 30 35q2 4 8 5q69 16 92 16q17 0 49.5 1t47.5 1q4 0 13 -0.5t13 -0.5q82 -3 107 -7z" />
    <glyph glyph-name="g" unicode="g" horiz-adv-x="454" 
d="M205 -60q-56 30 -101 98q-58 87 -80 185q-8 37 -8 71q0 13 2 39q0 5 2 23t2 27q1 30 17 90q2 10 7.5 29t8.5 28q0 4 1 5q5 8 24.5 49.5t35.5 60.5q7 8 21 22q40 36 62 51q14 10 37 20q16 8 31 8h4q2 0 5.5 -0.5t5.5 -0.5q14 0 29 3q3 1 11 1q2 0 7 -0.5t8 -0.5q8 0 10 -2
q28 -21 33 -44q14 -72 14 -124v-21q0 -1 -0.5 -4t-0.5 -5q0 -6 0.5 -17t0.5 -16q0 -25 -22 -29t-33 -4t-16 1q-11 1 -16 12q-16 31 -16 68q0 3 0.5 8t0.5 7q1 10 1 30q0 29 -1 44q0 14 -9 14q-3 0 -7 -2q-71 -34 -98 -99q-26 -62 -37 -119q-16 -82 -16 -139q0 -20 1 -30
q5 -76 32 -126q24 -45 36 -62q6 -9 13.5 -15.5t20 -16t15.5 -12.5q5 -3 9 -3q7 0 10 2q38 22 44 61q10 59 15 117q0 1 3 16v3q0 11 -12 11h-1q-1 0 -4 -0.5t-5 -0.5q-8 -2 -13 -2h-4q-5 2 -14 2q-10 0 -39 -11q-14 -4 -20 -4q-15 0 -28 10q-14 11 -14 28q0 8 1 12q1 5 5 14
t5 12q4 10 13 14q24 11 36 11h1h6q15 0 31.5 2.5t39 8t32.5 7.5q2 1 6.5 2t7.5 2q10 2 15 2q37 0 51 -39q7 -19 8 -33q6 -56 6 -85v-18q-2 -71 -6 -95q-5 -26 -23 -61q-14 -25 -17 -35q-13 -36 -59 -43q-19 -3 -31 -11q-22 -14 -44 -17h-5q-16 0 -44 16z" />
    <glyph glyph-name="h" unicode="h" horiz-adv-x="557" 
d="M52 -22q-18 22 -25 35q-7 14 -7 23q0 6 1 9l3 9q11 26 11 66v22q0 9 2 29v11q0 20 -3 40q-2 15 -3.5 43t-2.5 40v9q0 11 2 29t2.5 52t1.5 45q3 40 3 41q0 4 1 10.5t1.5 11.5t0.5 10q0 27 -10 51q-2 4 -2 11q0 9 6 18q6 8 6 10q11 37 53 43h4q11 0 19 -9q15 -17 23 -34
q10 -22 24 -36q11 -11 20 -35q12 -34 12 -70v-3q0 -24 -4 -68q-1 -8 -1 -25q0 -9 0.5 -26.5t0.5 -26.5v-6q0 -7 -0.5 -22t-0.5 -23v-2q0 -16 12 -16q1 0 2.5 0.5t2.5 0.5q2 0 68 6q9 1 94 20q1 0 2.5 0.5t2.5 0.5q13 3 17.5 6.5t4.5 12.5q0 1 -0.5 5t-0.5 6q-1 7 -1 20
q0 5 0.5 14.5t0.5 14.5v1q0 12 -4 20q-5 10 -5 24q0 2 0.5 5t0.5 5q1 13 1.5 28.5t1 34t0.5 28.5q2 31 2 93q0 21 14.5 37t33.5 22q2 1 6 1q8 0 17 -9q37 -40 39 -100v-32q0 -32 2 -48q1 -6 1 -16q0 -3 -0.5 -7t-0.5 -7q0 -1 0.5 -3.5t0.5 -3.5t12 -142q1 -11 3.5 -30t4 -35
t1.5 -30v-1v-1q0 -4 2 -14q4 -21 10 -64t9 -65q6 -36 6 -91v-25q0 -10 -4 -15q-16 -26 -45 -40q-8 -4 -16 -4q-13 0 -22 5q-49 24 -75 63q-8 13 -8 26v1v35v46v38v45q0 7 -1 10q-3 16 -11 16q-1 0 -9 -2q-46 -12 -79 -16q-14 -1 -38.5 -4.5t-28.5 -4.5q-17 -2 -17 -22v-1
v-76q0 -10 1 -31t1 -32v-7q-1 -20 -11.5 -32t-27.5 -12q-3 0 -11 2q-61 13 -99 64z" />
    <glyph glyph-name="i" unicode="i" horiz-adv-x="185" 
d="M158 617q2 -8 2 -11q0 -6 -4 -14q-5 -9 -12 -9h-2l-2 1h-2h-1q-1 -1 -2 -1q-8 -2 -11 -2q-13 0 -33 18q-12 6 -18 8q-19 7 -24 21q-5 5 -5 14q-2 26 -2 38q0 11 1 16q2 10 6 14q2 2 7 6.5t8 6.5q6 4 9 4h1q2 0 6.5 -0.5t6.5 -0.5h7h1q6 0 9 -5q28 -40 37 -63
q2 -7 8.5 -20.5t8.5 -20.5zM51 52q-7 7 -7 15v5v1q1 1 1 2q0 4 -2 12q-2 6 -2 10q0 5 3 10q0 1 0.5 5t0.5 5q0 7 -2 20t-2 18q-11 112 -11 126v5q0 21 3 42q7 41 7 89v2v2q0 31 4 56q1 4 1 11q0 5 -2 15q-1 2 -1 6q0 2 0.5 6.5t0.5 6.5q0 1 -0.5 2.5t-0.5 2.5v1v1l1 1
q2 6 14 12.5t19 6.5q17 0 26 -19q5 -10 46 -77q6 -6 6 -16q0 -3 -2 -11q-4 -12 -5.5 -24t-2.5 -31t-1 -25q-4 -49 -10 -73q-1 -3 -1 -8v-4q0 -11 -2 -33q0 -2 -0.5 -5t-0.5 -4q0 -6 1 -18.5t1 -18.5v-1q0 -17 4.5 -48.5t5.5 -37.5q1 -12 6 -24q4 -10 8 -34v-4q0 -8 -12 -22
q-2 -2 -4 -2q-1 0 -2 0.5t-2 0.5h-6q-8 0 -14 -3q-2 -1 -6 -1q-5 0 -10 3q-21 11 -38 31q-6 8 -10 12z" />
    <glyph glyph-name="j" unicode="j" horiz-adv-x="454" 
d="M433 389q0 -3 0.5 -10t0.5 -10q0 -12 -2 -36q-1 -10 -1 -30q0 -21 1 -31q0 -2 0.5 -7t0.5 -7q0 -17 -6 -53q-2 -14 -6.5 -42t-6.5 -42q0 -4 -8 -24q-6 -14 -6 -22v-1v-1q0 -3 -1 -4q-4 -8 -11.5 -31.5t-14.5 -34.5q-24 -41 -29 -46q-20 -22 -40 -33q-40 -22 -55 -26
q-4 -1 -24 -16q-29 -24 -57 -24q-9 0 -18 3q-49 12 -75 42q-45 52 -55 111q-5 35 -5 63q0 12 2 40v4v43q0 15 1 17q1 3 3.5 6t4.5 4.5t7 3.5t8.5 3.5t12.5 4t15 4.5t9 2q10 0 15 -8q11 -16 11 -34v-1q0 -11 4.5 -31.5t5.5 -24.5q2 -11 6.5 -23.5t8.5 -20.5t11.5 -22
t10.5 -20q8 -14 21 -14q1 0 3 0.5t3 0.5t3.5 0.5t3.5 0.5q55 6 82 62q31 66 44 144q3 15 3 31q0 11 -3 21v7q0 3 0.5 6.5t1.5 8t1 6.5q6 50 8 151v1v3q0 5 1 7v46q-1 1 -1 9v8v1v19v43q0 17 -2 47q-1 10 -3.5 47t-3.5 48q0 1 -0.5 3t-0.5 3q0 11 5.5 17.5t11 8.5t20.5 5
t22 5q1 0 2.5 0.5t2.5 0.5q6 0 13 -7q15 -17 21 -38q2 -10 13 -73q10 -62 10 -110q0 -3 -0.5 -11t-0.5 -11q-2 -36 -2 -54q0 -1 0.5 -4t0.5 -5q1 -11 1 -34t1 -35z" />
    <glyph glyph-name="k" unicode="k" horiz-adv-x="479" 
d="M302 19q-30 39 -58 103q-32 73 -56 108q-18 27 -28 47q-9 0 -9 -10v-17v-51q0 -31 2 -46q1 -8 1 -25v-3v-14q2 -60 4 -89q5 -69 7 -78q2 -14 2 -22v-8q0 -13 -10 -13q-3 0 -5 1q-15 6 -32 6h-13q-1 0 -3 -0.5t-3 -0.5q-23 0 -40 25l-6 12q-1 4 -12 38t-13 52q0 8 -3 23
t-3 22q0 1 -0.5 2t-0.5 2q0 8 6 14q5 7 5 20q0 3 -2 13q-3 17 -3 34q0 5 0.5 14.5t0.5 14.5v11q0 5 -0.5 15t-0.5 15v22v27q-1 17 -1 51q0 19 0.5 39.5t1.5 46t1 39.5t0.5 57.5t1.5 67.5q-3 20 -3 57.5t-1 47.5q-2 31 -9 46q-4 10 -4 14q0 11 7.5 18.5t20.5 8.5q2 0 6 0.5
t6 0.5q8 0 26 -2q14 -1 14 -14v-4v-4q0 -11 4 -19q13 -27 26 -81q4 -20 8 -27q4 -8 4 -18v-13v-4q2 -12 3 -26t1.5 -30.5t1.5 -25.5q0 -5 1 -8q2 -5 6 -5t5 2q3 3 7 11q9 15 27 44t27 44q15 25 44 69.5t39 59.5q19 28 23 36q9 15 24 15h2q35 0 50 -19q9 -10 9 -20
q0 -5 -5 -15q-10 -18 -32 -52q-12 -19 -48.5 -74.5t-55.5 -86.5q-16 -26 -22 -41q-1 -3 -14 -21l-18 -30q-6 -10 -6 -16q0 -3 7 -17q3 -4 42 -55q8 -9 23.5 -27t22.5 -27q19 -22 37 -51q9 -13 25.5 -39t25.5 -38q2 -3 3.5 -6t3 -7t2.5 -6q10 -22 43 -68q6 -8 9 -13
q10 -18 10 -24q0 -8 -15 -27q-14 -18 -44 -25q-5 -1 -10.5 -2t-12.5 -2t-11 -2q-3 -1 -9 -1q-15 0 -26 12q-2 3 -9 10t-11 13t-7 12t-4 7z" />
    <glyph glyph-name="l" unicode="l" horiz-adv-x="376" 
d="M22 638v12q0 11 -3 37.5t-3 38.5t3 19q3 8 8 8q1 0 4.5 -0.5t5.5 -0.5q5 0 10 6q1 2 9 5t17 6t10 3q7 4 14 4q11 0 18 -7.5t7 -20.5v-4q0 -13 2 -41t2 -42q0 -3 -0.5 -8t-0.5 -8q-1 -10 -1 -34q0 -31 5 -48q3 -10 3 -16q0 -2 -0.5 -7t-0.5 -8q0 -7 1 -11q6 -22 12 -66
q5 -37 7 -45l3 -36q4 -44 5 -67q1 -51 5 -153q0 -18 17 -18h3q20 2 31 2q3 0 8 -0.5t8 -0.5q47 -3 57 -5q1 0 7 -0.5t11 -1.5t6 -3q3 -1 13 -2t13 -6q11 -7 13.5 -34.5t5.5 -33.5q2 -4 2 -7q0 -4 -3 -9q-2 -3 -2 -18q0 -6 0.5 -17.5t0.5 -13.5q0 -5 -3 -7t-9 -3.5t-9 -2.5
q-16 -8 -51 -8h-23q-16 0 -24 -1q-67 -8 -76 -8q-3 0 -8.5 0.5t-8.5 0.5q-61 4 -95 64q-11 21 -13 53q-2 44 -2 66v50v27v13q0 23 2 69t2 69q0 4 -0.5 12t-0.5 12q-3 6 -3 12v4q2 26 2 37q0 41 -7 97q-1 4 -2.5 29t-5.5 38q-1 3 -1 9q0 4 1.5 11.5t1.5 8.5z" />
    <glyph glyph-name="m" unicode="m" horiz-adv-x="607" 
d="M572 41q11 -18 23 -58.5t14 -62.5v-3q0 -11 -6.5 -16t-19 -9.5t-21.5 -12.5q-4 -4 -12 -4q-53 0 -67 42q-22 70 -34 166q-3 26 -8 78.5t-9 78.5q-3 23 -9 68.5t-9 68.5q-1 8 -1 48q0 37 -1 45v2v2v1q0 6 -5 6t-6 -6q-9 -64 -14 -125q-2 -20 -6 -29q-7 -18 -14 -53
t-12 -50q-2 -5 -2 -16l-9 -87q-1 -7 -4.5 -28t-6.5 -32q-2 -12 -2 -18q0 -8 4 -24q2 -10 2 -14q0 -20 -14.5 -35t-33.5 -15q-5 0 -8 1q-9 2 -11 4q-24 19 -31 23q-5 3 -5 10q0 4 1 6q4 8 4 19q0 8 -4 24q-16 60 -36 189q-14 94 -40 176q-3 10 -9 30.5t-9 30.5q-1 2 -2 6
t-2 6q-2 5 -6 5h-1q-5 -1 -5 -7q0 -4 -0.5 -10t-0.5 -10q0 -8 2 -20q1 -5 1 -15v-6q-2 -28 -2 -42t1 -42t1 -42v-3v-2q0 -47 10 -104q1 -5 4 -30t7 -37q1 -2 1 -5v-1q0 -3 -0.5 -8t-0.5 -8q0 -8 11 -99q2 -16 2 -25q0 -12 -5 -27q-5 -14 -16 -20q-24 -11 -62 -11
q-24 0 -31 7q-6 6 -6 55v5q0 13 2 37v15q0 24 -3 48t-5 112q-2 50 -2 76v7q0 71 1 106v3q0 17 -8 26q-7 8 -7 22q0 1 0.5 4t0.5 4q1 18 1 54q0 17 -2 53q-2 23 -2 69q0 10 0.5 29t0.5 28q0 20 13.5 37t32.5 23q3 1 8 1q8 0 17 -6q17 -11 27.5 -28t19.5 -42.5t14 -36.5
q23 -44 42 -97q4 -11 7.5 -23t7.5 -26.5t6 -22.5q11 -38 35 -114q16 -64 18 -64t4 16t4 33.5t2 18.5q2 12 7.5 36.5t8.5 36.5l6 27q6 16 17 71l12 48q9 36 15 72q6 44 22 101q7 26 26 43q8 7 21 7t21 -8q20 -20 31 -49q20 -57 25 -97q1 -10 3 -30.5t3 -30.5q1 -14 2.5 -29
t3.5 -33.5t3 -29.5q7 -70 16 -127q8 -50 14 -75q2 -8 4.5 -17.5t5.5 -21.5t5 -18q7 -32 7 -56v-12v-7q0 -20 6 -32q4 -9 4 -24v-10v-4q0 -13 7 -24z" />
    <glyph glyph-name="n" unicode="n" horiz-adv-x="474" 
d="M193 343q-12 26 -21 38q-10 13 -33 57l-2.5 5l-2.5 5q-2 4 -5 4l-1 -1q-3 -1 -5 -6q0 -1 -0.5 -2t-0.5 -2v-6q0 -5 -0.5 -16t-0.5 -16q0 -7 2 -19v-5q0 -3 -1 -9t-1 -10v-5q0 -21 5 -129q1 -19 1 -58q0 -16 2 -46t2 -46q0 -7 0.5 -21t0.5 -21q0 -27 -4 -48v-4v-4v-1
q0 -25 -24 -25h-7q-4 0 -15.5 2.5t-17.5 2.5h-1h-1q-15 0 -22 18q-12 27 -12 49v16v32v19q0 17 -5 110q-1 15 -1 46v3v7q0 21 -2 63t-2 62q0 5 0.5 15t0.5 15q1 15 3 44.5t2 44.5q1 32 7 96q1 9 2.5 19t3.5 22t3 19q3 10 5 12q26 18 42 20h6q21 0 35 -13q6 -6 11 -18
q4 -11 17 -44.5t21 -51.5q47 -110 71 -143q6 -9 23 -49q26 -63 45 -124q0 -3 2 -5q2 -3 5 -3t5 3q2 6 2 10q5 30 9 120q1 9 3 26t2 25q5 90 5 107v1v1q0 15 5 82v19q0 13 -1 40.5t-1 36.5v4q0 13 4.5 17t19.5 4.5t23 2.5q2 1 7 1q14 0 25.5 -9t13.5 -22q6 -37 6 -76v-27
q0 -2 -0.5 -5t-0.5 -4q0 -5 0.5 -13t0.5 -13q1 -13 1 -38q0 -37 -2 -111v-2q0 -5 0.5 -15.5t0.5 -15.5q0 -1 -0.5 -4t-0.5 -4q-1 -12 -1.5 -36t-1.5 -36q0 -6 -1 -18t-1.5 -21.5t-0.5 -17.5q0 -16 1 -23q0 -1 0.5 -4t0.5 -4q0 -9 -2 -29q-1 -10 -1 -32v-32q0 -25 -3 -49
q-6 -45 -23 -60q-1 -1 -6 -13q-6 -17 -23 -21l-7.5 -2.5t-8.5 -2.5t-8 -1q-7 0 -11 2q-34 17 -44 36q-37 71 -70 189q-24 87 -46 139z" />
    <glyph glyph-name="o" unicode="o" horiz-adv-x="453" 
d="M123 333v-8q0 -7 -0.5 -25.5t-0.5 -28.5q0 -3 0.5 -8t0.5 -7t0.5 -5t0.5 -5v-1q0 -18 6 -51.5t7 -39.5q22 -66 34 -87q12 -20 26 -20q7 0 17 3q14 4 31 11q22 8 27 37q6 33 9 70q3 25 3 73.5t2 70.5q2 18 2 26q0 22 -12 113q-2 11 -7 31.5t-6 27.5q-3 14 -9 42.5t-9 42.5
q-7 34 -22 54q-9 12 -18 12q-32 0 -57 -133t-25 -195zM19 261q-2 16 -2 25q0 6 0.5 19t0.5 19q0 5 -0.5 14.5t-0.5 14.5q0 163 71 347q5 12 11 22t10.5 15t14.5 14.5t15 14.5q25 28 52 28q25 0 50 -24q34 -31 41 -42q64 -80 80 -127q10 -27 41 -138q2 -7 9.5 -28t9.5 -33
q12 -58 12 -101q0 -19 -1 -28q-1 -4 -2.5 -11t-1.5 -9q-6 -24 -7 -37q-2 -26 -11 -76.5t-16 -62.5q-5 -10 -18.5 -34.5t-19.5 -34.5t-18.5 -28.5t-22 -28.5t-24.5 -22t-32 -20q-15 -9 -36 -9q-25 0 -47 16q-63 45 -106 121q-24 41 -33 76q-10 36 -13 81q-1 11 -3 33.5
t-3 33.5z" />
    <glyph glyph-name="p" unicode="p" horiz-adv-x="443" 
d="M145 208q-11 -2 -15 -7t-4 -16v-6q0 -15 2 -44t2 -43q0 -15 13 -82q14 -72 14 -94q0 -1 -0.5 -3.5t-0.5 -3.5v-3q0 -12 4 -21q3 -6 3 -12q0 -17 -20 -23q-8 -2 -14 -2q-19 0 -40.5 9.5t-30.5 22.5q-12 18 -26 58v2q-1 2 -1 3t1 3q2 8 5 49q1 9 2 25t1 25q0 7 -1.5 37.5
t-3.5 46.5v9q0 4 0.5 12t0.5 12q0 112 1 168q3 105 9 210q3 57 3 59v2v1q0 5 5 30q1 4 1 9q0 12 -14 20q-3 2 -8 5.5t-7 4.5q-10 7 -10 17q0 1 0.5 3.5t0.5 3.5q8 39 45 46q38 8 71 8q25 0 51 -6q10 -2 27.5 -8t23.5 -8q5 -1 14 -3.5t13 -4.5q2 -1 31 -18q30 -17 75 -56
q15 -14 22 -27q35 -70 35 -118v-12q-2 -24 -10 -42q-4 -10 -10 -30t-11 -29q-18 -33 -39 -50l-35 -35q-22 -22 -40 -29q-6 -2 -23.5 -11t-28.5 -12q-5 -2 -18 -10q-34 -26 -65 -32zM124 302q1 -16 9 -16q4 0 10 3q51 25 92 60q19 16 24 44q1 3 6 17q8 17 17 46q11 35 11 66
q0 23 -6 47q-12 47 -43 58q-1 0 -3.5 1.5t-3.5 2.5q-27 13 -65 13q-15 0 -23 -1q-11 -1 -15 -5t-4 -17q0 -26 -2 -78q-2 -42 -2 -63q0 -8 -1 -24t-1 -24q0 -9 2 -27v-8q0 -5 -1 -14.5t-1 -14.5q0 -8 1 -11q0 -7 -0.5 -20.5t-0.5 -19.5v-15z" />
    <glyph glyph-name="q" unicode="q" horiz-adv-x="546" 
d="M18 245q-1 5 -1 17q0 4 0.5 14t0.5 14v12q0 53 9 104q11 64 49 125q25 41 72 93q35 41 68 54q13 5 19 13q21 22 52 22h1q40 0 98 -30q49 -26 86 -95q27 -50 41 -130q11 -72 12 -96q0 -6 0.5 -18t0.5 -18q0 -36 -1 -54q-2 -51 -28 -124q-21 -60 -61 -100q-1 -2 -4 -4.5
t-4 -3.5q-4 -5 -4 -11t5 -11q6 -7 18.5 -19.5l17.5 -17.5q15 -15 27 -30q9 -12 9 -25q0 -26 -25 -37q-25 -10 -33 -10q-12 0 -33 24q-17 19 -53 55q-12 12 -27 12q-1 0 -3.5 -0.5t-3.5 -0.5q-17 -3 -34 -3h-10h-3q-4 0 -11 -1.5t-11 -1.5h-5q-51 0 -98 37q-72 53 -109 148
q-18 48 -24 97zM136 322v-14q0 -57 18 -111q28 -82 68 -113q24 -17 38 -19q-8 16 -18 23q-15 11 -15 31q0 9 1 13q5 29 29 29q4 0 14 -4q14 -8 20 -14q8 -7 22.5 -20.5t21.5 -20.5q18 -16 27 -16q10 0 26 20q31 39 42 83q7 27 11 81q3 29 3 58q0 39 -7 93q-13 98 -51 149
q-39 51 -93 61q-1 0 -3 0.5t-4 0.5q-8 0 -15 -3q-36 -16 -57 -53q-10 -18 -16 -26q-36 -49 -47 -100q-12 -54 -15 -128z" />
    <glyph glyph-name="r" unicode="r" horiz-adv-x="419" 
d="M177 427v-2q0 -14 9 -14h1q5 1 25.5 1t31.5 3q31 7 40 40q2 8 5.5 24.5t3.5 18.5q3 12 3 25v31v2v1q-2 8 -3.5 24t-1.5 20q-5 30 -14 50q-8 19 -25 19h-3h-4q-3 0 -9.5 0.5t-9.5 0.5q-16 0 -20 -17q0 -3 -2 -9t-2 -9q-4 -25 -19 -143q-1 -10 -2 -21t-2 -24.5t-2 -20.5z
M318 -35q-14 17 -17 22q-47 95 -58 126q-2 7 -11.5 27.5t-11.5 33.5q-4 30 -30 70q-4 7 -12 20.5t-12 19.5q-4 8 -9 8q-3 0 -4 -1q-3 -4 -7 -19v-5q0 -7 -5 -44q-6 -60 -8 -90q-3 -38 -9 -74q-2 -13 -18 -31q-3 -4 -9 -4h-1q-20 2 -30 4q-3 1 -11.5 1.5t-13 3t-5.5 8.5
q-2 7 -2 23q0 10 6 58q18 124 27 162q5 20 7.5 41.5t4.5 53.5t3 42q2 16 5 47.5t4 47.5q3 37 22 165q0 1 0.5 2t0.5 2t-0.5 4t-0.5 5q0 26 20 66q2 4 20 12q8 4 19 4q9 0 39 -7h3q5 0 8 1q10 2 14 2q11 0 33 -10q17 -8 30 -12q18 -6 33 -15q34 -20 44 -67q8 -40 8 -75
q0 -40 -8 -72q-2 -9 -6.5 -38.5t-9.5 -45.5q-12 -42 -20 -63q-13 -35 -52 -46q-12 -4 -29 -4q-13 0 -13 -10q0 -5 3 -11q3 -4 34 -67q7 -14 19.5 -42.5t19.5 -42.5q5 -10 26.5 -48t29.5 -61q0 -1 8.5 -16.5t8.5 -22.5v-3q-1 -4 -7.5 -9.5t-8.5 -8.5q-9 -14 -18 -18.5
t-27 -6.5h-2q-6 0 -14 8z" />
    <glyph glyph-name="s" unicode="s" horiz-adv-x="393" 
d="M63 8q-16 18 -33 68q-13 40 -13 63q0 6 2 34v1q0 1 -0.5 7t-0.5 10q0 26 9 40q10 15 31 27q4 3 9 3q30 3 41 3q33 0 36 -14v-11q0 -31 -5 -58q-3 -20 -3 -35q0 -48 30 -74q15 -14 30 -19q1 -1 4 -1q13 0 30 16t19 28q2 10 5 28.5t5.5 33.5t4.5 28q2 16 2 23q0 24 -9 60
q-1 5 -4 15t-5 18t-3 15q-6 26 -33.5 49t-59 39t-62.5 47t-41 70q-7 24 -7 59q0 83 30 126q27 39 59 63q21 16 53 16q39 0 80.5 -22.5t64.5 -47.5q2 -1 5 -6q19 -45 24 -80v-9q3 -3 3 -7v-3q2 -7 2 -18q0 -2 -0.5 -10t-0.5 -14v-8q-1 -8 -8.5 -13.5t-14.5 -7t-20.5 -3.5
t-18.5 -3q-3 -1 -7 -1q-13 0 -22 12q-15 20 -18 36q-2 10 -2 12q0 4 2 10.5t2 11.5q0 6 -1 11q-4 16 -9 27q-18 36 -44 36q-5 0 -8 -1q-1 -3 -5 -3q-10 -15 -21 -26q-23 -25 -23 -77q0 -25 9 -40q13 -22 32 -34q8 -5 17 -11.5t14 -11.5t15.5 -15t13.5 -13q18 -16 22 -18
q9 -5 15 -12q22 -27 47 -53q31 -34 34 -82q1 -12 4.5 -38.5t4.5 -41.5v-15q0 -53 -9 -106q-12 -75 -55.5 -110.5t-99.5 -38.5q-2 0 -5 -0.5t-4 -0.5q-75 0 -136 67z" />
    <glyph glyph-name="t" unicode="t" horiz-adv-x="503" 
d="M240 737q3 1 93 13q26 3 57 14q1 1 8 1q41 0 59 -10q14 -8 18 -39.5t6 -37.5q5 -13 5 -26q0 -15 -4 -27q-3 -11 -16 -13q-11 -2 -29 -4q-18 -3 -37 -9.5t-38 -7.5q-20 -1 -65 -5q-12 -1 -15.5 -4t-3.5 -15v-2q0 -17 0.5 -53t0.5 -53v-2v-1q3 -14 3 -26q0 -8 -1 -24
t-1 -24v-9q1 -12 1 -39t2 -42q6 -7 6 -19v-8q-1 -14 -4.5 -39t-4.5 -36q-2 -75 -7 -97q-4 -58 -9 -84q-1 -4 -4.5 -15.5t-3.5 -18.5v-2v-1q0 -8 -11 -15q-6 -4 -19 -19q-12 -15 -26 -15q-10 0 -25 12q-4 4 -4 8q0 3 1 5q6 13 6 34q0 10 11 90q2 12 2 35v29v1v9q0 42 -2 126
q0 17 -2.5 51t-3.5 51q0 30 -5 53v5q1 14 2.5 42t1.5 42q0 4 1 5q0 1 0.5 2.5t0.5 2.5v53v1q0 14 -11 18q-49 21 -102 28q-9 1 -38 11q-14 4 -16 21q0 7 -1 10q0 1 -0.5 3t-0.5 3q0 9 7.5 22.5t8.5 15.5q6 16 38 20q8 1 27 2t29 3h4q6 0 9 -2q14 -9 35 -9q7 0 25 2
q21 3 22 3h5q2 3 15 6z" />
    <glyph glyph-name="u" unicode="u" horiz-adv-x="436" 
d="M90 410q7 -91 7 -118v-7v-6q0 -40 11 -102q10 -66 17 -99q5 -24 23 -68q13 -31 44 -31q1 0 4 1q16 2 21 14q26 63 27 83q1 12 3 38t3 38q4 35 7 49q2 13 3.5 38t1.5 31q4 52 4 79q0 22 -1 33q-1 20 -5 61t-5 61q-1 18 -1 55q0 51 7 96q5 37 8 44q11 27 39 31q33 5 40 9
q2 1 5 1q10 0 15 -11q4 -9 6 -19q2 -17 7 -48.5t7 -42.5q13 -91 19 -127q9 -49 10 -62v-21q0 -21 -3 -31q-7 -25 -7 -53v-12v-14q0 -35 -6 -105q-1 -13 -3 -46t-4 -51q-8 -66 -20 -98q-17 -47 -48 -70q-13 -10 -31 -13q-1 0 -19.5 -3t-27.5 -3h-5h-1q-7 0 -15 -8
q-18 -19 -46 -19h-8q-57 4 -89 63q-3 4 -25 66q-11 30 -22 82q-2 12 -4.5 34t-3.5 28q-5 32 -5 97q0 22 -3 66t-3 66q0 2 0.5 5.5t0.5 5.5q2 88 4 134q0 3 0.5 8t0.5 8v3q0 18 1 27q4 32 4 48q0 2 -0.5 6t-0.5 6v3q0 26 30 64q5 6 10 6q6 0 11 -6q6 -7 6 -20v-12v-15
q0 -10 -1 -29.5t-1 -29.5q0 -15 1 -23q1 -4 1 -14q0 -3 -0.5 -9t-0.5 -10v-13q0 -39 6 -119z" />
    <glyph glyph-name="v" unicode="v" horiz-adv-x="397" 
d="M14 594q0 6 0.5 17.5t0.5 17.5q0 31 -6 62q0 1 -0.5 3t-0.5 3q0 12 8 24t19 17q2 1 6.5 2.5t6.5 2.5q6 3 13 3t14 -3q16 -8 27 -9q25 -3 28 -28q5 -42 5 -52q0 -23 8 -67q6 -34 13 -89q8 -53 10 -77t8 -80q8 -60 10 -70q1 -1 2.5 -5.5t4.5 -4.5h4q3 9 25 104
q7 28 21.5 81.5t20.5 78.5q38 139 43 165q5 30 7 34q4 10 17.5 21t24.5 12h2q11 0 20 -9.5t9 -21.5v-1q-2 -41 -8 -70q-4 -16 -10 -45.5t-11.5 -54t-11.5 -45.5q-1 -5 -33 -131q-13 -46 -21 -86q-4 -18 -17 -65.5t-17 -73.5q-2 -15 -13 -68.5t-12 -82.5q-1 -27 -13 -77
q-3 -12 -13 -21t-21 -10h-1q-4 0 -10 4t-17.5 12t-17.5 12q-10 6 -11 14q-3 15 -18 33q-14 17 -25 71q-4 23 -17 94t-21 110q-14 70 -16 105q-1 13 -1.5 28t-1 33.5t-0.5 28.5q-1 14 -4 41t-4 37q-5 55 -5 67v9z" />
    <glyph glyph-name="w" unicode="w" horiz-adv-x="607" 
d="M12 629q-2 11 -5 16q-4 8 -4 12t3 10q3 7 3 15v5v3q0 17 13 30q7 7 19 14q7 4 15 4q20 0 26 -19q2 -6 4 -14q1 -3 6 -20t9 -26q2 -6 4 -13t4.5 -15.5t3.5 -13.5q12 -45 17 -81q2 -14 6.5 -43t6.5 -43q4 -24 7 -36q2 -9 3 -19t1.5 -22t1.5 -18v-13v-8q0 -6 4 -7l1 -1
q1 0 4 5q3 8 24 49q4 7 7 15.5t6 19t5 16.5t8 18.5t9 20.5q8 22 8 42v6v4q0 6 2 18q2 9 2.5 26t1.5 22q1 7 1.5 20.5t1.5 20.5q1 4 1 12q0 7 -3 13q-1 1 -1 4q0 1 0.5 2.5t0.5 2.5q1 5 5 17.5t6 19.5q9 27 41 36l1 1h1q10 0 22.5 -10t14.5 -20q8 -34 11 -51q5 -30 17 -90
q10 -50 24 -145q2 -12 3.5 -35.5t3.5 -35.5q0 -5 1 -7q2 -3 4 -3q3 0 4 2q1 1 1 5q2 7 6.5 25t6.5 28q1 3 12 37q20 60 30 89q11 31 17 59q3 12 7 43q6 40 6 41q2 8 2 14q0 1 -0.5 3.5t-0.5 3.5v6q0 12 7 20q5 5 11 17.5t7 13.5q13 24 47 27h1q8 0 16 -8.5t10 -17.5
q1 -5 1 -14q0 -13 -4 -37q0 -1 -0.5 -3t-0.5 -3q0 -6 3 -12q5 -8 5 -18q0 -5 -2 -15q-3 -13 -9.5 -39.5t-10.5 -39.5q-1 -4 -12 -47t-18 -65q-2 -6 -4 -18q-2 -18 -17 -57q-17 -43 -22 -80q-2 -16 -11 -56.5t-11 -63.5q-2 -15 -8.5 -43t-8.5 -37q-6 -38 -12 -52
q-4 -12 -15 -17q-10 -5 -10 -11v-6v-2q0 -7 -3 -9q-10 -9 -18 -23q-7 -11 -15 -11h-4q-26 0 -41 18q-4 4 -6 15q0 6 -1 9q-4 11 -6.5 23t-4.5 29.5t-3 23.5q-6 32 -10 47q-4 16 -9 45t-7 40q-7 33 -15 61q0 2 -2 5.5t-2 5.5q-2 5 -5 5q-1 0 -4 -5q-2 -6 -6 -17.5t-7 -21
t-5 -18.5q-12 -66 -14 -82q-2 -22 -16 -94q-5 -29 -7 -35q-1 -2 -1 -6q0 -2 2 -8q0 -1 0.5 -2.5t0.5 -2.5q0 -2 -2 -6q-1 -2 -7.5 -12.5t-10.5 -15.5q-7 -8 -17 -8q-4 0 -12 2q-17 6 -31 21q-16 15 -19 18q-12 9 -12 21q0 3 2 11q3 11 3 21t-1 15q-2 20 -8 56l-8 48
q-9 69 -14 89q-4 15 -11.5 55.5t-14.5 61.5q-7 20 -16 81q-1 7 -3.5 31t-4.5 37q-1 7 -1 21q0 13 -1 19q-3 22 -7 59z" />
    <glyph glyph-name="x" unicode="x" horiz-adv-x="520" 
d="M150 291q7 15 31 81q2 6 2 10q0 7 -3 13q-1 1 -2.5 3.5t-1.5 3.5q-52 94 -60 106q0 1 -49.5 63.5t-68.5 103.5v2q0 2 1.5 4.5t4 6t5 6.5t7.5 8.5t8 9.5q6 7 32 26q5 4 13 4t17 -7q15 -12 31 -34q21 -31 78 -107q8 -11 22 -33.5t16 -25.5q6 -10 11 -10q4 0 11 13
q1 2 2.5 6.5t2.5 6.5q46 124 72 184q2 5 6.5 18.5t9.5 22.5t12 14q3 2 10 2q17 0 34 -15q3 -3 8 -5t7 -4t2 -5v-4q-4 -15 -17.5 -51t-17.5 -48q-3 -10 -9 -31t-9 -31q-3 -11 -20 -52q-13 -29 -41 -87q-6 -12 -6 -23q0 -10 9 -28q8 -15 16.5 -32t18.5 -38t16 -32
q42 -86 116 -176q2 -2 4 -6q12 -14 29 -56v-2l1 -2q0 -4 -3 -9q-14 -17 -26 -27q-5 -5 -12 -5t-16 -7t-14 -7q-1 0 -7 2q-12 6 -25 18t-32 35l-20 23q-5 6 -15 20q-12 12 -26 33q-12 20 -27 54.5t-22 48.5q-2 4 -6 16.5t-8 22t-8 9.5q-1 0 -2 -1q-13 -12 -22 -31
t-19.5 -52.5t-13.5 -41.5q-26 -72 -36 -94q0 -41 -17 -101q-3 -10 -6.5 -13.5t-12 -7t-13.5 -6.5q-4 -3 -9 -3t-10 6q-9 10 -26 17q-22 9 -22 30q0 5 4 15q1 1 7 17t11 23q3 8 10.5 24.5t10.5 25.5q17 41 35 101q9 32 37 92z" />
    <glyph glyph-name="y" unicode="y" horiz-adv-x="452" 
d="M379 239q0 -9 -1 -13q-11 -37 -23 -113q-2 -16 -10 -50t-10 -53t-8 -57q-2 -12 -3.5 -25t-3 -28.5t-2.5 -24.5q-4 -35 -5 -50q0 -12 -9 -18q-11 -6 -19 -13q-8 -5 -14 -5q-5 0 -13 4q-39 21 -46 62l-3 12q-2 3 -2 14v2v3q0 8 -4 13q-1 1 -1 4q0 1 1 3.5t1 3.5v1
q0 1 -0.5 1t-0.5 1t0.5 3t0.5 4q0 3 -1 5q0 1 -0.5 2t-0.5 2q0 3 3 6q13 13 23 46q0 2 1 4l2 4q-1 5 -1 15q0 7 5 44q5 27 13.5 81t12.5 81v7q0 10 -7 18q-8 9 -25 26q-12 11 -17 21q-37 41 -71 91q-43 62 -73 114q-20 34 -37 73q-6 13 -14.5 36t-11.5 30q-7 19 -10 23
q-4 5 -4 13v1v1q0 8 -3 15q-2 8 -2 12q0 20 16 29q6 4 30 13q2 1 4 1q7 0 10 -7q5 -11 20.5 -31t20.5 -33q22 -54 28 -67q25 -53 48 -86q13 -18 35 -56q21 -38 41 -62q10 -12 17 -16q15 -8 20 -23q2 -8 8 -8h1q3 1 6 11q3 16 9.5 49t10.5 50q8 39 23 95q3 12 3 13v1v5
q0 20 8 41q3 9 7 28t7 28q1 2 1 6q0 6 -3 11q-2 6 -2 8q0 6 4 10q9 9 17 33q6 18 35 26h1l2 1q7 0 11 -11q6 -16 6 -26v-1q0 -40 -2 -60q4 -15 4 -34v-1q0 -59 -7 -109q-9 -63 -24 -126q-14 -61 -21 -121q-1 -5 -1 -16t-1 -17z" />
    <glyph glyph-name="z" unicode="z" horiz-adv-x="478" 
d="M461 -14q18 -13 26 -29q3 -6 3 -10q0 -6 -8 -11q-35 -21 -58 -28q-3 -1 -9 -1q-5 0 -15 2t-13 2q-5 1 -101 24q-11 3 -22 9q-26 16 -57 16h-6h-1l-2 -1q-15 0 -43 10q-43 16 -108 59q-14 9 -14 24v5v4v8q-1 4 -1 11q0 14 18 55q14 32 46 102t48 108l6 21t6 20
q21 54 53 111q30 56 47 83q5 8 5 12q0 8 -13 10q-11 1 -147 28q-16 3 -48 3q-31 0 -45 30q-3 6 -3 12q0 10 7 17q9 11 18 15q40 16 61 16q8 0 12 -1q16 -2 45 -3t42 -2q9 -1 26 -1q8 0 17.5 0.5t21.5 1.5t18 1q32 2 63 14q7 3 14 3q12 0 22 -9q7 -5 23 -16t23 -17
q11 -8 14 -21q0 -2 6 -16q4 -8 4 -16q0 -13 -12 -24q-7 -6 -23 -12q-12 -4 -26 -11q-20 -10 -44 -49q-19 -29 -50 -100q-36 -84 -38 -89q-2 -6 -13 -26q-24 -46 -32 -79q-4 -18 -32 -107q-3 -9 -7 -27q0 -1 -0.5 -2.5t-0.5 -2.5q0 -10 10 -13q101 -37 133 -43q3 -1 10 -1
q6 0 9 2q6 2 8 2q6 0 11 -6q4 -6 25 -20q6 -3 40.5 -19.5t50.5 -27.5z" />
    <glyph glyph-name="braceleft" unicode="{" horiz-adv-x="287" 
d="M224 687q-4 -1 -15.5 -4.5t-17.5 -6.5q-34 -16 -34 -56v-3v-4q0 -2 -0.5 -6.5t-0.5 -7.5v-7q0 -37 8 -65q17 -57 17 -118v-4v-5v-25q0 -1 1 -3q0 -13 -9 -27q-1 -1 -12.5 -6t-12.5 -6t-1 -2q0 -3 9.5 -8.5t11.5 -9.5q16 -26 16 -60q0 -15 1 -22v-10q0 -7 -1.5 -22
t-1.5 -22v-23v-16q1 -7 1 -24q0 -8 -0.5 -26.5t-0.5 -27.5q0 -72 23 -88q8 -6 26 -18q27 -18 27 -42q0 -23 -28 -23q-12 0 -24 4q-16 5 -31 13q-45 23 -60.5 56t-15.5 93v12v3v35q0 18 1 24q4 26 4 40q0 9 1 28.5t1 29.5v2q0 15 -3 28q-3 17 -18 17q-4 0 -6 -1h-1
q-2 0 -21 13l-10 5t-8.5 4.5t-6 4.5t-6 7.5t-5.5 10.5t-3 10q0 6 5 13q23 29 58 30q20 1 23 20q1 5 1 15q0 9 -2 25q-5 46 -29 106q-16 37 -16 72q0 2 0.5 5.5t0.5 5.5q4 42 9 61q2 11 15 26q26 29 39 41q11 9 31 15l45 6q3 0 9 2q9 2 23 2q40 0 40 -29q0 -15 -13 -32
t-33 -25z" />
    <glyph glyph-name="bar" unicode="|" horiz-adv-x="168" 
d="M152 -27q0 -1 0.5 -3t0.5 -3q0 -15 -20 -20q-4 -1 -12 -1q-18 0 -40 6q-9 2 -19 3.5t-14.5 2t-9.5 3.5t-7.5 9t-4.5 17q-9 57 -9 96q0 17 1.5 49.5t1.5 51.5v5v4q0 27 3 75.5t3 69.5q3 114 3 116v1q-1 6 -1 19v29q0 13 -1 20q-3 32 -4 36q-1 2 -1 6q0 1 0.5 5t0.5 5
q3 45 3 90q0 43 -1 65v2q0 34 33 43q1 0 5 1.5t5 2.5q3 2 10 2q12 0 15 -14q1 -2 1 -6q0 -26 6 -80q2 -18 2 -51v-18q0 -22 1 -34q1 -14 8 -76q18 -141 20 -193q1 -23 1.5 -70t1.5 -71q5 -87 7 -104q3 -34 11 -91z" />
    <glyph glyph-name="braceright" unicode="}" horiz-adv-x="287" 
d="M64 -25q4 2 15.5 4.5t17.5 5.5q34 16 34 57v3v3q0 2 0.5 6.5t0.5 7.5v8q0 37 -8 65q-17 57 -17 92v4v5v26v2q0 14 8 27q1 1 12.5 6t12.5 6t1 3q0 3 -9.5 8t-11.5 9q-15 25 -15 61q0 7 -2 21v10q0 7 1.5 22t1.5 22v23v16q-1 7 -1 26q0 9 0.5 30t0.5 32q0 88 -23 104
q-5 3 -14.5 9t-11.5 8q-27 18 -27 43q0 23 28 23q12 0 24 -4t31 -14q82 -42 82 -193q0 -2 -0.5 -5t-0.5 -4t-6 -46q-4 -26 -4 -40q0 -10 -1 -29.5t-1 -28.5v-2q0 -15 3 -28q3 -17 18 -17q4 0 6 1h1q3 0 21 -12l10 -5t8.5 -4.5t6 -4.5t6 -7.5t5.5 -10.5t3 -11q0 -6 -5 -13
q-23 -29 -58 -30q-19 -1 -22 -19q-2 -10 -2 -16q0 -8 2 -24q1 -14 5.5 -26.5t13 -30.5t10.5 -24q16 -37 16 -72q0 -2 -0.5 -6t-0.5 -6q-4 -40 -9 -60q-2 -11 -15 -26q-26 -29 -39 -41q-11 -9 -31 -15l-45 -6q-3 0 -9 -2q-9 -2 -23 -2q-40 0 -40 29q0 15 13 32t33 25z" />
    <glyph glyph-name="asciitilde" unicode="~" horiz-adv-x="333" 
d="M60 602q-8 -5 -15 -5q-12 0 -18 14q-5 10 -5 25q0 7 1 10q6 22 8 34q1 8 10 13q28 16 45 19q5 1 16 1q12 0 23 -4q1 -1 15.5 -6t21.5 -9q14 -8 26 -8q14 0 28 9q20 13 43 14q1 0 2 0.5t2 0.5q9 0 16 -6q22 -17 30 -38q2 -6 2 -10q0 -8 -3 -15q-8 -26 -43 -43
q-18 -9 -81 -16q-35 2 -49 15q-9 8 -40 19q-2 1 -7 1q-8 0 -13 -4q-3 -1 -8 -5t-7 -6z" />
    <glyph glyph-name="exclamdown" unicode="&#xa1;" horiz-adv-x="254" 
d="M191 591v-8q0 -22 -22 -37q-7 -4 -14 -4q-8 0 -26 9q-1 0 -3 2q-24 18 -41 53q-4 8 -4 15v1q3 46 23 89q5 11 22 20.5t30 9.5q1 0 3 -1h2q18 -3 36 -13q10 -5 13 -19q2 -16 2 -23q0 -23 -10 -50q-9 -24 -11 -44zM199 88q-2 -26 -20 -159v-7q0 -14 3 -20t3 -11
q0 -12 -15 -18q-9 -4 -21 -4q-40 0 -53 35q-11 29 -11 50q0 9 -8 62q-8 50 -8 94q0 12 2 38q1 15 2.5 43.5t3.5 42.5q2 18 2.5 81t2.5 80q6 42 16 66q3 9 8 12q36 26 67 26q11 0 23 -3q28 -8 28 -33v-33q0 -122 -7 -184q-2 -18 -6 -50t-7 -58.5t-5 -49.5z" />
    <glyph glyph-name="cent" unicode="&#xa2;" horiz-adv-x="324" 
d="M85 137q-59 47 -67 129q-2 24 -2 36q0 36 9 70q8 31 40 90q10 18 22 29q13 11 27 17q16 6 16 17q0 5 -1 8q-3 15 -3 31q0 7 0.5 14.5t1.5 16.5t1 14q0 3 0.5 9t0.5 9v5v2q0 8 6 12q28 24 51 29q4 1 11 1q21 0 28 -25q3 -11 3 -20q0 -3 -0.5 -8.5t-0.5 -8.5q0 -2 0.5 -4
t0.5 -4v-4v-6v-22v-13q0 -1 -1 -3q0 -15 17 -25q4 -2 21 -11t25 -15h1q1 -1 6.5 -4.5t7.5 -6.5t2 -7v-1l-1 -2q-1 -7 -11 -14t-19 -7h-3q-3 1 -37 9q-16 4 -22 4q-25 0 -43 -25q-36 -49 -37 -97v-17q0 -42 9 -66q8 -21 29 -39q10 -8 19 -8q3 0 11 2q32 10 49 13q5 1 15 1h9
h4q5 0 11 -4q5 -3 5 -8q0 -4 -3 -7q-4 -5 -12 -9t-16 -10.5t-12.5 -11.5t-12 -16t-10.5 -14q-3 -4 -3 -10q0 -1 0.5 -4t0.5 -4q10 -75 10 -89v-4q0 -20 -5.5 -28t-28.5 -15q-10 -3 -22 -3t-23 4q-17 7 -20 22q-2 16 -2 22q0 3 0.5 8t0.5 7q1 6 1 18v1q0 21 -20 28
q-6 2 -34 22z" />
    <glyph glyph-name="sterling" unicode="&#xa3;" horiz-adv-x="475" 
d="M66 13h-6q-17 0 -28 18q-17 28 -17 43q0 1 0.5 4t0.5 4q2 13 8 18q20 18 40 29q62 34 85 93q12 31 12 82v1q0 24 -6.5 29.5t-27.5 8.5q-21 4 -44 17q-21 10 -21 29q0 11 9 23q12 18 20 26q12 12 27 15q16 3 16 14q0 6 -1 10q-2 8 -9.5 32t-10.5 38l-3 21q0 2 0.5 4t0.5 4
q8 69 42 118q10 14 36 36q23 20 62 38q22 11 50 11q15 0 22 -1q26 -5 43 -26q4 -5 13.5 -16.5t16 -20t10.5 -17.5q2 -3 11 -10q9 -5 12 -18q4 -20 11 -50q1 -4 1 -12q0 -20 -18 -43q-4 -5 -16 -5q-5 0 -15.5 -0.5t-16.5 -0.5q-20 0 -41 29q-5 8 -22 44q-2 6 -8 17t-8 17
q-8 15 -22 18q-16 3 -20 4q-6 2 -8 2q-10 0 -20 -12q-24 -27 -24 -61q0 -20 10 -48q6 -15 31 -90q6 -21 19 -21q6 0 12 3q9 3 42 8q4 1 9 1q20 0 28 -24q12 -32 12 -34q1 -4 1 -11q0 -17 -7 -31q-17 -36 -56 -41q-7 -1 -26 -5q-17 -4 -18 -20q-1 -6 -1.5 -23t-2.5 -26
q-15 -77 -39 -119q-6 -10 -6 -14q0 -6 14 -14q6 -3 17.5 -8.5t16.5 -8.5q2 -1 5 -3t5 -3q18 -15 39 -15q14 0 44 10q28 9 75 52q8 7 21 7q3 0 7 -0.5t7 -0.5q4 0 4 -4t-1 -6q-8 -24 -8 -28q2 -4 2 -12t-1 -12t-5.5 -24.5t-4.5 -32.5v-7v-2q0 -7 -8 -17q-13 -15 -20 -30
q-8 -18 -34 -29q-26 -10 -56 -10q-38 0 -78 19q-15 8 -57 34q-6 2 -27 13.5t-34 14.5q-14 4 -23 4h-5h-5q-11 0 -16 2q-12 3 -13 3t-2.5 -0.5t-2.5 -0.5z" />
    <glyph glyph-name="currency" unicode="&#xa4;" horiz-adv-x="487" 
d="M127 407q-28 -41 -28 -92v-1q0 -30 21 -49q18 -17 63 -29q1 -1 2 -1t2 0.5t2 0.5h1q2 0 4 -0.5t4 -0.5q29 0 57 14t32 35q8 38 8 72v14q-1 22 -8 49.5t-24.5 52.5t-39.5 25q-20 0 -44 -21l-4 -4l-4 -4q-2 -2 -3 -2l-1 -2q-1 -2 -2 -2q-12 -19 -38 -55zM53 512
q-20 45 -33 97q-4 18 -4 22q0 22 21 40q10 9 28 9h9q8 -1 16 -15q6 -12 14.5 -34.5t11.5 -28.5q9 -23 12 -28q6 -13 14 -13q4 0 12 5q5 3 16.5 10t17.5 11q13 8 26 8h5h7q12 0 24 3t22 3q29 0 56 -22q1 -1 2.5 -2t2.5 -2q7 -5 11 -5q5 0 11 10q4 9 12.5 25.5t12.5 24.5
q10 20 23 33q14 14 30 14h7q18 -3 18 -18q0 -1 -0.5 -3t-0.5 -3q-6 -34 -18 -67q-16 -49 -39 -75q-6 -6 -6 -14q0 -7 4 -12q11 -17 19 -57t8 -105v-21q0 -44 -16 -71q-3 -5 -7 -17t-5 -14q-6 -17 -15 -23q-4 -3 -4 -8q0 -3 3 -8q14 -18 24 -24q14 -8 24 -25q4 -6 11.5 -18
t13.5 -21.5t11 -17.5q6 -11 6 -21q0 -26 -26 -37q-6 -2 -9 -2q-5 0 -15 4q-33 15 -77 61q-5 5 -25.5 29t-33.5 35q-8 8 -17 8q-20 -17 -49 -17h-5h-3q-17 0 -26 -17q-18 -32 -40 -68q-13 -20 -30 -31q-11 -8 -22 -8q-7 0 -14 5q-10 8 -10 26q0 4 2 12q1 2 9 16q22 38 39 78
q3 9 3 13q0 8 -11 16q-31 24 -63 65q-19 27 -29 83q-2 16 -2 23q0 20 11 73q1 8 21 42q16 26 16 35q0 8 -12 34z" />
    <glyph glyph-name="yen" unicode="&#xa5;" horiz-adv-x="471" 
d="M328 184h-15h-7t-9 -13q-4 -24 -4 -71q0 -38 3 -64v-2q0 -21 -46 -21q-20 0 -32 4q-7 1 -9 32q-2 13 -3.5 39.5t-2.5 39.5q-1 6 -1 17q0 17 1 25v4q0 6 -4 6h-2q-2 -1 -3 -1q-21 -4 -29 -5q-2 0 -9.5 -0.5t-10.5 -1.5h-1l-2 -1q-5 0 -16 11q-4 6 -4 18v3q3 21 12 25h2
q2 0 2 1q7 7 21 9q27 5 39 5q16 0 16 29v10q0 2 0.5 5t0.5 4v5q0 7 -4 7h-1q-61 -13 -91 -14h-1q-25 0 -25 21q0 4 1 7q7 28 40 31q46 5 77 14q7 3 7 7q0 1 -0.5 5t-0.5 6v4l1 1v2q0 7 -8 12q-8 6 -46 38q-34 30 -50 53q-50 70 -75 106q-2 2 -6 7t-6.5 8.5t-4.5 8.5t-2 10
t3 13q2 4 6 8t10 8t8 6q4 4 11 4q16 0 22 -15l6 -9q58 -66 76 -91q29 -39 67 -71q2 -2 6.5 -4.5t6.5 -5.5q0 -1 2 -1q1 0 3 2q11 21 46 78q13 22 74 138q12 22 26 22q16 0 29 -19.5t13 -42.5q0 -2 -0.5 -5t-0.5 -4q-1 -8 -13 -30.5t-13 -30.5q0 -3 -1 -5q-9 -19 -29.5 -56.5
t-34.5 -67.5t-24 -59q-2 -4 -2 -9q0 -4 4 -4h7q8 0 23.5 0.5t23.5 0.5h7h9h7q24 0 31 -11q6 -12 6 -29q0 -18 -7 -25t-18 -7q-1 0 -22 3q-14 2 -66 4h-6q-6 0 -8 -2t-3 -11q-5 -22 -5 -38v-2q0 -8 8 -8h1q20 1 49 7t39 6q31 0 46 -41q4 -10 4 -14q0 -5 -2 -8q-7 -12 -21 -12
h-1h-5q-11 0 -30 -2.5t-27 -2.5q-5 -1 -10.5 -1.5t-12 -1t-10.5 -0.5z" />
    <glyph glyph-name="brokenbar" unicode="&#xa6;" horiz-adv-x="166" 
d="M36 459q-2 5 -8 14.5t-8 12.5q-4 8 -4 12q0 3 1 5q5 13 6 27q2 16 2 25q0 3 -0.5 9t-0.5 8v2q0 8 0.5 25t0.5 25v23q0 2 -6 43q0 2 -0.5 4t-0.5 4q0 25 22 38q13 8 24 8q24 0 31 -28q5 -21 13 -36q8 -14 35 -91q2 -5 2 -13v-10q5 -50 5 -62q0 -3 -0.5 -8.5t-0.5 -8.5v-19
v-13v-1q0 -26 -27 -32q-12 -2 -16 -2q-30 0 -62 25q-3 3 -8 14zM35 1q-3 9 -3 19q0 3 2 11q3 9 3 29v11v29q0 24 -1 35v27v42q0 10 0.5 30t0.5 30v25v13h-1v1q0 17 15 32t32 15q1 0 4 0.5t5 0.5q14 0 18 -13q17 -62 20 -80q7 -43 7 -112v-11q0 -65 7 -106q0 -1 0.5 -2.5
t0.5 -2.5q0 -2 -1 -8t-1 -8q-2 -20 -2 -29q0 -7 -5 -15q-5 -9 -12 -9q-3 0 -5 1q-6 2 -8 2q-3 0 -11 -2q-8 -3 -14 -3q-16 0 -28 12q-18 18 -23 36z" />
    <glyph glyph-name="section" unicode="&#xa7;" horiz-adv-x="347" 
d="M229 96q6 22 8 33l3 21q0 32 -20 61q-10 14 -27 22q-29 12 -52 17q-34 8 -57 28q-35 29 -35 75q0 17 4 32q14 53 52 104q7 8 7 14q0 5 -12 12q-40 25 -66 84q-3 7 -3 16q0 7 4 21q1 4 3.5 12.5t3.5 13.5q3 11 11 21q6 7 39 46q25 29 76 43q5 2 16 2q16 0 44 -12
q9 -3 38 -18q11 -6 25 -24q13 -18 28 -70q0 -1 1 -2v-2q0 -6 -6 -11q-16 -12 -23 -15q-7 -4 -16 -4q-24 0 -34 21q-2 4 -4.5 11t-3.5 10q-12 32 -55 46q-3 1 -11 2.5t-11 2.5h-5q-9 0 -15 -7q-14 -16 -18 -31q-2 -10 -2 -14q0 -11 6 -21q24 -40 57 -55q43 -19 75 -44
q47 -36 57 -87q5 -27 5 -48t-5 -48q-2 -12 -8 -35t-7 -27q-1 -3 -1 -8q0 -9 6 -18q27 -42 30 -98v-19q0 -49 -13 -92q-8 -24 -24 -37l-15 -12q-26 -31 -79 -33h-5h-9h-10q-54 0 -98 28q-28 18 -45 47q-3 6 -14 49q-4 16 -4 24v1q0 32 40 56q3 2 9 2q3 0 7 -2q23 -11 28 -26
q5 -17 14 -38q16 -39 68 -46h4q16 0 34 11q7 3 10 15zM232 376v3q0 13 -4 33q-6 31 -32 51q-8 6 -13 6t-11 -8q-27 -36 -33 -67q-2 -10 -2 -13q0 -35 38 -49q4 -2 14.5 -4t14.5 -4q8 -2 9 -2q5 0 11 11q6 14 8 43z" />
    <glyph glyph-name="dieresis" unicode="&#xa8;" horiz-adv-x="436" 
d="M277 718q-6 -3 -12 -3q-12 0 -20.5 10t-8.5 23q0 15 11 26q21 21 34 21q11 0 25 -10q15 -10 15 -25q0 -11 -8 -17q-24 -19 -36 -25zM139 732h-1q-7 0 -21 6q-13 6 -13 25q0 8 4 16q6 11 20 20t25 9h5q34 -8 34 -33q0 -16 -15 -29t-38 -14z" />
    <glyph glyph-name="copyright" unicode="&#xa9;" horiz-adv-x="610" 
d="M372 581q0 -1 0.5 -2t0.5 -2q0 -5 -5 -10q-3 -3 -9 -7q-8 -4 -22 -14q-13 -9 -39 -23q-11 -5 -17 -18q-23 -43 -28 -86q0 -1 -1 -3q-1 -5 -1 -16v-9q0 -34 9 -58q0 -1 1 -1l1 -2l6 -9q5 -9 14 -14q5 -2 11 -10q3 -5 20 -17q4 -3 10 -3q1 0 4 0.5t5 0.5h9q5 0 8 -1
q1 0 2 -0.5t2 -0.5h1l2 1q2 1 7 1q11 0 22 -13q6 -6 6 -11q0 -2 -2 -6v-3v-3v-4q0 -7 -4 -17q-3 -8 -12 -10q-16 -4 -24 -8q-2 -1 -5 -1h-4q-3 1 -8 1q-6 0 -16 -4q-6 -2 -10 -2t-12 4q-38 21 -62 51q-2 1 -5 4.5t-4 5.5q-20 20 -28 51q-5 22 -5 39q0 10 2 30v5v3v2
q2 55 20 94q1 4 5 10q2 6 4 8q0 6 3 9q0 1 2 3q3 7 8 14q1 1 6 8q2 5 14 17q11 11 22 18q3 2 19 10q16 7 28 7h9q17 0 25 -1h3q10 -2 12 -8zM336 -28q-8 0 -25 -1t-25 -1q-26 0 -45 5q-88 24 -139 80q-31 33 -47 66q-31 64 -35 132q-4 48 -4 71q1 129 61 275q22 52 85 131
q2 3 8 9t8 9q14 18 37 20q4 0 21 5q43 15 78 15q18 0 33 -4q46 -11 79 -40q52 -46 87 -111q8 -15 22 -45q31 -64 47 -140q11 -52 11 -101q0 -10 -2 -32q-6 -78 -12 -115q-7 -46 -24 -91q-7 -19 -24 -48q-3 -6 -31 -31q-26 -25 -60 -37q-56 -20 -104 -21zM138 185
q22 -62 57 -89.5t89 -31.5h14q7 0 21.5 1t21.5 1q18 0 41 7q9 2 12 6q32 42 35 49q7 16 19 28q11 13 15 25q14 45 18 66q16 86 19 111q2 24 2 35q0 46 -14 107q-20 80 -53 127q-35 49 -68 72q-9 7 -27 12q-16 4 -35 4q-16 0 -31 -3q-54 -13 -81 -60q-3 -5 -8 -15.5t-8 -15.5
q-17 -29 -35 -88q-3 -10 -6.5 -30.5t-5.5 -28.5q-16 -71 -16 -122v-12v-8v-4q2 -74 12 -110q1 -5 3 -10.5t5 -12t4 -10.5z" />
    <glyph glyph-name="ordfeminine" unicode="&#xaa;" horiz-adv-x="292" 
d="M188 650q2 11 2 19v3q0 7 -6 7l-1 -1h-2h-4q-5 0 -19 4h-6q-8 0 -23 -6q-14 -5 -30 -27q-6 -8 -6 -9t-5 -7q-9 -12 -14 -21l-4 -8h-1h-1q1 0 1 -7q0 -26 3 -32q0 -1 2.5 -5.5t4.5 -8.5q5 -11 27 -14q27 -5 28 -5q3 0 5 1q4 2 7.5 3t4.5 1t4 2t5 3q8 4 8 11v1v1q-1 1 -1 2
q0 5 5 10q4 4 7 27q4 34 9 56zM242 425q-6 3 -16.5 7.5t-17 8.5t-9.5 8t-8 16t-7 14q-10 -16 -41 -18h-3q-3 0 -8.5 0.5t-8.5 0.5h-1h-1q-13 0 -17 2q-6 3 -10 3h-2h-2q-6 0 -18 5q-3 1 -5.5 3t-3.5 2l-11 16q-21 31 -28 55q-7 21 -7 42q0 1 1 3v2q0 10 8 25q20 36 21 38
q5 7 17 19q13 13 19 20q7 9 17 15q2 2 7 6.5t8 5.5q2 1 6 2t10 3t14 5q4 2 13 2q15 0 41 -14h1q2 0 4 4.5t4.5 10t4.5 7.5q5 5 13 7h3q5 0 8 -3q9 -9 9 -22q0 -1 -0.5 -2.5t-0.5 -2.5q-1 -9 -2 -24.5t-1 -18.5q-1 -12 -3 -18q-1 -3 -1.5 -8.5t-2 -13.5t-2.5 -15
q-3 -14 -5 -54q-1 -24 -4 -35q0 -2 -3 -28v-1q0 -19 19 -27q10 -4 24 -11q10 -3 10 -16q0 -10 -7 -18.5t-18 -8.5q-4 0 -7 1z" />
    <glyph glyph-name="guillemotleft" unicode="&#xab;" horiz-adv-x="386" 
d="M137 498q8 12 13 15.5t14 3.5q1 0 5.5 -0.5t6.5 -0.5h1h2q25 -2 25 -26q0 -4 -2 -10q-3 -13 -10 -21q-7 -9 -35 -60q-2 -4 -13.5 -28.5t-19.5 -36.5q-6 -10 -6 -25v-5q1 -31 34 -57q50 -41 98 -99q9 -11 9 -19v-1q0 -15 -12 -41q-6 -10 -18 -10h-2q-16 0 -36 13
q-28 19 -42 36q-66 72 -82 100q-43 74 -45 79q-5 10 -5 15q0 8 9 15q6 6 7 11q8 25 34 50q14 14 22 29q14 25 48 73zM306 442q-11 -17 -33 -51.5t-33 -51.5q-6 -11 -6 -21q0 -18 15 -32q23 -20 79 -50q22 -12 38 -44q2 -6 2 -8q0 -16 -16 -19q-2 0 -25 -3q-17 2 -23 7
q-54 34 -78 52q-16 12 -27 30q-1 3 -17 21q-4 5 -12 13.5t-12 12.5q-8 10 -8 17q0 6 4 14q2 3 8 14t10 17q20 31 25 42q6 13 21.5 37t18.5 29q8 15 17 28q8 13 24 13q10 0 23 -5q18 -8 18 -28q0 -4 -2 -12q-5 -14 -11 -22z" />
    <glyph glyph-name="logicalnot" unicode="&#xac;" horiz-adv-x="405" 
d="M26 315q-9 7 -9 14q0 5 6 12q4 5 9.5 15t7.5 13q27 43 68 44q110 4 150 10q13 2 47 8h8q23 0 37 -23q6 -10 9 -21q4 -12 9 -18q5 -5 15 -36q0 -1 0.5 -2.5t0.5 -2.5v-3q-4 -9 -5 -26.5t-2 -21.5q-1 -5 -1 -14q0 -8 2 -22.5t2 -19.5t0.5 -14.5t0.5 -14.5q0 -2 -0.5 -6
t-0.5 -6q-1 -21 -14.5 -33t-32.5 -12q-7 0 -10 1q-16 3 -22 19t-6 24q-1 8 -1 25t-1 26h-1v14v8q-1 13 -14 14q-50 2 -118 24q-14 5 -33 5q-10 0 -15 -1q-4 -1 -14 -1q-16 0 -34 5q-18 6 -27 10q-8 4 -11 7z" />
    <glyph glyph-name="uni00AD" unicode="&#xad;" horiz-adv-x="368" 
d="M57 386q2 1 5 1q1 0 10 -3t17 -3h5q4 0 10 0.5t10 0.5t12 -0.5t12 -0.5h5q10 0 28 2.5t25 2.5h8q6 0 14 -3q21 -9 50 -16q35 -9 66 -39q11 -10 13 -33v-1q0 -12 -12 -17q-16 -7 -29 -9q-70 5 -75 5h-24q-18 0 -27 -1q-2 0 -5 -0.5t-4 -0.5q-11 0 -29 4q-13 3 -40 9.5
t-41 9.5q-1 0 -8 2t-11 4q-19 9 -19 28q0 8 1 12q4 10 5 16q4 20 28 30z" />
    <glyph glyph-name="registered" unicode="&#xae;" horiz-adv-x="610" 
d="M138 185q22 -62 57 -89.5t89 -31.5h19q150 0 183 166q0 2 14 128q2 24 2 35q0 46 -14 107q-20 80 -53 127q-35 49 -68 72q-9 7 -27 12q-16 4 -35 4q-16 0 -31 -3q-54 -13 -81 -60q-3 -5 -8 -15.5t-8 -15.5q-17 -29 -35 -88q-3 -10 -6.5 -30.5t-5.5 -28.5
q-16 -71 -16 -122v-12v-8v-4q2 -74 12 -110q1 -5 3 -10.5t5 -12t4 -10.5zM336 -28q-8 0 -25 -1t-25 -1q-26 0 -45 5q-88 24 -139 80q-31 33 -47 66q-31 64 -35 132q-4 48 -4 71q1 129 61 275q14 35 33 65.5t46.5 60.5t64.5 47.5t79 17.5q22 0 47 -6q46 -11 79 -40
q52 -46 87 -111q8 -15 22 -45q31 -64 47 -140q11 -52 11 -101q0 -10 -2 -32q-6 -78 -12 -115q-7 -46 -24 -91q-7 -19 -24 -48q-3 -6 -31 -31q-26 -25 -60 -37q-56 -20 -104 -21zM332 466q13 9 26 20q10 10 10 18q0 5 -1 8q-1 2 -3 12.5t-5 15.5q-12 20 -32 26q-18 6 -37 6
q-5 0 -17 -2q-9 -2 -9 -10v-2q0 -2 0.5 -5.5t0.5 -5.5q0 -5 -0.5 -14t-0.5 -13q0 -8 -1 -24.5t-1 -24.5v-2v-12v-8q0 -5 4 -5q3 0 4 1q6 4 10 4t10 4q3 3 9 3q25 5 33 10zM401 276q31 -39 40 -66q1 -2 1 -5t-5 -6q-11 -6 -23 -6q-8 0 -16 3q-19 6 -27 15q-2 3 -5 5t-6.5 4.5
t-5.5 4.5q-7 5 -9 11q-4 8 -6 11q-3 4 -21 40q-5 7 -5 10q-1 1 -1 3q-3 6 -3 7q-6 7 -9 17q-1 2 -3.5 6.5t-4.5 6.5q-23 40 -29 45q-4 0 -4 -21q-3 -35 -3 -69v-5v-1q0 -1 -3 -40v-30v-9q0 -6 1 -12.5t1 -11.5v-3q0 -4 -4.5 -11.5t-7.5 -8.5q-1 0 -2.5 -0.5t-2.5 -0.5h-1
q-1 0 -3 0.5t-3 0.5q-3 0 -7.5 -0.5t-6.5 -0.5q-6 0 -9 1q-1 0 -3.5 1t-3.5 1q-8 3 -8 20v17q-1 2 -1 7v2q1 6 1 15v15q1 6 2 16t1 16q2 14 4 44q0 4 1 10.5t1.5 12t0.5 10.5q0 7 0.5 14t1.5 16t1 14q0 4 0.5 16t1.5 18q0 5 1 14t1 14q4 34 4 51q0 12 2 34.5t2 29.5
q0 14 4 26q2 6 6 9q10 6 18 6q1 0 4 -1q2 0 4 -0.5t4 -0.5t6 0.5t5 0.5q16 2 24 2q9 0 25 -2q2 0 10 -0.5t12 -1.5q20 -5 44 -22q1 0 8 -5q24 -19 33 -41q1 -4 6 -13.5t7 -15.5q3 -9 3 -19q0 -13 -8 -27q-11 -17 -22 -24q-9 -5 -17 -15q-5 -5 -17 -11q-3 -2 -10 -5.5
l-11 -5.5q-1 0 -4 -1.5t-4 -3.5q-2 -2 -6 -3q-4 -2 -4 -4v-1l1 -1q20 -30 30 -54q10 -23 26 -47q5 -8 6 -11z" />
    <glyph glyph-name="macron" unicode="&#xaf;" horiz-adv-x="254" 
d="M43 775q1 1 4 1q2 0 6 -2q3 -1 9 -1h5q9 1 29 1q5 0 14.5 0.5t13.5 0.5q31 0 55 -5q21 -4 44 -23q7 -6 9 -20v-2q0 -7 -7 -10q-9 -5 -18 -7q-7 0 -19.5 0.5t-18.5 0.5h-11q-16 0 -32 -3q-3 -1 -8 -1q-6 0 -16 2q-9 2 -26.5 5t-26.5 4l-5 1q-5 1 -7 2q-13 4 -13 19v6
q0 2 1 5.5t2 5.5q3 13 16 20z" />
    <glyph glyph-name="degree" unicode="&#xb0;" horiz-adv-x="292" 
d="M152 695l-1 1h-2q-3 0 -11 -3t-16 -14l-3 -5q-1 -1 -3 -4q-1 -2 -3.5 -5.5t-3.5 -4.5q-1 -4 -2 -4h-1v-4q0 -14 2 -17q1 -1 1.5 -2t1 -2.5t1.5 -2.5q4 -6 14 -7q10 -2 14 -2h3q10 4 17.5 19t7.5 31q0 22 -16 26zM158 548q-10 -5 -33 -5h-3q-6 2 -8 2h-2h-1q-6 0 -14 4
l-8 4q-1 0 -1.5 1.5t-2 4.5t-4.5 7q-15 20 -23 44q-5 18 -5 34v3q0 7 7 21q11 22 17 30q9 12 13 15q9 7 15 16q2 3 14 12q1 1 4.5 5t6.5 5q20 7 41 7q14 0 27 -5q29 -13 32 -54q1 -9 1 -25q0 -23 -5 -46q-12 -57 -68 -80z" />
    <glyph glyph-name="plusminus" unicode="&#xb1;" horiz-adv-x="399" 
d="M331 454q27 -10 27 -33v-1q-2 -30 -26 -41q-10 -5 -32 -7q-36 -4 -53 -4h-11q-19 0 -19 -14q0 -5 1 -8q3 -16 6 -57v-8q0 -1 -7 -27q-5 -12 -7 -14q-6 -8 -14 -8q-5 0 -10 4q-3 3 -10.5 7t-9.5 5q-3 2 -11 7t-10 6.5t-6.5 6t-6.5 10t-3 13.5q-1 4 -2 16t-3 18
q-1 6 -1.5 7.5t-2.5 8.5q-3 14 -9 19.5t-20 5.5q-5 0 -15 0.5t-15 0.5h-12q-1 0 -3 -1h-2q-20 0 -23 21v8q0 5 1.5 15t1.5 11q1 10 15 12q7 1 21 4t21 4l15 3q10 3 10 11q0 4 -1 6q0 1 -9 62q-1 5 -1 15q0 16 8 46q4 15 14.5 24t24.5 9q2 0 14 -3q14 -5 19.5 -12t5.5 -22v-4
v-5q0 -12 2 -26t5.5 -31t4.5 -26q2 -8 4 -14q4 -11 15 -11h1q3 0 9 0.5t9 0.5q4 0 12.5 -0.5t12.5 -0.5q6 1 9.5 1h5t4.5 0.5t10 1.5h1l2 1l12 -3q24 -7 31 -10zM224 89h-2q-117 0 -159 -6h-5q-19 0 -22 20q-1 4 -1 17q0 26 2 42q1 9 15 11l42 9q10 2 14 2h1q21 -1 51 -1
q8 0 22 0.5t19 0.5h17h26q8 1 27.5 1t29.5 2h3q4 0 12 -2q14 -4 31 -11q27 -10 27 -32q-1 -1 -1 -2q-2 -30 -26 -41q-8 -4 -32 -6q-36 -4 -79 -4h-12z" />
    <glyph glyph-name="uni00B2" unicode="&#xb2;" horiz-adv-x="302" 
d="M38 638q-19 42 -19 71q0 39 34 50q2 0 6 2q16 8 28 8l15 -2q5 -1 14.5 -2.5t17 -3t13.5 -3.5q11 0 23.5 -9.5t16.5 -18.5q6 -11 14 -35q7 -18 7 -37q0 -17 -19 -86q-18 -62 -28 -88q0 -3 32.5 -10t45.5 -8h2q4 0 12 1.5t11 1.5q6 0 14 -6q5 -4 5 -13q0 -10 -4 -22
q-2 -3 -3.5 -8t-3.5 -8t-6 -4q-21 -3 -44 -3q-54 0 -125 11q-2 0 -5 1t-5 1q-7 2 -7 12q0 8 4 20q4 22 9 29q13 20 29 61q1 3 5 12.5t5 14.5q24 46 24 91q0 24 -7 39q-7 18 -21 23q-16 7 -30 7q-15 0 -22 -11q-8 -13 -8 -28q0 -13 5 -28h1q3 -4 11 -25q1 -1 1 -4
q0 -11 -10 -11h-4h-9q-10 0 -17.5 5t-7.5 13z" />
    <glyph glyph-name="uni00B3" unicode="&#xb3;" horiz-adv-x="256" 
d="M36 503q-2 4 -2 5q0 12 16 18q4 3 6 3q4 0 9 -14q1 -1 3 -4.5t4 -5.5t6 -7.5t7 -7.5q14 -13 31 -25l2 -1q1 -1 1 -2q1 -1 7 -3h15q6 1 9 6q24 38 24 68q0 13 -4 24q-5 14 -37 14q-6 0 -27 -3q-2 0 -4 -0.5t-3 -1t-2.5 -0.5h-2.5q-6 0 -16 5q-10 4 -11 10l-3 3t-2 4
q-1 2 -1 6q0 13 23 13q46 6 60 31q1 2 6.5 10.5t8.5 15.5t3 14q0 6 -3 14q-11 24 -31 37q-6 5 -14 5q-12 0 -21.5 -10.5t-12.5 -21.5q-1 -3 -4 -11.5t-4 -12.5q0 -4 -8 -6q-7 -4 -16 -4q-6 0 -9 1q-18 4 -19 6q-1 1 -1 4q0 2 1 6t1 6q0 3 -1 4t-1 4q0 4 2 10q6 34 25 48.5
t60 14.5h9q32 -2 60.5 -15t35.5 -35q13 -36 13 -44q0 -13 -9 -25q-8 -12 -10 -19q-1 -3 -3 -6t-5.5 -7t-4.5 -6q-10 -12 -14 -15q-2 -1 -2 -4t4 -4q15 -7 21 -10.5t16.5 -11.5t15 -18t4.5 -22q0 -72 -13.5 -93t-79.5 -45q-6 -2 -11 -2q-9 0 -36 8q-1 1 -3 2.5t-3 1.5
q-55 40 -55 101z" />
    <glyph glyph-name="acute" unicode="&#xb4;" horiz-adv-x="216" 
d="M50 612q-12 -6 -18 -6q-7 0 -11.5 5t-2.5 13q1 4 8 14q10 13 26 38.5t23 35.5q29 42 60 57q8 4 23 7t18 4q9 2 17 -12q6 -10 0 -23l-8 -16t-7 -16q-8 -18 -29 -32q-30 -20 -44 -37q-13 -16 -34 -22q-7 -2 -21 -10z" />
    <glyph glyph-name="mu" unicode="&#xb5;" horiz-adv-x="442" 
d="M18 385q0 7 -0.5 19t-0.5 19q0 32 4 59v11q0 7 -1 20t-1 20v8q0 55 7 103q4 22 12 34q1 21 23 26q4 1 11 1q14 0 22 -11q8 -13 8 -27v-7q0 -53 3 -80q2 -27 7 -40q9 -24 10 -45q1 -12 5 -45.5t4 -52.5v-10v-1v-3q0 -1 -1 -3q-6 -19 -6 -48q0 -8 0.5 -23t0.5 -22v-10v-1
q0 -12 3 -23q3 -12 3 -23v-8q0 -1 -0.5 -2.5t-0.5 -2.5q0 -36 29 -59q32 -25 67 -28h4q27 0 49 19t23 53v4q0 6 -1 17.5t-1 17.5q0 15 -0.5 47t-0.5 47v45q0 1 0.5 3t0.5 3q0 12 -2 35.5t-2 35.5v3q-9 50 -9 118q0 10 -0.5 30t-0.5 30v20q0 36 32 49q5 2 15 2q25 0 28 -27
q5 -50 5 -59v-10q7 -82 8 -100q2 -72 7 -107q3 -18 5 -85q0 -10 3 -33t3 -36v-6q0 -1 -0.5 -3.5t-0.5 -3.5q0 -19 5.5 -54t6.5 -47q1 -11 3 -33.5t3 -33.5q4 -44 8 -68q4 -20 8 -62q0 -1 1 -3q0 -21 -24 -24h-2h-2q-3 0 -4 -1q-7 -4 -13 -4t-26 11q-22 12 -35 26
q-17 19 -17 40v1v3q0 13 -4 43q-1 12 -10 12q-5 0 -8 -1q-4 -2 -5 -2q-51 -3 -52 -3q-51 0 -87 22q-10 -1 -12 -3.5t-2 -10.5v-1v-31q0 -52 4 -78q12 -80 17 -120q4 -28 9 -43q3 -9 3 -10q1 -4 1 -12q0 -20 -23 -27q-8 -3 -21 -3q-20 0 -37 14q-25 22 -26 51q-4 74 -9 111
q-6 45 -6 91v16q1 19 1 57q0 12 -0.5 34t-0.5 34v9q-6 31 -6 62v5l-1 1v1v1q-1 2 -1 5q-3 10 -3 21q0 9 1 14q-6 90 -7 136z" />
    <glyph glyph-name="paragraph" unicode="&#xb6;" horiz-adv-x="570" 
d="M290 774q2 0 6 0.5t6 0.5q27 0 65 -5h7q6 0 18.5 1.5t18.5 1.5q9 0 31 2h5q3 0 43 -8q14 -3 20 -24q4 -19 6 -40l6 -78q0 -6 2 -28t2 -33v-2v-3q0 -26 5 -59q0 -2 0.5 -5t0.5 -5v-2q-1 -18 -1 -55v-72v-6q0 -20 -1 -59.5t-1 -59.5v-23q0 -77 7 -144q2 -19 2 -56
q0 -22 -22 -29q-4 -1 -10.5 -2.5t-9.5 -2.5q-1 0 -3 -0.5t-3 -0.5q-13 0 -15 16q-1 5 -2 15.5t-1 15.5q-1 16 -4 64.5t-6 75.5l-3 74q-1 16 -2.5 47.5t-2.5 47.5q-1 14 -1 42v60v16v61v3q0 14 0.5 43t0.5 43q0 8 0.5 24t0.5 24q0 14 -2 44q-1 10 -4.5 14t-13.5 4
q-3 0 -8 0.5t-8 0.5q-15 -3 -15 -21q-2 -66 -2 -97q0 -22 1 -33q2 -35 11 -60q4 -11 6 -44q0 -8 1 -22t1.5 -25.5t0.5 -21.5v-9v-9q0 -9 3 -16v-4v-3q-4 -8 -4 -19q0 -5 1.5 -15.5t1.5 -15.5q0 -8 2 -35t2 -41v-11q0 -4 -0.5 -12.5t-0.5 -12.5q0 -12 0.5 -35t0.5 -34v-21v-5
q0 -6 0.5 -18t0.5 -18q0 -9 -1 -14q0 -2 0.5 -6.5t0.5 -6.5q0 -5 -0.5 -15.5t-0.5 -15.5q0 -15 -11 -23q-5 -3 -21 -15.5t-26 -17.5q-18 -8 -35 -8h-3q-20 2 -28 17q-11 24 -11 28q-3 6 -3 18q-5 11 -12 68l3 12q0 2 0.5 6.5t0.5 6.5q0 15 3 30v17q-2 4 -2 19q-3 39 -3 78
v30v7q0 16 -3 24q-2 6 -2 9q0 2 2 8q-2 11 -5 14.5t-11 3.5h-4h-7q-29 0 -92 19q-23 7 -51 33q-14 14 -22 19q-42 16 -56 61q-10 35 -10 42v4q-3 6 -3 13q0 2 0.5 4t0.5 4q0 1 -0.5 2.5t-0.5 2.5q-1 6 -1 17q0 27 16 50q2 8 6 14v3q0 4 3 7q1 6 9 14q37 70 95 107
q3 2 12 8.5t14 9.5q24 12 42 12q9 0 20 -3q8 -3 16 -3q9 0 13 2q6 2 7 2t4 -0.5t4 -0.5q3 2 9 2h3h1z" />
    <glyph glyph-name="periodcentered" unicode="&#xb7;" horiz-adv-x="173" 
d="M22 407q2 26 16.5 41t37.5 15q12 0 19 -2q31 -8 40 -29q4 -10 9 -29t8 -27q1 -2 1 -6q0 -12 -11 -20q-12 -10 -16 -16q-13 -18 -27 -18q-3 0 -9 2h-6q-15 0 -22 7q-30 28 -34 45q-6 22 -6 32v5z" />
    <glyph glyph-name="cedilla" unicode="&#xb8;" horiz-adv-x="234" 
d="M52 -197h-1q-14 0 -14 14q0 1 1 3q1 7 7 15q10 13 26.5 38.5t23.5 35.5q29 42 60 57q7 3 13 3q2 0 6 -0.5t6 -0.5q7 0 10 1l1 1h2q7 0 14 -13q1 -3 4 -6t3 -5t-1 -4q-3 -5 -8 -16t-8 -16q-9 -19 -28 -32q-11 -16 -37 -46q-16 -19 -36 -25q-15 -4 -31 -4h-6h-7z" />
    <glyph glyph-name="uni00B9" unicode="&#xb9;" horiz-adv-x="251" 
d="M113 613q0 5 -1 15t-1 15q0 7 -0.5 22t-0.5 23v1q0 20 -5 20q-2 0 -4 -2l-18 -12t-23 -16l-16 -9q-2 -2 -3 -2q-2 0 -6.5 4.5t-6.5 5.5q-9 7 -9 14q0 4 3 8q17 31 38 50q7 5 35 34q10 12 17 12t16 -4q19 -7 22 -11q14 -14 14 -21q-3 -15 -3 -31q0 -8 1 -25.5t1 -27.5v-43
v-22q0 -5 0.5 -14t0.5 -14q0 -8 -1 -24.5t-1 -24.5q0 -11 1 -17q0 -3 9 -5q4 -1 10 -1q2 0 4.5 0.5t5.5 0.5h4q37 -4 37 -30v-3q-2 -9 -4 -11q-2 -3 -3 -5.5t-1 -4t-1.5 -3t-5.5 -1.5q-11 0 -31 -3.5t-32 -3.5q-5 0 -19 2q-36 6 -50 11q-4 1 -11 1.5t-10 1.5q-16 5 -16 13v2
q2 10 2 16q1 16 19 16q6 0 18.5 -2.5t16.5 -2.5q11 0 11 8v12q0 11 -1 34.5t-1 35.5q0 3 -0.5 9t-0.5 9z" />
    <glyph glyph-name="ordmasculine" unicode="&#xba;" horiz-adv-x="292" 
d="M152 695l-1 1h-2q-3 0 -11 -3t-16 -14l-3 -5q-1 -1 -3 -4q-1 -2 -3.5 -5.5t-3.5 -4.5q-1 -4 -2 -4h-1v-4q0 -14 2 -17q1 -1 1.5 -2t1 -2.5t1.5 -2.5q4 -6 14 -7q10 -2 14 -2h3q10 4 17.5 19t7.5 31q0 22 -16 26zM158 548q-10 -5 -33 -5h-3q-6 2 -8 2h-2h-1q-6 0 -14 4
l-8 4q-1 0 -1.5 1.5t-2 4.5t-4.5 7q-15 20 -23 44q-5 18 -5 34v3q0 7 7 21q11 22 17 30q9 12 13 15q9 7 15 16q2 3 14 12q1 1 4.5 5t6.5 5q20 7 41 7q14 0 27 -5q29 -13 32 -54q1 -9 1 -25q0 -23 -5 -46q-12 -57 -68 -80zM57 517q1 1 4 1q2 0 6 -2q3 -1 9 -1h5q18 2 28 2h28
q32 0 56 -5q20 -4 43 -23q7 -6 9 -20v-2q0 -7 -6 -10q-9 -5 -19 -7q-7 0 -19 0.5t-18 0.5h-11q-16 0 -32 -3q-3 -1 -9 -1t-16 2q-9 1 -26 4t-26 5q-1 0 -6 1t-7 2q-13 4 -13 19q0 4 1 6q0 2 1 5.5t1 5.5q3 13 17 20z" />
    <glyph glyph-name="guillemotright" unicode="&#xbb;" horiz-adv-x="386" 
d="M249 498q34 -48 48 -73q8 -15 22 -29q25 -23 33 -50q1 -4 8 -11q8 -7 8 -15q0 -7 -4 -15q-6 -12 -13.5 -25.5t-17.5 -29t-15 -24.5q-16 -28 -82 -100q-14 -17 -42 -36q-20 -13 -35 -13h-3q-12 0 -18 10q-11 24 -11 41v1q0 9 8 19q46 55 99 99q33 26 34 57v5q0 15 -6 25
q-6 9 -12 20t-12 24.5t-10 20.5q-31 56 -34 60q-8 10 -11 21q-1 3 -1 10q0 24 24 26h3h1q2 0 6 0.5t5 0.5q15 0 28 -19zM80 442q-8 11 -12 22q-2 8 -2 12q0 20 19 28q13 5 23 5q16 0 24 -13q9 -13 17 -28l39 -66q5 -11 25 -42q4 -6 10 -17t8 -14q5 -10 5 -14q0 -7 -8 -17
q-4 -4 -12 -12.5t-12 -13.5q-16 -18 -17 -21q-10 -17 -28 -30q-24 -18 -78 -52q-7 -5 -22 -7q-25 3 -26 3q-16 3 -16 19q0 2 2 8q16 32 38 44q59 32 80 50q15 14 15 32q0 9 -7 21q-11 17 -32.5 51.5t-32.5 51.5z" />
    <glyph glyph-name="onequarter" unicode="&#xbc;" horiz-adv-x="577" 
d="M463 -2q-12 5 -12 16v28v14q0 2 -0.5 6.5t-0.5 6.5q0 10 2 30v13q0 13 -1 19q0 1 -1 3q0 1 0.5 3t0.5 3q0 8 -10 8q-7 0 -50 -8q-2 0 -16.5 -9t-23.5 -9q-14 0 -21 19q-3 10 -5 31l-1 1v1q0 3 2.5 7.5t2.5 6.5q3 12 4.5 36.5t3.5 34.5q0 3 2.5 25t4.5 30q1 2 0.5 5.5
t0.5 5t5 3.5q2 1 5 1q2 0 7.5 -1t8.5 -1q8 0 12 -9q1 -3 4 -22q1 -4 2 -14t1 -15q0 -1 0.5 -5t0.5 -5q0 -3 -0.5 -9t-0.5 -10t-0.5 -13t-0.5 -14q0 -9 -1 -14v-3q0 -6 8 -7q3 0 4 -1h3q5 2 30 4h12q6 0 8 8q1 6 2 26.5t3 31.5v3q0 3 -1 8t-1 7v2l1 2v1q-1 4 -1.5 12t-0.5 10
q0 1 -0.5 1t-0.5 1q0 10 11 12q12 3 14 3q8 0 9 -5q2 -3 2 -13v-7v-6q0 -7 2 -22t3 -22v-7q0 -1 -0.5 -3.5t-0.5 -3.5q0 -5 1.5 -14t1.5 -11v-15q0 -5 -0.5 -14t-0.5 -13q0 -10 1 -15v-7q0 -5 -1 -14.5t-1 -14.5q0 -25 1 -36q0 -3 -0.5 -10t-0.5 -11q0 -7 5 -37v-3
q0 -4 -7 -16q-2 -4 -9 -4q-13 0 -21 4zM113 613q0 5 -1 15t-1 15q0 7 -0.5 22t-0.5 23v1q0 20 -5 20q-2 0 -4 -2l-18 -12t-23 -16l-16 -9q-2 -2 -3 -2q-2 0 -6.5 4.5t-6.5 5.5q-9 7 -9 14q0 4 3 8q17 31 38 50q7 5 35 34q10 12 17 12t16 -4q19 -7 22 -11q14 -14 14 -21
q-3 -15 -3 -31q0 -8 1 -25.5t1 -27.5v-43v-22q0 -5 0.5 -14t0.5 -14q0 -8 -1 -24.5t-1 -24.5q0 -11 1 -17q0 -3 9 -5q4 -1 10 -1q2 0 4.5 0.5t5.5 0.5h4q37 -4 37 -30v-3q-2 -9 -4 -11q-2 -3 -3 -5.5t-1 -4t-1.5 -3t-5.5 -1.5q-11 0 -31 -3.5t-32 -3.5q-5 0 -19 2
q-36 6 -50 11q-4 1 -11 1.5t-10 1.5q-16 5 -16 13v2q2 10 2 16q1 16 19 16q6 0 18.5 -2.5t16.5 -2.5q11 0 11 8v12q0 11 -1 34.5t-1 35.5q0 3 -0.5 9t-0.5 9zM151 43q0 6 4 16q17 49 38 144q1 3 12 40q6 17 34 120q25 100 38 140q35 112 39 121q7 22 11 38q8 38 23 80
q6 18 23 37q6 7 9 7q2 0 10 -9q6 -8 6 -19v-4q-3 -12 -9 -44q-3 -17 -11 -56t-11 -60q-1 -6 -2.5 -12.5t-3.5 -14.5l-3 -12q-4 -17 -12.5 -48.5t-12.5 -48.5q-31 -130 -55 -206q-43 -135 -54 -189q0 -2 -15 -46q-3 -11 -11 -14l3 -3v-1q-6 -6 -13 -6q-4 0 -12 4
q-25 13 -25 46z" />
    <glyph glyph-name="onehalf" unicode="&#xbd;" horiz-adv-x="602" 
d="M113 613q0 5 -1 15t-1 15q0 7 -0.5 22t-0.5 23v1q0 20 -5 20q-2 0 -4 -2l-18 -12t-23 -16l-16 -9q-2 -2 -3 -2q-2 0 -6.5 4.5t-6.5 5.5q-9 7 -9 14q0 4 3 8q17 31 38 50q7 5 35 34q10 12 17 12t16 -4q19 -7 22 -11q14 -14 14 -21q-3 -15 -3 -31q0 -8 1 -25.5t1 -27.5v-43
v-22q0 -5 0.5 -14t0.5 -14q0 -8 -1 -24.5t-1 -24.5q0 -11 1 -17q0 -3 9 -5q4 -1 10 -1q2 0 4.5 0.5t5.5 0.5h4q37 -4 37 -30v-3q-2 -9 -4 -11q-2 -3 -3 -5.5t-1 -4t-1.5 -3t-5.5 -1.5q-11 0 -31 -3.5t-32 -3.5q-5 0 -19 2q-36 6 -50 11q-4 1 -11 1.5t-10 1.5q-16 5 -16 13v2
q2 10 2 16q1 16 19 16q6 0 18.5 -2.5t16.5 -2.5q11 0 11 8v12q0 11 -1 34.5t-1 35.5q0 3 -0.5 9t-0.5 9zM151 43q0 6 4 16q17 49 38 144q1 3 12 40q6 17 34 120q25 100 38 140q35 112 39 121q7 22 11 38q8 38 23 80q6 18 23 37q6 7 9 7q2 0 10 -9q6 -8 6 -19v-4
q-3 -12 -9 -44q-3 -17 -11 -56t-11 -60q-1 -6 -2.5 -12.5t-3.5 -14.5l-3 -12q-4 -17 -12.5 -48.5t-12.5 -48.5q-31 -130 -55 -206q-43 -135 -54 -189q0 -2 -15 -46q-3 -11 -11 -14l3 -3v-1q-6 -6 -13 -6q-4 0 -12 4q-25 13 -25 46zM339 220q-19 42 -19 71q0 39 34 50
q1 0 5 2q16 8 29 8l14 -2q5 -1 14.5 -2.5t17 -3t13.5 -3.5q11 0 23.5 -9.5t16.5 -18.5q9 -17 15 -34q7 -18 7 -38q0 -13 -3 -26t-9 -32.5t-8 -26.5q-20 -70 -27 -88v-1q0 -3 32.5 -10t45.5 -8h2q4 0 11.5 1.5t10.5 1.5q8 0 15 -6q5 -4 5 -13q0 -10 -4 -22q-2 -3 -3.5 -8
t-3.5 -8t-6 -4q-21 -3 -44 -3q-54 0 -125 11q-2 0 -5.5 1t-4.5 1q-7 2 -7 12q0 8 4 20q4 22 9 29q13 20 29 61q1 2 5 12.5t5 15.5q23 44 23 91q0 26 -6 39q-7 17 -21 22q-16 7 -30 7q-15 0 -22 -11q-8 -13 -8 -27q0 -13 5 -28h1q2 -3 11 -26q1 -1 1 -4q0 -11 -10 -11h-5h-8
q-10 0 -17.5 5t-7.5 13z" />
    <glyph glyph-name="threequarters" unicode="&#xbe;" horiz-adv-x="577" 
d="M463 -2q-12 5 -12 16v28v14q0 2 -0.5 6.5t-0.5 6.5q0 10 2 30v13q0 13 -1 19q0 1 -1 3q0 1 0.5 3t0.5 3q0 8 -10 8q-7 0 -50 -8q-2 0 -16.5 -9t-23.5 -9q-14 0 -21 19q-3 10 -5 31l-1 1v1q0 3 2.5 7.5t2.5 6.5q3 12 4.5 36.5t3.5 34.5q0 3 2.5 25t4.5 30q1 2 0.5 5.5
t0.5 5t5 3.5q2 1 5 1q2 0 7.5 -1t8.5 -1q8 0 12 -9q1 -3 4 -22q1 -4 2 -14t1 -15q0 -1 0.5 -5t0.5 -5q0 -3 -0.5 -9t-0.5 -10t-0.5 -13t-0.5 -14q0 -9 -1 -14v-3q0 -6 8 -7q3 0 4 -1h3q5 2 30 4h12q6 0 8 8q1 6 2 26.5t3 31.5v3q0 3 -1 8t-1 7v2l1 2v1q-1 4 -1.5 12t-0.5 10
q0 1 -0.5 1t-0.5 1q0 10 11 12q12 3 14 3q8 0 9 -5q2 -3 2 -13v-7v-6q0 -7 2 -22t3 -22v-7q0 -1 -0.5 -3.5t-0.5 -3.5q0 -5 1.5 -14t1.5 -11v-15q0 -5 -0.5 -14t-0.5 -13q0 -10 1 -15v-7q0 -5 -1 -14.5t-1 -14.5q0 -25 1 -36q0 -3 -0.5 -10t-0.5 -11q0 -7 5 -37v-3
q0 -4 -7 -16q-2 -4 -9 -4q-13 0 -21 4zM151 43q0 6 4 16q17 49 38 144q1 3 12 40q6 17 34 120q25 100 38 140q35 112 39 121q7 22 11 38q8 38 23 80q6 18 23 37q6 7 9 7q2 0 10 -9q6 -8 6 -19v-4q-3 -12 -9 -44q-3 -17 -11 -56t-11 -60q-1 -6 -2.5 -12.5t-3.5 -14.5l-3 -12
q-4 -17 -12.5 -48.5t-12.5 -48.5q-31 -130 -55 -206q-43 -135 -54 -189q0 -2 -15 -46q-3 -11 -11 -14l3 -3v-1q-6 -6 -13 -6q-4 0 -12 4q-25 13 -25 46zM36 503q-2 4 -2 5q0 12 16 18q4 3 6 3q4 0 9 -14q1 -1 3 -4.5t4 -5.5t6 -7.5t7 -7.5q14 -13 31 -25l2 -1q1 -1 1 -2
q1 -1 7 -3h15q6 1 9 6q24 38 24 68q0 13 -4 24q-5 14 -37 14q-6 0 -27 -3q-2 0 -4 -0.5t-3 -1t-2.5 -0.5h-2.5q-6 0 -16 5q-10 4 -11 10l-3 3t-2 4q-1 2 -1 6q0 13 23 13q46 6 60 31q1 2 6.5 10.5t8.5 15.5t3 14q0 6 -3 14q-11 24 -31 37q-6 5 -14 5q-12 0 -21.5 -10.5
t-12.5 -21.5q-1 -3 -4 -11.5t-4 -12.5q0 -4 -8 -6q-7 -4 -16 -4q-6 0 -9 1q-18 4 -19 6q-1 1 -1 4q0 2 1 6t1 6q0 3 -1 4t-1 4q0 4 2 10q6 34 25 48.5t60 14.5h9q32 -2 60.5 -15t35.5 -35q13 -36 13 -44q0 -13 -9 -25q-8 -12 -10 -19q-1 -3 -3 -6t-5.5 -7t-4.5 -6
q-10 -12 -14 -15q-2 -1 -2 -4t4 -4q15 -7 21 -10.5t16.5 -11.5t15 -18t4.5 -22q0 -72 -13.5 -93t-79.5 -45q-6 -2 -11 -2q-9 0 -36 8q-1 1 -3 2.5t-3 1.5q-55 40 -55 101z" />
    <glyph glyph-name="questiondown" unicode="&#xbf;" horiz-adv-x="438" 
d="M79 -80q-30 40 -33 92q0 2 -0.5 5t-0.5 4q0 33 20 82q23 55 80 116q18 20 24 33q3 6 22 25q23 24 30.5 37.5t7.5 31.5q0 6 -2 32q-2 18 -9.5 51t-9.5 49q0 2 -0.5 4.5t-0.5 3.5q0 17 20 25q10 5 25 5q13 0 25 -3q23 -5 30 -32q9 -33 9 -67q0 -13 -0.5 -37.5t-0.5 -36.5
q0 -32 2 -47q2 -14 2 -21q0 -49 -39 -91q-32 -35 -62 -61q-9 -8 -24 -25.5t-22 -24.5q-17 -17 -25 -43q-4 -9 -4 -20q0 -25 26 -40q22 -14 61 -14q32 0 53 5q25 6 51 25q15 11 15 27q0 5 -1 8q-9 43 -13 58q-2 10 -2 14q0 11 14 24q15 12 31 12l33 -10q27 -15 27 -43v-4
q0 -6 -0.5 -17t-0.5 -16q2 -22 2 -32q0 -7 -2 -21q-4 -30 -27 -56q-6 -6 -10 -8q-16 -7 -35 -28q-23 -25 -63 -33q-29 -6 -59 -6q-35 0 -66 7q-60 12 -98 61zM270 743q15 -4 34.5 -26.5t23.5 -38.5q2 -8 2 -11v-2q0 -3 4 -31q0 -51 -52 -62q-1 0 -3.5 -1t-3.5 -1
q-9 -8 -23 -8q-29 0 -42 25q-5 30 -5 64q0 95 49 95q7 0 16 -3z" />
    <glyph glyph-name="Agrave" unicode="&#xc0;" 
d="M206 794q-14 8 -21 10q-21 6 -34 22q-14 17 -44 37q-19 13 -28 32q-2 6 -8 16.5t-8 15.5q-6 13 0 23q8 14 17 12q3 -1 18 -4t23 -7q31 -15 60 -57q7 -10 23.5 -35.5t26.5 -38.5q6 -8 7 -14q2 -8 -2.5 -13t-11.5 -5q-6 0 -18 6zM186 273q0 -1 -0.5 -1t-0.5 -1
q0 -10 15 -10h1q54 11 64 14q11 3 11 13q0 4 -1 7q-15 67 -19 78q-12 43 -17 74q-3 24 -11 72q-2 7 -6 7t-6 -7q-1 -4 -2.5 -12t-2.5 -14.5t-1 -12.5q-1 -21 -10 -101q-10 -84 -14 -106zM295 196q-5 12 -14 12h-7q-77 -13 -88 -14q-15 -1 -17 -22q-5 -82 -19 -157
q-1 -5 -5 -15q-5 -11 -18 -11h-5q-24 2 -52 32q-30 31 -47 66q-7 14 -7 24q0 1 0.5 2t0.5 2t-0.5 3t-0.5 3q0 11 6 18q18 22 23 57q5 34 44 180q4 16 13.5 59.5t16.5 67.5q5 17 9.5 36.5t9.5 42.5t8 36q17 70 47 127q11 21 31 21q23 0 34 -23q11 -21 14 -43q11 -74 25 -120
q12 -39 18 -79q2 -14 26 -109q23 -102 28 -133q5 -30 20.5 -82t19.5 -69q2 -5 4 -19q0 -1 0.5 -3t0.5 -3q0 -21 -22 -21h-8q-8 2 -20.5 7l-17.5 7q-10 3 -14 16q-8 22 -11 34q-2 10 -26 70z" />
    <glyph glyph-name="Aacute" unicode="&#xc1;" 
d="M224 794q-12 -6 -18 -6q-7 0 -11.5 5t-2.5 13q1 4 8 14q10 13 26 38.5t23 35.5q29 42 60 57q8 4 23 7t18 4q9 2 17 -12q6 -10 0 -23l-8 -16t-7 -16q-8 -18 -29 -32q-30 -20 -44 -37q-13 -16 -34 -22q-7 -2 -21 -10zM186 273q0 -1 -0.5 -1t-0.5 -1q0 -10 15 -10h1
q54 11 64 14q11 3 11 13q0 4 -1 7q-15 67 -19 78q-12 43 -17 74q-3 24 -11 72q-2 7 -6 7t-6 -7q-1 -4 -2.5 -12t-2.5 -14.5t-1 -12.5q-1 -21 -10 -101q-10 -84 -14 -106zM295 196q-5 12 -14 12h-7q-77 -13 -88 -14q-15 -1 -17 -22q-5 -82 -19 -157q-1 -5 -5 -15
q-5 -11 -18 -11h-5q-24 2 -52 32q-30 31 -47 66q-7 14 -7 24q0 1 0.5 2t0.5 2t-0.5 3t-0.5 3q0 11 6 18q18 22 23 57q5 34 44 180q4 16 13.5 59.5t16.5 67.5q5 17 9.5 36.5t9.5 42.5t8 36q17 70 47 127q11 21 31 21q23 0 34 -23q11 -21 14 -43q11 -74 25 -120q12 -39 18 -79
q2 -14 26 -109q23 -102 28 -133q5 -30 20.5 -82t19.5 -69q2 -5 4 -19q0 -1 0.5 -3t0.5 -3q0 -21 -22 -21h-8q-8 2 -20.5 7l-17.5 7q-10 3 -14 16q-8 22 -11 34q-2 10 -26 70z" />
    <glyph glyph-name="Acircumflex" unicode="&#xc2;" 
d="M104 790h-5q-23 0 -28 25q0 1 -0.5 2.5t-0.5 2.5q0 13 23 28q11 7 26.5 20.5t17.5 14.5q14 11 36 25.5t30 20.5q21 15 49 22q4 1 13 1q24 0 48 -21q10 -9 33 -43q11 -17 13 -49v-3q0 -3 -6 -33q-2 -10 -2 -14t1 -6v-4q0 -10 -12 -13q-10 -2 -14 -2q-13 0 -27 6q-5 2 -9 6
t-9 10.5t-7 9.5q-35 40 -53 50q-8 4 -11 4q-5 0 -11 -3q-10 -5 -31 -22t-30 -22q-19 -11 -34 -13zM186 273q0 -1 -0.5 -1t-0.5 -1q0 -10 15 -10h1q54 11 64 14q11 3 11 13q0 4 -1 7q-15 67 -19 78q-12 43 -17 74q-3 24 -11 72q-2 7 -6 7t-6 -7q-1 -4 -2.5 -12t-2.5 -14.5
t-1 -12.5q-1 -21 -10 -101q-10 -84 -14 -106zM295 196q-5 12 -14 12h-7q-77 -13 -88 -14q-15 -1 -17 -22q-5 -82 -19 -157q-1 -5 -5 -15q-5 -11 -18 -11h-5q-24 2 -52 32q-30 31 -47 66q-7 14 -7 24q0 1 0.5 2t0.5 2t-0.5 3t-0.5 3q0 11 6 18q18 22 23 57q5 34 44 180
q4 16 13.5 59.5t16.5 67.5q5 17 9.5 36.5t9.5 42.5t8 36q17 70 47 127q11 21 31 21q23 0 34 -23q11 -21 14 -43q11 -74 25 -120q12 -39 18 -79q2 -14 26 -109q23 -102 28 -133q5 -30 20.5 -82t19.5 -69q2 -5 4 -19q0 -1 0.5 -3t0.5 -3q0 -21 -22 -21h-8q-8 2 -20.5 7
l-17.5 7q-10 3 -14 16q-8 22 -11 34q-2 10 -26 70z" />
    <glyph glyph-name="Atilde" unicode="&#xc3;" 
d="M109 808q-8 -5 -15 -5q-12 0 -18 14q-5 10 -5 25q0 7 1 10q6 22 8 34q1 8 10 13q28 16 45 19q5 1 16 1q12 0 23 -4q1 -1 15.5 -6t21.5 -9q14 -8 26 -8q14 0 28 9q20 13 43 14q1 0 2 0.5t2 0.5q9 0 16 -6q22 -17 30 -38q2 -6 2 -10q0 -8 -3 -15q-8 -26 -43 -43
q-18 -9 -81 -16q-35 2 -49 15q-9 8 -40 19q-2 1 -7 1q-8 0 -13 -4q-3 -1 -8 -5t-7 -6zM186 273q0 -1 -0.5 -1t-0.5 -1q0 -10 15 -10h1q54 11 64 14q11 3 11 13q0 4 -1 7q-15 67 -19 78q-12 43 -17 74q-3 24 -11 72q-2 7 -6 7t-6 -7q-1 -4 -2.5 -12t-2.5 -14.5t-1 -12.5
q-1 -21 -10 -101q-10 -84 -14 -106zM295 196q-5 12 -14 12h-7q-77 -13 -88 -14q-15 -1 -17 -22q-5 -82 -19 -157q-1 -5 -5 -15q-5 -11 -18 -11h-5q-24 2 -52 32q-30 31 -47 66q-7 14 -7 24q0 1 0.5 2t0.5 2t-0.5 3t-0.5 3q0 11 6 18q18 22 23 57q5 34 44 180q4 16 13.5 59.5
t16.5 67.5q5 17 9.5 36.5t9.5 42.5t8 36q17 70 47 127q11 21 31 21q23 0 34 -23q11 -21 14 -43q11 -74 25 -120q12 -39 18 -79q2 -14 26 -109q23 -102 28 -133q5 -30 20.5 -82t19.5 -69q2 -5 4 -19q0 -1 0.5 -3t0.5 -3q0 -21 -22 -21h-8q-8 2 -20.5 7l-17.5 7q-10 3 -14 16
q-8 22 -11 34q-2 10 -26 70z" />
    <glyph glyph-name="Adieresis" unicode="&#xc4;" 
d="M280 791q-6 -3 -12 -3q-12 0 -20.5 10t-8.5 23q0 15 11 26q21 21 34 21q11 0 25 -10q15 -10 15 -25q0 -11 -8 -17q-24 -19 -36 -25zM142 805h-1q-7 0 -21 6q-13 6 -13 25q0 8 4 16q6 11 20 20t25 9h5q34 -8 34 -33q0 -16 -15 -29t-38 -14zM186 273q0 -1 -0.5 -1t-0.5 -1
q0 -10 15 -10h1q54 11 64 14q11 3 11 13q0 4 -1 7q-15 67 -19 78q-12 43 -17 74q-3 24 -11 72q-2 7 -6 7t-6 -7q-1 -4 -2.5 -12t-2.5 -14.5t-1 -12.5q-1 -21 -10 -101q-10 -84 -14 -106zM295 196q-5 12 -14 12h-7q-77 -13 -88 -14q-15 -1 -17 -22q-5 -82 -19 -157
q-1 -5 -5 -15q-5 -11 -18 -11h-5q-24 2 -52 32q-30 31 -47 66q-7 14 -7 24q0 1 0.5 2t0.5 2t-0.5 3t-0.5 3q0 11 6 18q18 22 23 57q5 34 44 180q4 16 13.5 59.5t16.5 67.5q5 17 9.5 36.5t9.5 42.5t8 36q17 70 47 127q11 21 31 21q23 0 34 -23q11 -21 14 -43q11 -74 25 -120
q12 -39 18 -79q2 -14 26 -109q23 -102 28 -133q5 -30 20.5 -82t19.5 -69q2 -5 4 -19q0 -1 0.5 -3t0.5 -3q0 -21 -22 -21h-8q-8 2 -20.5 7l-17.5 7q-10 3 -14 16q-8 22 -11 34q-2 10 -26 70z" />
    <glyph glyph-name="Aring" unicode="&#xc5;" 
d="M225 923l-1 1h-2q-3 0 -11 -3t-16 -14l-3 -5q-1 -1 -3 -4q-1 -2 -3.5 -5.5t-3.5 -4.5q-1 -4 -2 -4h-1v-4q0 -14 2 -17q1 -1 1.5 -2t1 -2.5t1.5 -2.5q4 -6 14 -7q10 -2 14 -2h3q10 4 17.5 19t7.5 31q0 22 -16 26zM231 776q-10 -5 -33 -5h-3q-6 2 -8 2h-2h-1q-6 0 -14 4
l-8 4q-1 0 -1.5 1.5t-2 4.5t-4.5 7q-15 20 -23 44q-5 18 -5 34v3q0 7 7 21q11 22 17 30q9 12 13 15q9 7 15 16q2 3 14 12q1 1 4.5 5t6.5 5q20 7 41 7q14 0 27 -5q29 -13 32 -54q1 -9 1 -25q0 -23 -5 -46q-12 -57 -68 -80zM186 273q0 -1 -0.5 -1t-0.5 -1q0 -10 15 -10h1
q54 11 64 14q11 3 11 13q0 4 -1 7q-15 67 -19 78q-12 43 -17 74q-3 24 -11 72q-2 7 -6 7t-6 -7q-1 -4 -2.5 -12t-2.5 -14.5t-1 -12.5q-1 -21 -10 -101q-10 -84 -14 -106zM295 196q-5 12 -14 12h-7q-77 -13 -88 -14q-15 -1 -17 -22q-5 -82 -19 -157q-1 -5 -5 -15
q-5 -11 -18 -11h-5q-24 2 -52 32q-30 31 -47 66q-7 14 -7 24q0 1 0.5 2t0.5 2t-0.5 3t-0.5 3q0 11 6 18q18 22 23 57q5 34 44 180q4 16 13.5 59.5t16.5 67.5q5 17 9.5 36.5t9.5 42.5t8 36q17 70 47 127q11 21 31 21q23 0 34 -23q11 -21 14 -43q11 -74 25 -120q12 -39 18 -79
q2 -14 26 -109q23 -102 28 -133q5 -30 20.5 -82t19.5 -69q2 -5 4 -19q0 -1 0.5 -3t0.5 -3q0 -21 -22 -21h-8q-8 2 -20.5 7l-17.5 7q-10 3 -14 16q-8 22 -11 34q-2 10 -26 70z" />
    <glyph glyph-name="AE" unicode="&#xc6;" horiz-adv-x="612" 
d="M295 196q-5 12 -14 12h-7q-77 -13 -88 -14q-15 -1 -17 -22q-5 -82 -19 -157q-1 -5 -5 -15q-5 -11 -18 -11h-5q-24 2 -52 32q-30 31 -47 66q-7 14 -7 24q0 1 0.5 2t0.5 2t-0.5 3t-0.5 3q0 11 6 18q18 22 23 57q5 34 44 180q4 16 13.5 59.5t16.5 67.5q5 17 9.5 36.5
t9.5 42.5t8 36q17 70 47 127q11 21 31 21q23 0 34 -23q11 -21 14 -43q11 -74 25 -120q12 -39 18 -79v-5q1 4 2 14t1 14q1 10 3 28.5t3 27.5q0 3 1 8.5t1 8.5q1 6 1 17t-1 17q-2 6 -2 10v1v3q0 30 -3 45v2q0 3 2 9t2 8q3 20 23 27q10 4 15 4q6 0 11 -4q3 -3 9 -3q8 -1 27 -6
t29 -6q4 0 15.5 -2.5t18.5 -2.5h3h7h1q21 -1 38 -10q3 -1 13 -11q31 -19 47 -40q7 -9 7 -17v-2q0 -16 -16 -23q-10 -5 -25 -5t-22 1q-11 1 -38 5q-10 2 -15 4q-54 18 -61 20q-3 1 -8 1q-7 0 -7 -12v-1q0 -12 0.5 -36t0.5 -36v-9q0 -15 -1.5 -43t-1.5 -43q0 -10 3 -19
q3 -1 16.5 -5t22.5 -5q1 0 4 0.5t4 0.5q5 0 9 -3h1q1 0 7 -3q9 -7 36 -14t35 -22q2 -4 2 -9q0 -13 -7 -30t-14 -22q-9 -6 -17 -6q-4 0 -12 2q-9 3 -27.5 8.5t-27.5 8.5t-20 8q-6 2 -7 2q-6 0 -6 -10v-10q0 -21 1 -31q4 -42 4 -63q0 -5 0.5 -16t0.5 -17v-1v-1q0 -4 4 -10h1
l2 -1h9q5 0 13 -0.5t13 -0.5q6 0 10 1h10h38q27 0 34 4h3q2 0 6 -2t6 -4q4 -4 6.5 -7t3.5 -5t2.5 -7t3.5 -9q3 -5 4.5 -9.5t3 -7.5t5.5 -9q11 -16 14 -26v-6q0 -5 -7 -21q-3 -6 -16 -8q-14 -3 -42 -5q-13 -1 -43.5 -6t-47.5 -6q-3 0 -10 -0.5t-11 -0.5q-32 0 -55 10l-1 1
q-1 1 -3.5 3t-3.5 3l-9 3q-10 3 -14 16v1q-1 1 -1 2q-8 11 -9 24q0 1 -0.5 1t-0.5 1q-9 15 -13 43q-2 6 -6.5 16.5t-6.5 15.5zM186 273q0 -1 -0.5 -1t-0.5 -1q0 -10 15 -10h1q54 11 64 14q11 3 11 13q0 4 -1 7q-15 67 -19 78q-12 43 -17 74q-3 24 -11 72q-2 7 -6 7t-6 -7
q-1 -4 -2.5 -12t-2.5 -14.5t-1 -12.5q-1 -21 -10 -101q-10 -84 -14 -106z" />
    <glyph glyph-name="Ccedilla" unicode="&#xc7;" horiz-adv-x="416" 
d="M86 -260h-1q-14 0 -14 14q0 1 1 3q1 7 7 15q10 13 26.5 38.5t23.5 35.5q29 42 60 57q7 3 13 3q2 0 6 -0.5t6 -0.5q7 0 10 1l1 1h2q7 0 14 -13q1 -3 4 -6t3 -5t-1 -4q-3 -5 -8 -16t-8 -16q-9 -19 -28 -32q-11 -16 -37 -46q-16 -19 -36 -25q-15 -4 -31 -4h-6h-7zM99 535
q25 37 68 62q65 38 96 45q10 2 40 14t47 12q12 0 18 -2q1 0 3.5 -6t4.5 -12.5t3 -7.5q5 -1 9 -8t6 -14l1 -7q8 -18 8 -28q0 -17 -20 -26q-26 -14 -98 -44q-71 -32 -98 -101q-10 -29 -13 -42q0 -2 -2 -5t-2 -4q-27 -51 -39 -134v-10v-3q0 -13 -3 -19q10 -66 49 -116
q45 -58 131 -68q21 -2 36 -14q13 -11 13 -20l-1 -2v-3q9 -14 9 -30q0 -17 -7 -24q-7 -8 -14 -8q-3 0 -15 4q-27 3 -40 3h-2q-6 -3 -14 -3q-7 0 -15 2.5t-17.5 7t-13.5 5.5q-41 17 -46 18q-10 3 -17 9q-18 15 -37 25q-17 10 -29 28q-24 37 -27 43q-9 17 -16 41
q-28 77 -35 110q-3 11 -3 34q0 22 1 33q3 45 9 90q11 72 47 136q4 7 12.5 20t12.5 19z" />
    <glyph glyph-name="Egrave" unicode="&#xc8;" horiz-adv-x="326" 
d="M204 680q-14 8 -21 10q-21 6 -34 22q-14 17 -44 37q-19 13 -28 32q-2 6 -8 16.5t-8 15.5q-6 13 0 23q8 14 17 12q3 -1 18 -4t23 -7q31 -15 60 -57q7 -10 23.5 -35.5t26.5 -38.5q6 -8 7 -14q2 -8 -2.5 -13t-11.5 -5q-6 0 -18 6zM20 129q-2 24 -2 36q0 9 0.5 27t0.5 27v8
v14q0 51 3 102q2 42 10 121q1 9 2.5 28t2.5 28q1 3 2 8.5t1 8.5q1 6 1 17q0 5 -2 17q-1 3 -1 10v1v3q0 30 -3 45l-1 1v1q0 3 2 9t2 8q3 19 24 27q10 4 14 4q6 0 11 -4q3 -3 9 -3q8 -1 27.5 -6t29.5 -6q4 0 15.5 -2.5t18.5 -2.5h3h7h1q18 -1 38 -11q3 -1 12 -10
q33 -20 48 -40q7 -9 7 -17v-2q0 -10 -3.5 -14t-13.5 -9t-25 -5q-14 0 -21 1q-11 1 -38 5q-10 2 -15 4q-48 16 -62 20q-3 1 -7 1q-7 0 -7 -12v-1v-72q0 -2 0.5 -5t0.5 -4q0 -14 -1.5 -42.5t-1.5 -43.5q0 -10 3 -19q3 -1 16.5 -5t22.5 -5q1 0 3.5 0.5t3.5 0.5q6 0 10 -3
q1 0 7 -3q9 -7 36.5 -14t35.5 -22q1 -2 1 -9q0 -13 -7 -30t-14 -22q-9 -6 -16 -6q-5 0 -13 2q-9 3 -27.5 8.5t-27.5 8.5q-7 2 -19 8q-6 2 -8 2q-5 0 -5 -10v-10q0 -21 1 -31q3 -32 3 -63q0 -5 0.5 -16t0.5 -17v-1v-1q0 -4 4 -10h1q1 -1 2 -1h1h8q4 0 13 -0.5t13 -0.5
q7 0 11 1h10h37q30 0 35 3q1 1 3 1t6 -2q2 -1 5 -4q9 -7 17 -28q3 -5 5 -12t7 -14q11 -16 14 -26q1 -2 1 -6q0 -2 -8 -21q-3 -6 -16 -8q-14 -3 -42 -5q-13 -1 -43.5 -6t-47.5 -6q-4 0 -11 -0.5t-10 -0.5q-32 0 -55 10l-1 1q-3 4 -15 13.5t-18 18t-6 20.5q0 1 -1 1t-1 1
q-4 6 -6.5 12.5t-3.5 14.5t-1.5 13t-1.5 14.5t-1 13.5z" />
    <glyph glyph-name="Eacute" unicode="&#xc9;" horiz-adv-x="326" 
d="M142 705q-12 -6 -18 -6q-7 0 -11.5 5t-2.5 13q1 4 8 14q10 13 26 38.5t23 35.5q29 42 60 57q8 4 23 7t18 4q9 2 17 -12q6 -10 0 -23l-8 -16t-7 -16q-8 -18 -29 -32q-30 -20 -44 -37q-13 -16 -34 -22q-7 -2 -21 -10zM20 129q-2 24 -2 36q0 9 0.5 27t0.5 27v8v14
q0 51 3 102q2 42 10 121q1 9 2.5 28t2.5 28q1 3 2 8.5t1 8.5q1 6 1 17q0 5 -2 17q-1 3 -1 10v1v3q0 30 -3 45l-1 1v1q0 3 2 9t2 8q3 19 24 27q10 4 14 4q6 0 11 -4q3 -3 9 -3q8 -1 27.5 -6t29.5 -6q4 0 15.5 -2.5t18.5 -2.5h3h7h1q18 -1 38 -11q3 -1 12 -10q33 -20 48 -40
q7 -9 7 -17v-2q0 -10 -3.5 -14t-13.5 -9t-25 -5q-14 0 -21 1q-11 1 -38 5q-10 2 -15 4q-48 16 -62 20q-3 1 -7 1q-7 0 -7 -12v-1v-72q0 -2 0.5 -5t0.5 -4q0 -14 -1.5 -42.5t-1.5 -43.5q0 -10 3 -19q3 -1 16.5 -5t22.5 -5q1 0 3.5 0.5t3.5 0.5q6 0 10 -3q1 0 7 -3
q9 -7 36.5 -14t35.5 -22q1 -2 1 -9q0 -13 -7 -30t-14 -22q-9 -6 -16 -6q-5 0 -13 2q-9 3 -27.5 8.5t-27.5 8.5q-7 2 -19 8q-6 2 -8 2q-5 0 -5 -10v-10q0 -21 1 -31q3 -32 3 -63q0 -5 0.5 -16t0.5 -17v-1v-1q0 -4 4 -10h1q1 -1 2 -1h1h8q4 0 13 -0.5t13 -0.5q7 0 11 1h10h37
q30 0 35 3q1 1 3 1t6 -2q2 -1 5 -4q9 -7 17 -28q3 -5 5 -12t7 -14q11 -16 14 -26q1 -2 1 -6q0 -2 -8 -21q-3 -6 -16 -8q-14 -3 -42 -5q-13 -1 -43.5 -6t-47.5 -6q-4 0 -11 -0.5t-10 -0.5q-32 0 -55 10l-1 1q-3 4 -15 13.5t-18 18t-6 20.5q0 1 -1 1t-1 1q-4 6 -6.5 12.5
t-3.5 14.5t-1.5 13t-1.5 14.5t-1 13.5z" />
    <glyph glyph-name="Ecircumflex" unicode="&#xca;" horiz-adv-x="326" 
d="M56 707h-5q-23 0 -28 25q0 1 -0.5 2.5t-0.5 2.5q0 13 23 28q11 7 26.5 20.5t17.5 14.5q14 11 36 25.5t30 20.5q21 15 49 22q4 1 13 1q24 0 48 -21q10 -9 33 -43q11 -17 13 -49v-3q0 -3 -6 -33q-2 -10 -2 -14t1 -6v-4q0 -10 -12 -13q-10 -2 -14 -2q-13 0 -27 6q-5 2 -9 6
t-9 10.5t-7 9.5q-35 40 -53 50q-8 4 -11 4q-5 0 -11 -3q-10 -5 -31 -22t-30 -22q-19 -11 -34 -13zM20 129q-2 24 -2 36q0 9 0.5 27t0.5 27v8v14q0 51 3 102q2 42 10 121q1 9 2.5 28t2.5 28q1 3 2 8.5t1 8.5q1 6 1 17q0 5 -2 17q-1 3 -1 10v1v3q0 30 -3 45l-1 1v1q0 3 2 9
t2 8q3 19 24 27q10 4 14 4q6 0 11 -4q3 -3 9 -3q8 -1 27.5 -6t29.5 -6q4 0 15.5 -2.5t18.5 -2.5h3h7h1q18 -1 38 -11q3 -1 12 -10q33 -20 48 -40q7 -9 7 -17v-2q0 -10 -3.5 -14t-13.5 -9t-25 -5q-14 0 -21 1q-11 1 -38 5q-10 2 -15 4q-48 16 -62 20q-3 1 -7 1q-7 0 -7 -12
v-1v-72q0 -2 0.5 -5t0.5 -4q0 -14 -1.5 -42.5t-1.5 -43.5q0 -10 3 -19q3 -1 16.5 -5t22.5 -5q1 0 3.5 0.5t3.5 0.5q6 0 10 -3q1 0 7 -3q9 -7 36.5 -14t35.5 -22q1 -2 1 -9q0 -13 -7 -30t-14 -22q-9 -6 -16 -6q-5 0 -13 2q-9 3 -27.5 8.5t-27.5 8.5q-7 2 -19 8q-6 2 -8 2
q-5 0 -5 -10v-10q0 -21 1 -31q3 -32 3 -63q0 -5 0.5 -16t0.5 -17v-1v-1q0 -4 4 -10h1q1 -1 2 -1h1h8q4 0 13 -0.5t13 -0.5q7 0 11 1h10h37q30 0 35 3q1 1 3 1t6 -2q2 -1 5 -4q9 -7 17 -28q3 -5 5 -12t7 -14q11 -16 14 -26q1 -2 1 -6q0 -2 -8 -21q-3 -6 -16 -8q-14 -3 -42 -5
q-13 -1 -43.5 -6t-47.5 -6q-4 0 -11 -0.5t-10 -0.5q-32 0 -55 10l-1 1q-3 4 -15 13.5t-18 18t-6 20.5q0 1 -1 1t-1 1q-4 6 -6.5 12.5t-3.5 14.5t-1.5 13t-1.5 14.5t-1 13.5z" />
    <glyph glyph-name="Edieresis" unicode="&#xcb;" horiz-adv-x="326" 
d="M238 702q-6 -3 -12 -3q-12 0 -20.5 10t-8.5 23q0 15 11 26q21 21 34 21q11 0 25 -10q15 -10 15 -25q0 -11 -8 -17q-24 -19 -36 -25zM100 716h-1q-7 0 -21 6q-13 6 -13 25q0 8 4 16q6 11 20 20t25 9h5q34 -8 34 -33q0 -16 -15 -29t-38 -14zM20 129q-2 24 -2 36q0 9 0.5 27
t0.5 27v8v14q0 51 3 102q2 42 10 121q1 9 2.5 28t2.5 28q1 3 2 8.5t1 8.5q1 6 1 17q0 5 -2 17q-1 3 -1 10v1v3q0 30 -3 45l-1 1v1q0 3 2 9t2 8q3 19 24 27q10 4 14 4q6 0 11 -4q3 -3 9 -3q8 -1 27.5 -6t29.5 -6q4 0 15.5 -2.5t18.5 -2.5h3h7h1q18 -1 38 -11q3 -1 12 -10
q33 -20 48 -40q7 -9 7 -17v-2q0 -10 -3.5 -14t-13.5 -9t-25 -5q-14 0 -21 1q-11 1 -38 5q-10 2 -15 4q-48 16 -62 20q-3 1 -7 1q-7 0 -7 -12v-1v-72q0 -2 0.5 -5t0.5 -4q0 -14 -1.5 -42.5t-1.5 -43.5q0 -10 3 -19q3 -1 16.5 -5t22.5 -5q1 0 3.5 0.5t3.5 0.5q6 0 10 -3
q1 0 7 -3q9 -7 36.5 -14t35.5 -22q1 -2 1 -9q0 -13 -7 -30t-14 -22q-9 -6 -16 -6q-5 0 -13 2q-9 3 -27.5 8.5t-27.5 8.5q-7 2 -19 8q-6 2 -8 2q-5 0 -5 -10v-10q0 -21 1 -31q3 -32 3 -63q0 -5 0.5 -16t0.5 -17v-1v-1q0 -4 4 -10h1q1 -1 2 -1h1h8q4 0 13 -0.5t13 -0.5
q7 0 11 1h10h37q30 0 35 3q1 1 3 1t6 -2q2 -1 5 -4q9 -7 17 -28q3 -5 5 -12t7 -14q11 -16 14 -26q1 -2 1 -6q0 -2 -8 -21q-3 -6 -16 -8q-14 -3 -42 -5q-13 -1 -43.5 -6t-47.5 -6q-4 0 -11 -0.5t-10 -0.5q-32 0 -55 10l-1 1q-3 4 -15 13.5t-18 18t-6 20.5q0 1 -1 1t-1 1
q-4 6 -6.5 12.5t-3.5 14.5t-1.5 13t-1.5 14.5t-1 13.5z" />
    <glyph glyph-name="Igrave" unicode="&#xcc;" horiz-adv-x="155" 
d="M64 763q-14 8 -21 10q-21 6 -34 22q-14 17 -44 37q-19 13 -28 32q-2 6 -8 16.5t-8 15.5q-6 13 0 23q8 14 17 12q3 -1 18 -4t23 -7q31 -15 60 -57q7 -10 23.5 -35.5t26.5 -38.5q6 -8 7 -14q2 -8 -2.5 -13t-11.5 -5q-6 0 -18 6zM130 153q4 -24 8 -68v-9q0 -17 -6 -28
q-2 -4 -4 -14q-6 -21 -27 -21h-1q-2 0 -6.5 0.5t-6.5 0.5q-1 0 -2.5 -0.5t-2.5 -0.5h-5q-17 0 -24 18q-4 10 -4 16v2q-9 17 -18 49q-3 9 -3 17v4q1 8 1 24q0 13 -5 70q-2 36 -2 53q0 38 1 57q1 17 3 52t3 53v2l-3 21q-2 2 -2 7v2q0 13 -0.5 40.5t-0.5 40.5v26q0 1 -1 1t-1 1
v1v9q0 11 -0.5 34t-0.5 34q0 20 1 30q1 13 12 24q21 19 42 19h2q24 -1 28 -24q3 -16 3 -34q2 -126 2 -190q0 -12 1 -18q10 -41 10 -88q0 -29 2 -85q1 -13 1 -40t1 -48t5 -40z" />
    <glyph glyph-name="Iacute" unicode="&#xcd;" horiz-adv-x="155" 
d="M75 754q-12 -6 -18 -6q-7 0 -11.5 5t-2.5 13q1 4 8 14q10 13 26 38.5t23 35.5q29 42 60 57q8 4 23 7t18 4q9 2 17 -12q6 -10 0 -23l-8 -16t-7 -16q-8 -18 -29 -32q-30 -20 -44 -37q-13 -16 -34 -22q-7 -2 -21 -10zM130 153q4 -24 8 -68v-9q0 -17 -6 -28q-2 -4 -4 -14
q-6 -21 -27 -21h-1q-2 0 -6.5 0.5t-6.5 0.5q-1 0 -2.5 -0.5t-2.5 -0.5h-5q-17 0 -24 18q-4 10 -4 16v2q-9 17 -18 49q-3 9 -3 17v4q1 8 1 24q0 13 -5 70q-2 36 -2 53q0 38 1 57q1 17 3 52t3 53v2l-3 21q-2 2 -2 7v2q0 13 -0.5 40.5t-0.5 40.5v26q0 1 -1 1t-1 1v1v9
q0 11 -0.5 34t-0.5 34q0 20 1 30q1 13 12 24q21 19 42 19h2q24 -1 28 -24q3 -16 3 -34q2 -126 2 -190q0 -12 1 -18q10 -41 10 -88q0 -29 2 -85q1 -13 1 -40t1 -48t5 -40z" />
    <glyph glyph-name="Icircumflex" unicode="&#xce;" horiz-adv-x="155" 
d="M-32 740h-5q-23 0 -28 25q0 1 -0.5 2.5t-0.5 2.5q0 13 23 28q11 7 26.5 20.5t17.5 14.5q14 11 36 25.5t30 20.5q21 15 49 22q4 1 13 1q24 0 48 -21q10 -9 33 -43q11 -17 13 -49v-3q0 -3 -6 -33q-2 -10 -2 -14t1 -6v-4q0 -10 -12 -13q-10 -2 -14 -2q-13 0 -27 6q-5 2 -9 6
t-9 10.5t-7 9.5q-35 40 -53 50q-8 4 -11 4q-5 0 -11 -3q-10 -5 -31 -22t-30 -22q-19 -11 -34 -13zM130 153q4 -24 8 -68v-9q0 -17 -6 -28q-2 -4 -4 -14q-6 -21 -27 -21h-1q-2 0 -6.5 0.5t-6.5 0.5q-1 0 -2.5 -0.5t-2.5 -0.5h-5q-17 0 -24 18q-4 10 -4 16v2q-9 17 -18 49
q-3 9 -3 17v4q1 8 1 24q0 13 -5 70q-2 36 -2 53q0 38 1 57q1 17 3 52t3 53v2l-3 21q-2 2 -2 7v2q0 13 -0.5 40.5t-0.5 40.5v26q0 1 -1 1t-1 1v1v9q0 11 -0.5 34t-0.5 34q0 20 1 30q1 13 12 24q21 19 42 19h2q24 -1 28 -24q3 -16 3 -34q2 -126 2 -190q0 -12 1 -18
q10 -41 10 -88q0 -29 2 -85q1 -13 1 -40t1 -48t5 -40z" />
    <glyph glyph-name="Idieresis" unicode="&#xcf;" horiz-adv-x="155" 
d="M153 757q-6 -3 -12 -3q-12 0 -20.5 10t-8.5 23q0 15 11 26q21 21 34 21q11 0 25 -10q15 -10 15 -25q0 -11 -8 -17q-24 -19 -36 -25zM15 771h-1q-7 0 -21 6q-13 6 -13 25q0 8 4 16q6 11 20 20t25 9h5q34 -8 34 -33q0 -16 -15 -29t-38 -14zM130 153q4 -24 8 -68v-9
q0 -17 -6 -28q-2 -4 -4 -14q-6 -21 -27 -21h-1q-2 0 -6.5 0.5t-6.5 0.5q-1 0 -2.5 -0.5t-2.5 -0.5h-5q-17 0 -24 18q-4 10 -4 16v2q-9 17 -18 49q-3 9 -3 17v4q1 8 1 24q0 13 -5 70q-2 36 -2 53q0 38 1 57q1 17 3 52t3 53v2l-3 21q-2 2 -2 7v2q0 13 -0.5 40.5t-0.5 40.5v26
q0 1 -1 1t-1 1v1v9q0 11 -0.5 34t-0.5 34q0 20 1 30q1 13 12 24q21 19 42 19h2q24 -1 28 -24q3 -16 3 -34q2 -126 2 -190q0 -12 1 -18q10 -41 10 -88q0 -29 2 -85q1 -13 1 -40t1 -48t5 -40z" />
    <glyph glyph-name="Eth" unicode="&#xd0;" horiz-adv-x="440" 
d="M337 326q7 32 7 68q0 2 -0.5 5t-0.5 5q-2 65 -6 87q-12 74 -48 118q-37 45 -89 57q-23 5 -53 7h-3q-13 0 -13 -12q0 -1 0.5 -3t0.5 -3q2 -22 2 -34q0 -10 -2 -26q-1 -10 -1 -29q0 -8 0.5 -22t0.5 -22q0 -9 1 -28t1 -28q8 0 12 -2q26 -11 50 -17q35 -9 66 -39
q11 -10 13 -32v-2q0 -12 -12 -17q-13 -6 -29 -8q-56 4 -75 4q-4 0 -12 0.5t-12 0.5h-1q0 -4 0.5 -11t0.5 -10t-0.5 -7t-0.5 -7v-33q0 -35 1 -52q1 -13 1 -39q0 -4 -0.5 -12t-0.5 -12v-10q0 -13 2 -35q2 -12 9 -12h3l17.5 7t19.5 9q35 21 71 47q44 34 67 93q3 7 13 56z
M373 620q25 -40 47 -134q4 -16 5.5 -33.5t2.5 -39.5t2 -33v-11v-18v-2q0 -37 -19 -100q-15 -48 -20 -60q-17 -37 -40 -60q-36 -39 -85 -69q-8 -6 -12 -10q-7 -8 -21 -15q-12 -10 -25.5 -16.5t-22 -9t-29 -6.5t-28.5 -6q-12 -3 -24 -3q-22 0 -43 9q-15 6 -22 19q-9 18 -9 36
v1v2q0 34 -5 77q-4 38 -4 60q0 78 -2 117v13q0 26 1 39q-5 1 -15.5 3.5t-15.5 3.5q-1 0 -8 2t-11 4q-19 9 -19 28q0 8 1 12q4 10 5 16q4 20 28 30q2 1 5 1q1 0 10 -3t17 -3h5q1 0 2.5 0.5t2.5 0.5q1 16 1 49t1 50q2 44 5 66q2 20 2 29q0 2 -0.5 7t-0.5 8v11q0 28 13 51
q12 21 37 27q2 1 5 1q8 0 13 -4t14 -4q1 0 3 0.5t4 0.5q5 1 15 1q8 0 22.5 -2t19.5 -2q18 -2 34 -6q98 -23 158 -125z" />
    <glyph glyph-name="Ntilde" unicode="&#xd1;" horiz-adv-x="571" 
d="M173 762q-8 -5 -15 -5q-12 0 -18 14q-5 10 -5 25q0 7 1 10q6 22 8 34q1 8 10 13q28 16 45 19q5 1 16 1q12 0 23 -4q1 -1 15.5 -6t21.5 -9q14 -8 26 -8q14 0 28 9q20 13 43 14q1 0 2 0.5t2 0.5q9 0 16 -6q22 -17 30 -38q2 -6 2 -10q0 -8 -3 -15q-8 -26 -43 -43
q-18 -9 -81 -16q-35 2 -49 15q-9 8 -40 19q-2 1 -7 1q-8 0 -13 -4q-3 -1 -8 -5t-7 -6zM527 431q-1 -7 -1 -20t-1 -23.5t-5 -19.5q-2 -6 -2 -10q0 -2 0.5 -5.5t0.5 -5.5v-11q0 -33 -4 -58q-1 -5 -1 -16q0 -12 2 -18q1 -3 1 -9q0 -3 -0.5 -10t-0.5 -11q0 -5 -0.5 -14.5
t-0.5 -14.5q0 -49 3 -99q0 -1 0.5 -3t0.5 -3v-4q-2 -18 -2 -29q0 -17 3 -48.5t3 -45.5q0 -4 2 -11.5t2 -9.5q1 -5 1 -16q0 -27 -22 -42q-24 -19 -27 -22q-6 -7 -16 -7q-1 0 -2.5 0.5t-2.5 0.5q-28 3 -44 16q-3 3 -12 8.5t-13 9.5q-15 10 -39 38q-6 7 -14 25q-29 57 -58 135
q-4 10 -6 32q-3 13 -3 14q-11 25 -26 87q-4 15 -14 43q-36 94 -56 129q-4 7 -7 19q-7 21 -17 46q-2 1 -5 1q-7 0 -7 -9v-7q0 -13 3 -27q1 -8 1.5 -17t1 -19.5t0.5 -16.5q0 -8 0.5 -23.5t1 -28t1.5 -23.5q2 -26 4.5 -74.5t3.5 -64.5q2 -31 4 -87t3 -78l6 -99v-7q0 -7 -1 -10
q-4 -16 -18 -17t-24 -9q-8 -7 -18 -7q-8 0 -19 7q-7 5 -17 17q-8 11 -14 15q-16 14 -37 55q-3 6 -3 13t5 15v1q0 6 3 10q10 16 10 42v11q-1 22 -1 65v6q0 10 1 30t1 30v46q0 6 -0.5 19.5t-0.5 20.5v4q0 8 1.5 24t1.5 24v7q-1 14 -1 42v54v4v8q0 29 2 89v24q0 21 -2 32
q0 1 -0.5 3.5t-0.5 3.5q0 3 0.5 8t0.5 7v3q-2 24 -9 40q-2 4 -2 7v1q2 44 12 69q16 37 59 37q13 0 24 -4q3 -1 6.5 -2.5t7.5 -4t6 -3.5q9 -5 13 -18q34 -106 48 -137q8 -18 37 -98q3 -9 11 -27q3 -5 49 -118q4 -11 13.5 -33t14.5 -33q7 -18 21.5 -49.5t18.5 -40.5
q5 -13 7 -16q2 -6 6 -6h2q4 1 4 9q0 3 1 8.5t1.5 10t0.5 8.5v4q0 1 -0.5 5t-0.5 6q0 8 1.5 25t1.5 25q1 18 5 54q1 12 5 37t5 38q2 25 10.5 79t9.5 84q1 14 5 40t5 40q2 30 2 45q0 20 -5 45q-4 7 -4 16q0 6 2 18q2 14 21 16h8q5 0 16 -0.5t17 -0.5h5h4q15 0 21.5 -6
t11.5 -25q3 -8 3 -16v-14v-8q0 -4 3 -21q2 -8 2 -25v-8q-1 -22 -1 -66q0 -4 -2 -10q-4 -16 -6 -34.5t-3.5 -41.5t-2.5 -35z" />
    <glyph glyph-name="Ograve" unicode="&#xd2;" horiz-adv-x="484" 
d="M232 794q-14 8 -21 10q-21 6 -34 22q-14 17 -44 37q-19 13 -28 32q-2 6 -8 16.5t-8 15.5q-6 13 0 23q8 14 17 12q3 -1 18 -4t23 -7q31 -15 60 -57q7 -10 23.5 -35.5t26.5 -38.5q6 -8 7 -14q2 -8 -2.5 -13t-11.5 -5q-6 0 -18 6zM464 394v-7q0 -13 -6 -23q-3 -22 -3 -67
q0 -34 1 -51q2 -40 2 -60q0 -32 -3 -64q-4 -41 -13 -67q-4 -12 -16 -52q-4 -16 -14 -32q-6 -22 -29 -30q-19 -7 -28 -17q-15 -16 -46 -18q-3 0 -9 -0.5t-9 -0.5q-41 0 -74 15q-7 3 -15 3h-3h-5q-14 0 -29 10q-46 31 -66 57q-1 0 -2 2l-1 2q-10 10 -15 20q-31 34 -41 76
q-15 65 -19 118q0 7 -0.5 20t-1 24t-1.5 20q0 1 -0.5 3.5t-0.5 3.5q0 4 2 10q5 21 5 62v10v11q0 17 3 26q1 2 1 8q0 5 -1 7q-5 16 -5 38q0 24 7 57q17 82 65 166q2 11 16 27q4 6 17.5 20t19.5 23q2 2 15 10q30 16 33 19q5 5 14 5h1q2 0 6 -0.5t6 -0.5q5 0 7 1h3q4 0 9 -4.5
t8 -4.5h3q6 3 12 3q3 0 11 -2q50 -17 94 -61q25 -25 29 -39q3 -8 10 -17q8 -12 13 -30q5 -19 18 -50q13 -30 13 -50q0 -10 3 -19q7 -19 7 -50v-12v-7q0 -27 2 -41zM342 374q-1 2 -1 6q0 2 0.5 5t0.5 5q1 15 1 46q0 38 -6 63q-8 34 -24 104q-6 24 -9 35q-12 41 -51 50
q-5 1 -16 2t-12 1t-3 1q-16 0 -27 -16q-31 -48 -43 -84q-5 -15 -11.5 -45t-9.5 -42q-10 -36 -11 -72q-4 -66 -4 -100v-35q0 -49 4 -88q6 -68 14 -102q4 -17 17 -31q11 -11 13 -16h1h2q3 0 12 -7q12 -9 25 -9q8 0 16 3t14 3q13 0 21 -12q3 -4 9 -4h3l9 6q20 30 31 69
q22 79 30 164q1 5 1 14t1 13v2q0 8 1 11v1q1 1 1 2q1 3 1 8.5v8.5v1q1 6 1 18q0 14 -1 21z" />
    <glyph glyph-name="Oacute" unicode="&#xd3;" horiz-adv-x="484" 
d="M250 794q-12 -6 -18 -6q-7 0 -11.5 5t-2.5 13q1 4 8 14q10 13 26 38.5t23 35.5q29 42 60 57q8 4 23 7t18 4q9 2 17 -12q6 -10 0 -23l-8 -16t-7 -16q-8 -18 -29 -32q-30 -20 -44 -37q-13 -16 -34 -22q-7 -2 -21 -10zM464 394v-7q0 -13 -6 -23q-3 -22 -3 -67q0 -34 1 -51
q2 -40 2 -60q0 -32 -3 -64q-4 -41 -13 -67q-4 -12 -16 -52q-4 -16 -14 -32q-6 -22 -29 -30q-19 -7 -28 -17q-15 -16 -46 -18q-3 0 -9 -0.5t-9 -0.5q-41 0 -74 15q-7 3 -15 3h-3h-5q-14 0 -29 10q-46 31 -66 57q-1 0 -2 2l-1 2q-10 10 -15 20q-31 34 -41 76q-15 65 -19 118
q0 7 -0.5 20t-1 24t-1.5 20q0 1 -0.5 3.5t-0.5 3.5q0 4 2 10q5 21 5 62v10v11q0 17 3 26q1 2 1 8q0 5 -1 7q-5 16 -5 38q0 24 7 57q17 82 65 166q2 11 16 27q4 6 17.5 20t19.5 23q2 2 15 10q30 16 33 19q5 5 14 5h1q2 0 6 -0.5t6 -0.5q5 0 7 1h3q4 0 9 -4.5t8 -4.5h3
q6 3 12 3q3 0 11 -2q50 -17 94 -61q25 -25 29 -39q3 -8 10 -17q8 -12 13 -30q5 -19 18 -50q13 -30 13 -50q0 -10 3 -19q7 -19 7 -50v-12v-7q0 -27 2 -41zM342 374q-1 2 -1 6q0 2 0.5 5t0.5 5q1 15 1 46q0 38 -6 63q-8 34 -24 104q-6 24 -9 35q-12 41 -51 50q-5 1 -16 2
t-12 1t-3 1q-16 0 -27 -16q-31 -48 -43 -84q-5 -15 -11.5 -45t-9.5 -42q-10 -36 -11 -72q-4 -66 -4 -100v-35q0 -49 4 -88q6 -68 14 -102q4 -17 17 -31q11 -11 13 -16h1h2q3 0 12 -7q12 -9 25 -9q8 0 16 3t14 3q13 0 21 -12q3 -4 9 -4h3l9 6q20 30 31 69q22 79 30 164
q1 5 1 14t1 13v2q0 8 1 11v1q1 1 1 2q1 3 1 8.5v8.5v1q1 6 1 18q0 14 -1 21z" />
    <glyph glyph-name="Ocircumflex" unicode="&#xd4;" horiz-adv-x="484" 
d="M130 815h-5q-23 0 -28 25q0 1 -0.5 2.5t-0.5 2.5q0 13 23 28q11 7 26.5 20.5t17.5 14.5q14 11 36 25.5t30 20.5q21 15 49 22q4 1 13 1q24 0 48 -21q10 -9 33 -43q11 -17 13 -49v-3q0 -3 -6 -33q-2 -10 -2 -14t1 -6v-4q0 -10 -12 -13q-10 -2 -14 -2q-13 0 -27 6q-5 2 -9 6
t-9 10.5t-7 9.5q-35 40 -53 50q-8 4 -11 4q-5 0 -11 -3q-10 -5 -31 -22t-30 -22q-19 -11 -34 -13zM464 394v-7q0 -13 -6 -23q-3 -22 -3 -67q0 -34 1 -51q2 -40 2 -60q0 -32 -3 -64q-4 -41 -13 -67q-4 -12 -16 -52q-4 -16 -14 -32q-6 -22 -29 -30q-19 -7 -28 -17
q-15 -16 -46 -18q-3 0 -9 -0.5t-9 -0.5q-41 0 -74 15q-7 3 -15 3h-3h-5q-14 0 -29 10q-46 31 -66 57q-1 0 -2 2l-1 2q-10 10 -15 20q-31 34 -41 76q-15 65 -19 118q0 7 -0.5 20t-1 24t-1.5 20q0 1 -0.5 3.5t-0.5 3.5q0 4 2 10q5 21 5 62v10v11q0 17 3 26q1 2 1 8q0 5 -1 7
q-5 16 -5 38q0 24 7 57q17 82 65 166q2 11 16 27q4 6 17.5 20t19.5 23q2 2 15 10q30 16 33 19q5 5 14 5h1q2 0 6 -0.5t6 -0.5q5 0 7 1h3q4 0 9 -4.5t8 -4.5h3q6 3 12 3q3 0 11 -2q50 -17 94 -61q25 -25 29 -39q3 -8 10 -17q8 -12 13 -30q5 -19 18 -50q13 -30 13 -50
q0 -10 3 -19q7 -19 7 -50v-12v-7q0 -27 2 -41zM342 374q-1 2 -1 6q0 2 0.5 5t0.5 5q1 15 1 46q0 38 -6 63q-8 34 -24 104q-6 24 -9 35q-12 41 -51 50q-5 1 -16 2t-12 1t-3 1q-16 0 -27 -16q-31 -48 -43 -84q-5 -15 -11.5 -45t-9.5 -42q-10 -36 -11 -72q-4 -66 -4 -100v-35
q0 -49 4 -88q6 -68 14 -102q4 -17 17 -31q11 -11 13 -16h1h2q3 0 12 -7q12 -9 25 -9q8 0 16 3t14 3q13 0 21 -12q3 -4 9 -4h3l9 6q20 30 31 69q22 79 30 164q1 5 1 14t1 13v2q0 8 1 11v1q1 1 1 2q1 3 1 8.5v8.5v1q1 6 1 18q0 14 -1 21z" />
    <glyph glyph-name="Otilde" unicode="&#xd5;" horiz-adv-x="484" 
d="M135 809q-8 -5 -15 -5q-12 0 -18 14q-5 10 -5 25q0 7 1 10q6 22 8 34q1 8 10 13q28 16 45 19q5 1 16 1q12 0 23 -4q1 -1 15.5 -6t21.5 -9q14 -8 26 -8q14 0 28 9q20 13 43 14q1 0 2 0.5t2 0.5q9 0 16 -6q22 -17 30 -38q2 -6 2 -10q0 -8 -3 -15q-8 -26 -43 -43
q-18 -9 -81 -16q-35 2 -49 15q-9 8 -40 19q-2 1 -7 1q-8 0 -13 -4q-3 -1 -8 -5t-7 -6zM464 394v-7q0 -13 -6 -23q-3 -22 -3 -67q0 -34 1 -51q2 -40 2 -60q0 -32 -3 -64q-4 -41 -13 -67q-4 -12 -16 -52q-4 -16 -14 -32q-6 -22 -29 -30q-19 -7 -28 -17q-15 -16 -46 -18
q-3 0 -9 -0.5t-9 -0.5q-41 0 -74 15q-7 3 -15 3h-3h-5q-14 0 -29 10q-46 31 -66 57q-1 0 -2 2l-1 2q-10 10 -15 20q-31 34 -41 76q-15 65 -19 118q0 7 -0.5 20t-1 24t-1.5 20q0 1 -0.5 3.5t-0.5 3.5q0 4 2 10q5 21 5 62v10v11q0 17 3 26q1 2 1 8q0 5 -1 7q-5 16 -5 38
q0 24 7 57q17 82 65 166q2 11 16 27q4 6 17.5 20t19.5 23q2 2 15 10q30 16 33 19q5 5 14 5h1q2 0 6 -0.5t6 -0.5q5 0 7 1h3q4 0 9 -4.5t8 -4.5h3q6 3 12 3q3 0 11 -2q50 -17 94 -61q25 -25 29 -39q3 -8 10 -17q8 -12 13 -30q5 -19 18 -50q13 -30 13 -50q0 -10 3 -19
q7 -19 7 -50v-12v-7q0 -27 2 -41zM342 374q-1 2 -1 6q0 2 0.5 5t0.5 5q1 15 1 46q0 38 -6 63q-8 34 -24 104q-6 24 -9 35q-12 41 -51 50q-5 1 -16 2t-12 1t-3 1q-16 0 -27 -16q-31 -48 -43 -84q-5 -15 -11.5 -45t-9.5 -42q-10 -36 -11 -72q-4 -66 -4 -100v-35q0 -49 4 -88
q6 -68 14 -102q4 -17 17 -31q11 -11 13 -16h1h2q3 0 12 -7q12 -9 25 -9q8 0 16 3t14 3q13 0 21 -12q3 -4 9 -4h3l9 6q20 30 31 69q22 79 30 164q1 5 1 14t1 13v2q0 8 1 11v1q1 1 1 2q1 3 1 8.5v8.5v1q1 6 1 18q0 14 -1 21z" />
    <glyph glyph-name="Odieresis" unicode="&#xd6;" horiz-adv-x="484" 
d="M306 792q-6 -3 -12 -3q-12 0 -20.5 10t-8.5 23q0 15 11 26q21 21 34 21q11 0 25 -10q15 -10 15 -25q0 -11 -8 -17q-24 -19 -36 -25zM168 806h-1q-7 0 -21 6q-13 6 -13 25q0 8 4 16q6 11 20 20t25 9h5q34 -8 34 -33q0 -16 -15 -29t-38 -14zM464 394v-7q0 -13 -6 -23
q-3 -22 -3 -67q0 -34 1 -51q2 -40 2 -60q0 -32 -3 -64q-4 -41 -13 -67q-4 -12 -16 -52q-4 -16 -14 -32q-6 -22 -29 -30q-19 -7 -28 -17q-15 -16 -46 -18q-3 0 -9 -0.5t-9 -0.5q-41 0 -74 15q-7 3 -15 3h-3h-5q-14 0 -29 10q-46 31 -66 57q-1 0 -2 2l-1 2q-10 10 -15 20
q-31 34 -41 76q-15 65 -19 118q0 7 -0.5 20t-1 24t-1.5 20q0 1 -0.5 3.5t-0.5 3.5q0 4 2 10q5 21 5 62v10v11q0 17 3 26q1 2 1 8q0 5 -1 7q-5 16 -5 38q0 24 7 57q17 82 65 166q2 11 16 27q4 6 17.5 20t19.5 23q2 2 15 10q30 16 33 19q5 5 14 5h1q2 0 6 -0.5t6 -0.5q5 0 7 1
h3q4 0 9 -4.5t8 -4.5h3q6 3 12 3q3 0 11 -2q50 -17 94 -61q25 -25 29 -39q3 -8 10 -17q8 -12 13 -30q5 -19 18 -50q13 -30 13 -50q0 -10 3 -19q7 -19 7 -50v-12v-7q0 -27 2 -41zM342 374q-1 2 -1 6q0 2 0.5 5t0.5 5q1 15 1 46q0 38 -6 63q-8 34 -24 104q-6 24 -9 35
q-12 41 -51 50q-5 1 -16 2t-12 1t-3 1q-16 0 -27 -16q-31 -48 -43 -84q-5 -15 -11.5 -45t-9.5 -42q-10 -36 -11 -72q-4 -66 -4 -100v-35q0 -49 4 -88q6 -68 14 -102q4 -17 17 -31q11 -11 13 -16h1h2q3 0 12 -7q12 -9 25 -9q8 0 16 3t14 3q13 0 21 -12q3 -4 9 -4h3l9 6
q20 30 31 69q22 79 30 164q1 5 1 14t1 13v2q0 8 1 11v1q1 1 1 2q1 3 1 8.5v8.5v1q1 6 1 18q0 14 -1 21z" />
    <glyph glyph-name="multiply" unicode="&#xd7;" horiz-adv-x="309" 
d="M295 530q-5 -55 -21 -74q-20 -23 -31 -33q-2 -1 -4 -5q-4 -5 -12 -16t-12 -16l-4 -4q-6 -6 -6 -9l2 -4q9 -12 10 -13q8 -9 34 -44q2 -3 18 -43q5 -15 5 -21q0 -11 -6 -15q-11 -8 -15 -8q-3 0 -5 1q-3 1 -9.5 3.5t-12 4.5t-8.5 5q-16 16 -25 30q0 1 -1 2q-7 6 -14 24
t-15 24q-2 2 -5 6t-5.5 7t-4.5 3h-1q-6 -2 -17.5 -15t-23.5 -28.5t-16 -19.5q-18 -18 -44 -18h-4q-2 1 -10.5 3t-13 5t-5.5 8q-4 14 -4 26q0 18 12 26q26 17 50 51q3 5 10 11.5t8 8.5q1 1 1 3q0 4 -3 5q-11 6 -21.5 16.5t-15 16t-16.5 23.5t-13 19q-10 16 -10 28q0 14 11 22
q10 7 13 7l10 -2q8 -2 12 -7q4 -6 12.5 -16t12.5 -15q12 -17 28 -31q14 -12 19 -20t10 -8q4 0 9 5q5 4 16.5 12.5t20 15.5t14.5 15q37 47 77 64h1q1 1 2 1q5 0 11 -5.5t6 -10.5z" />
    <glyph glyph-name="Oslash" unicode="&#xd8;" horiz-adv-x="484" 
d="M298 653q-14 27 -45 35q-5 1 -16 2t-12 1t-3 1q-16 0 -27 -16q-31 -48 -43 -84q-5 -15 -11.5 -45t-9.5 -42q-10 -36 -11 -72q-4 -66 -4 -100v-35q0 -49 4 -88q6 -68 14 -102l3 -9q1 1 2 3.5t1 3.5q6 17 34 120q25 100 38 140q35 112 39 121q7 22 11 38q1 6 6.5 24.5
t14.5 50.5t15 53zM464 394v-7q0 -13 -6 -23q-3 -22 -3 -67q0 -34 1 -51q2 -40 2 -60q0 -32 -3 -64q-4 -41 -13 -67q-4 -12 -16 -52q-4 -16 -14 -32q-6 -22 -29 -30q-19 -7 -28 -17q-15 -16 -46 -18q-3 0 -9 -0.5t-9 -0.5q-41 0 -74 15q-7 3 -15 3h-3h-5q-14 0 -29 10
q-1 1 -2 1t-2 1q-1 -1 -1 -4t-1 -5q-1 -5 -15 -47q-3 -10 -11 -13v-1q0 -1 1 -1l2 -2q-6 -6 -12 -6q-5 0 -13 4q-25 13 -25 46q0 5 4 15q11 34 17 59q-2 2 -8 10q-1 0 -2 2l-1 2q-10 10 -15 20q-31 34 -41 76q-15 65 -19 118q0 7 -0.5 20t-1 24t-1.5 20q0 1 -0.5 3.5
t-0.5 3.5q0 4 2 10q5 21 5 62v10v11q0 17 3 26q1 2 1 8q0 5 -1 7q-5 16 -5 38q0 24 7 57q17 82 65 166q2 11 16 27q4 6 17.5 20t19.5 23q2 2 15 10q30 16 33 19q5 5 14 5h1q2 0 6 -0.5t6 -0.5q5 0 7 1h3q4 0 9 -4.5t8 -4.5h3q6 3 12 3q3 0 11 -2q23 -8 49 -24q7 24 8 27
q6 18 23 37q6 7 9 7t11 -10q5 -7 5 -18v-5q-2 -7 -4.5 -23.5t-3.5 -20.5q-1 -3 -3.5 -12.5t-3.5 -15.5q1 0 2 -1l2 -2q25 -25 29 -39q3 -8 10 -17q8 -12 13 -30q5 -19 18 -50q13 -30 13 -50q0 -10 3 -19q7 -19 7 -50v-12v-7q0 -27 2 -41zM342 374q-1 2 -1 6q0 2 0.5 5t0.5 5
q1 15 1 46q0 38 -6 63q-2 9 -6.5 26.5t-6.5 26.5q-19 -76 -22 -95l-9 -39q-4 -17 -12.5 -49t-12.5 -49q-30 -126 -55 -205q-4 -11 -11 -34t-11 -34q4 -2 13 -2q8 0 16 3t14 3q13 0 21 -12q3 -4 9 -4h3l9 6q20 30 31 69q22 79 30 164q1 5 1 14t1 13v2q0 8 1 11v1q1 1 1 2
q1 3 1 8.5v8.5v1q1 6 1 18q0 14 -1 21z" />
    <glyph glyph-name="Ugrave" unicode="&#xd9;" horiz-adv-x="636" 
d="M321 705q-14 8 -21 10q-21 6 -34 22q-14 17 -44 37q-19 13 -28 32q-2 6 -8 16.5t-8 15.5q-6 13 0 23q8 14 17 12q3 -1 18 -4t23 -7q31 -15 60 -57q7 -10 23.5 -35.5t26.5 -38.5q6 -8 7 -14q2 -8 -2.5 -13t-11.5 -5q-6 0 -18 6zM597 428q-5 -52 -9 -64q-1 -3 -1 -10v-3v-9
q0 -17 -11 -59q-1 -4 -4.5 -19.5t-6.5 -22.5q-1 -3 -8 -20t-9.5 -22.5t-9 -19.5t-11.5 -21t-12.5 -17t-16.5 -18q-17 -14 -32 -38q-12 -20 -31 -20q-11 0 -18 -6q-30 -22 -93 -30q-3 0 -13.5 -0.5t-16.5 -1.5q-16 -2 -22 -2q-43 0 -86 30l-9 6q-47 25 -84 94q-22 43 -37 99
q-1 3 -9.5 37t-11.5 52q-1 6 -5 19.5t-5 20.5q-7 42 -7 53q0 12 3 22q1 2 1 7q0 1 -0.5 2t-0.5 2q-3 18 -3 37q0 1 3 52v2q0 5 -2 12.5t-2 10.5q-7 42 -7 60q0 26 8 43q2 5 6 7.5t11.5 4.5t10.5 3q12 5 22 5q14 0 20 -11q3 -7 4 -16.5t1 -21t1 -17.5q4 -35 4 -79
q0 -29 -1 -45v-5v-30q0 -35 4 -64q5 -36 13 -60q2 -6 16.5 -57.5t24.5 -76.5q9 -23 15 -28q40 -38 81 -41h19q24 0 56 5q17 3 28 17q14 17 28 46l2.5 5t3 5.5t3.5 4.5q45 58 53 139q1 11 16 66q13 43 19 95q3 21 19 61q11 28 26 113q2 18 18 18q4 0 22 -2q54 -3 54 -30v-3
q0 -3 -6.5 -46.5t-6.5 -65.5q0 -11 1 -17q1 -8 1 -24q0 -11 -8 -96q0 -5 -2 -17z" />
    <glyph glyph-name="Uacute" unicode="&#xda;" horiz-adv-x="636" 
d="M290 699q-12 -6 -18 -6q-7 0 -11.5 5t-2.5 13q1 4 8 14q10 13 26 38.5t23 35.5q29 42 60 57q8 4 23 7t18 4q9 2 17 -12q6 -10 0 -23l-8 -16t-7 -16q-8 -18 -29 -32q-30 -20 -44 -37q-13 -16 -34 -22q-7 -2 -21 -10zM597 428q-5 -52 -9 -64q-1 -3 -1 -10v-3v-9
q0 -17 -11 -59q-1 -4 -4.5 -19.5t-6.5 -22.5q-1 -3 -8 -20t-9.5 -22.5t-9 -19.5t-11.5 -21t-12.5 -17t-16.5 -18q-17 -14 -32 -38q-12 -20 -31 -20q-11 0 -18 -6q-30 -22 -93 -30q-3 0 -13.5 -0.5t-16.5 -1.5q-16 -2 -22 -2q-43 0 -86 30l-9 6q-47 25 -84 94q-22 43 -37 99
q-1 3 -9.5 37t-11.5 52q-1 6 -5 19.5t-5 20.5q-7 42 -7 53q0 12 3 22q1 2 1 7q0 1 -0.5 2t-0.5 2q-3 18 -3 37q0 1 3 52v2q0 5 -2 12.5t-2 10.5q-7 42 -7 60q0 26 8 43q2 5 6 7.5t11.5 4.5t10.5 3q12 5 22 5q14 0 20 -11q3 -7 4 -16.5t1 -21t1 -17.5q4 -35 4 -79
q0 -29 -1 -45v-5v-30q0 -35 4 -64q5 -36 13 -60q2 -6 16.5 -57.5t24.5 -76.5q9 -23 15 -28q40 -38 81 -41h19q24 0 56 5q17 3 28 17q14 17 28 46l2.5 5t3 5.5t3.5 4.5q45 58 53 139q1 11 16 66q13 43 19 95q3 21 19 61q11 28 26 113q2 18 18 18q4 0 22 -2q54 -3 54 -30v-3
q0 -3 -6.5 -46.5t-6.5 -65.5q0 -11 1 -17q1 -8 1 -24q0 -11 -8 -96q0 -5 -2 -17z" />
    <glyph glyph-name="Ucircumflex" unicode="&#xdb;" horiz-adv-x="636" 
d="M192 740h-5q-23 0 -28 25q0 1 -0.5 2.5t-0.5 2.5q0 13 23 28q11 7 26.5 20.5t17.5 14.5q14 11 36 25.5t30 20.5q21 15 49 22q4 1 13 1q24 0 48 -21q10 -9 33 -43q11 -17 13 -49v-3q0 -3 -6 -33q-2 -10 -2 -14t1 -6v-4q0 -10 -12 -13q-10 -2 -14 -2q-13 0 -27 6q-5 2 -9 6
t-9 10.5t-7 9.5q-35 40 -53 50q-8 4 -11 4q-5 0 -11 -3q-10 -5 -31 -22t-30 -22q-19 -11 -34 -13zM597 428q-5 -52 -9 -64q-1 -3 -1 -10v-3v-9q0 -17 -11 -59q-1 -4 -4.5 -19.5t-6.5 -22.5q-1 -3 -8 -20t-9.5 -22.5t-9 -19.5t-11.5 -21t-12.5 -17t-16.5 -18q-17 -14 -32 -38
q-12 -20 -31 -20q-11 0 -18 -6q-30 -22 -93 -30q-3 0 -13.5 -0.5t-16.5 -1.5q-16 -2 -22 -2q-43 0 -86 30l-9 6q-47 25 -84 94q-22 43 -37 99q-1 3 -9.5 37t-11.5 52q-1 6 -5 19.5t-5 20.5q-7 42 -7 53q0 12 3 22q1 2 1 7q0 1 -0.5 2t-0.5 2q-3 18 -3 37q0 1 3 52v2
q0 5 -2 12.5t-2 10.5q-7 42 -7 60q0 26 8 43q2 5 6 7.5t11.5 4.5t10.5 3q12 5 22 5q14 0 20 -11q3 -7 4 -16.5t1 -21t1 -17.5q4 -35 4 -79q0 -29 -1 -45v-5v-30q0 -35 4 -64q5 -36 13 -60q2 -6 16.5 -57.5t24.5 -76.5q9 -23 15 -28q40 -38 81 -41h19q24 0 56 5q17 3 28 17
q14 17 28 46l2.5 5t3 5.5t3.5 4.5q45 58 53 139q1 11 16 66q13 43 19 95q3 21 19 61q11 28 26 113q2 18 18 18q4 0 22 -2q54 -3 54 -30v-3q0 -3 -6.5 -46.5t-6.5 -65.5q0 -11 1 -17q1 -8 1 -24q0 -11 -8 -96q0 -5 -2 -17z" />
    <glyph glyph-name="Udieresis" unicode="&#xdc;" horiz-adv-x="636" 
d="M370 714q-6 -3 -12 -3q-12 0 -20.5 10t-8.5 23q0 15 11 26q21 21 34 21q11 0 25 -10q15 -10 15 -25q0 -11 -8 -17q-24 -19 -36 -25zM232 728h-1q-7 0 -21 6q-13 6 -13 25q0 8 4 16q6 11 20 20t25 9h5q34 -8 34 -33q0 -16 -15 -29t-38 -14zM597 428q-5 -52 -9 -64
q-1 -3 -1 -10v-3v-9q0 -17 -11 -59q-1 -4 -4.5 -19.5t-6.5 -22.5q-1 -3 -8 -20t-9.5 -22.5t-9 -19.5t-11.5 -21t-12.5 -17t-16.5 -18q-17 -14 -32 -38q-12 -20 -31 -20q-11 0 -18 -6q-30 -22 -93 -30q-3 0 -13.5 -0.5t-16.5 -1.5q-16 -2 -22 -2q-43 0 -86 30l-9 6
q-47 25 -84 94q-22 43 -37 99q-1 3 -9.5 37t-11.5 52q-1 6 -5 19.5t-5 20.5q-7 42 -7 53q0 12 3 22q1 2 1 7q0 1 -0.5 2t-0.5 2q-3 18 -3 37q0 1 3 52v2q0 5 -2 12.5t-2 10.5q-7 42 -7 60q0 26 8 43q2 5 6 7.5t11.5 4.5t10.5 3q12 5 22 5q14 0 20 -11q3 -7 4 -16.5t1 -21
t1 -17.5q4 -35 4 -79q0 -29 -1 -45v-5v-30q0 -35 4 -64q5 -36 13 -60q2 -6 16.5 -57.5t24.5 -76.5q9 -23 15 -28q40 -38 81 -41h19q24 0 56 5q17 3 28 17q14 17 28 46l2.5 5t3 5.5t3.5 4.5q45 58 53 139q1 11 16 66q13 43 19 95q3 21 19 61q11 28 26 113q2 18 18 18
q4 0 22 -2q54 -3 54 -30v-3q0 -3 -6.5 -46.5t-6.5 -65.5q0 -11 1 -17q1 -8 1 -24q0 -11 -8 -96q0 -5 -2 -17z" />
    <glyph glyph-name="Yacute" unicode="&#xdd;" horiz-adv-x="414" 
d="M197 717q-12 -6 -18 -6q-7 0 -11.5 5t-2.5 13q1 4 8 14q10 13 26 38.5t23 35.5q29 42 60 57q8 4 23 7t18 4q9 2 17 -12q6 -10 0 -23l-8 -16t-7 -16q-8 -18 -29 -32q-30 -20 -44 -37q-13 -16 -34 -22q-7 -2 -21 -10zM70 490q-43 78 -52 92q-2 3 -9 14.5t-10 16.5
t-8.5 15.5t-7.5 17.5t-4.5 16t-2.5 18q0 16 39 33q7 3 13 3q14 0 23 -9q2 -2 4 -6.5t3 -5.5q25 -51 33 -65q7 -11 46 -79q12 -19 34 -57.5t33 -57.5q28 -48 43 -70q9 27 10 41q0 1 8 25q2 5 2 13v3q0 19 7 40q6 22 18 63.5t17 60.5q19 67 28 116q3 10 15 10q5 0 15.5 -2
t14.5 -2q11 -1 19 -7q11 -11 11 -30q0 -8 -1 -12q-1 -7 -4 -18.5t-3 -13.5t-1.5 -7t-1.5 -7v-1l1 -1v-2q0 -8 -4 -18q-14 -29 -23 -84q0 -2 -6 -72q-1 -11 -1 -33q0 -27 -1 -40q-2 -32 -9 -55q4 -7 4 -16q0 -5 -2 -17q-1 -9 -6 -22.5t-6 -17.5q-5 -19 -24 -72
q-11 -38 -16 -84v-14v-5q0 -1 -6 -58q0 -4 -0.5 -11t-1.5 -10q0 -3 -2 -25.5t-4 -36t-6.5 -30.5t-10.5 -24q-6 -8 -19 -9.5t-14 -10.5q-1 -5 -6 -5q-1 0 -4 0.5t-5 0.5t-8 -2q-6 -3 -10 -3q-5 0 -16 -3t-18 -4q-1 0 -3 -0.5t-3 -0.5q-15 0 -25 7.5t-10 18.5v1l3 54q1 6 9 32
q4 8 15 54q4 16 10 46q9 45 9 56q0 2 6 62q0 6 2 12.5t4 12t3 8.5q2 6 5.5 16t4.5 14q1 2 1 5v1q-10 8 -32 44q-3 5 -15 24t-18 30q-1 3 -13.5 24.5t-17.5 33.5q-12 27 -42 81z" />
    <glyph glyph-name="Thorn" unicode="&#xde;" horiz-adv-x="453" 
d="M137 594h9q14 0 39 -2t33 -2q37 -2 87 -32q14 -9 24 -27q8 -13 25 -36t23 -32l3 -3t2 -3q37 -61 49 -110q2 -7 2 -22v-9v-40v-18v-1q0 -13 -11 -21q-24 -19 -57 -29q-40 -11 -80 -44q-33 -28 -65 -33q-4 -1 -14.5 -4.5t-15.5 -4.5q-20 -11 -41 -11v0q-28 0 -28 -28v-8
q0 -20 4 -62q5 -68 5 -81q0 -9 -6 -15q-7 -7 -22 -21q-4 -3 -10 -3h-3q-33 4 -53 31q-10 13 -10 32q-9 19 -9 40q0 1 0.5 3.5t0.5 3.5q2 48 2 73v19v9q-2 30 -2 45q0 35 4 63q0 1 0.5 3t0.5 3v1v7q0 12 2 35.5t2 35.5q0 8 1 23t1 23q0 2 -0.5 7t-0.5 7q-2 19 -2 57v29v28
q0 7 -0.5 21.5t-0.5 21.5q0 27 1 40q2 17 2 49v35v1q0 44 4 80q0 2 0.5 4t0.5 4q0 16 -10 33q-4 5 -4 13t11 21q9 10 21 10q5 0 8 -1q11 -2 14 -12q9 -27 11 -35q13 -57 14 -62q0 -7 2 -10q5 -10 8 -22.5t5.5 -27.5t4.5 -23q4 -16 18 -16h1zM184 473h-3q-7 0 -19 -1.5
t-19 -1.5q-10 0 -12.5 -2t-3.5 -12q-1 -8 -1 -25q0 -11 1 -33.5t1 -33.5q0 -10 1.5 -32t1.5 -32v-1v-2q0 -10 1.5 -29.5t1.5 -29.5q0 -2 -0.5 -6.5t-0.5 -6.5v-1q0 -11 9 -11l1 1h2q39 13 44 17q48 39 61 54q27 32 33 72v4v7v18v7q1 2 1 7q0 4 -0.5 7.5t-1.5 8t-1 7.5
q0 1 -0.5 4t-0.5 4.5t-1 3t-3 2.5t-5 1t-8 8q-7 8 -16 10q-4 1 -8.5 2.5t-10 3.5t-8.5 3q-20 7 -36 8z" />
    <glyph glyph-name="germandbls" unicode="&#xdf;" horiz-adv-x="606" 
d="M66 731q12 15 30 15h1h13q22 0 66 4q26 2 38 2q14 0 40 -2q21 -1 57 -15q66 -25 114 -69q28 -26 40 -55q8 -17 8 -40q0 -13 -3 -25q-2 -10 -4 -31t-4 -31q-7 -38 -36 -53q-16 -8 -22 -13q-21 -17 -53 -34q-20 -10 -24 -11q-13 -3 -15 -16q0 -1 -0.5 -1t-0.5 -1
q0 -11 15 -17q14 -5 37.5 -16.5t27.5 -13.5q87 -40 132 -94q34 -42 40 -53q11 -20 11 -35q1 -19 10 -42q7 -18 7 -40v-8q-5 -60 -7 -73q-5 -24 -20 -39q-5 -5 -26 -27t-33 -33q-32 -29 -69 -29q-12 0 -25 3q-101 25 -166 93q-4 4 -11.5 10.5t-10.5 9.5q-38 36 -43 80
q0 2 -2 6q-5 7 -6.5 15t-2 19.5t-0.5 15.5v2q0 14 11.5 28.5t25.5 18.5h2.5t2.5 1q7 4 14 4q11 0 22 -14q32 -42 46 -79q15 -38 29 -56q16 -20 49 -25h4q10 0 16 7q2 2 9.5 10.5t10 11.5t8.5 11t8.5 13l6 12t5.5 14q1 2 4.5 11t3.5 14v1v7q0 5 0.5 16t0.5 17q0 11 -1 17
q-5 36 -40 67q-25 23 -63 39q-72 33 -115 61q-17 12 -20 15q-12 11 -12 27v2v3q0 2 -0.5 6t-0.5 6q0 8 4 15q9 15 24 24q53 31 70 44q22 18 31 29q17 22 20 45q6 38 6 59q0 12 -1 18q-5 42 -39 57q-36 17 -76 18q-69 3 -75 4h-4h-5q-11 -2 -11 -12v-4q4 -20 4 -29
q0 -6 -2 -18v-3v-3q3 -12 3 -25q0 -5 -0.5 -14.5t-0.5 -14.5v-1q0 -9 0.5 -27t0.5 -27v-15q-1 -12 -1 -36q0 -11 0.5 -32.5t0.5 -32.5q0 -4 -0.5 -11t-0.5 -11q0 -19 -4 -32q-12 -40 -12 -92q0 -4 0.5 -10t0.5 -10v-11q0 -24 -7 -45q-5 -15 -5 -28l1 -1v-1v-6
q0 -6 -0.5 -17.5t-0.5 -16.5q0 -3 0.5 -9t0.5 -9v-2q0 -5 -2 -13q-2 -13 -2 -38q0 -16 -2 -45.5t-2 -38.5q0 -11 -5 -15q-29 -23 -51 -24h-2q-14 0 -21 12q-11 18 -12 34q-3 24 -3 43q0 2 0.5 6t0.5 5q1 52 3 138v5v31v15q3 38 11 89q6 36 6 72q0 16 0.5 49t0.5 49v2v40
q0 29 -1 44q-2 18 -2 26q0 10 1 30.5t1 30.5q0 5 5 35q4 22 4 34q0 24 20 53z" />
    <glyph glyph-name="agrave" unicode="&#xe0;" horiz-adv-x="392" 
d="M184 786q-14 8 -21 10q-21 6 -34 22q-14 17 -44 37q-19 13 -28 32q-2 6 -8 16.5t-8 15.5q-6 13 0 23q8 14 17 12q3 -1 18 -4t23 -7q31 -15 60 -57q7 -10 23.5 -35.5t26.5 -38.5q6 -8 7 -14q2 -8 -2.5 -13t-11.5 -5q-6 0 -18 6zM256 237q10 2 10 13v3q0 3 -2 11t-2 13v4v5
q0 12 -1 18q-6 42 -8 59q-11 123 -20 171q-1 5 -3.5 16t-3.5 17q-2 9 -6 9h-1q-3 0 -5 -9q0 -5 -2 -15.5t-2 -15.5q-3 -29 -12 -81t-11 -67q-1 -9 -4 -25.5t-5 -30t-3 -25.5q0 -1 -0.5 -2.5t-0.5 -2.5q0 -2 0.5 -7t0.5 -7q0 -6 -2 -14q-2 -10 -3 -28.5t-2 -26.5v-4
q0 -10 9 -10q1 0 2 0.5t2 0.5q18 6 26 9q5 2 22 11t27 11zM343 203q3 -27 15 -76t15 -70q2 -10 2 -16q0 -12 -12 -17q-3 -2 -3 -10q-1 -13 -9 -39q-5 -14 -18 -14h-2q-13 0 -20 13q-10 22 -15 49q-13 79 -17 110q-2 14 -12 14q-5 0 -8 -2q-46 -23 -61 -25q-4 0 -13.5 -2
t-14.5 -3q-16 -3 -20 -20q-27 -113 -36 -134q-1 -4 -4 -4q-1 0 -5 1.5t-7 1.5q-2 0 -6 -2q-26 -4 -36 -4q-20 0 -33 10q-7 6 -7 14v2q0 21 -4 37q-1 3 -1 9q0 3 2 11q2 7 16 82q4 22 13 66.5t14 66.5q5 24 18.5 68t18.5 65q6 27 21.5 78.5t21.5 75.5q18 86 31 127
q10 34 28 65q6 10 15 10q3 0 5 -1q1 -1 10.5 -2.5t14.5 -5.5q14 -11 19 -33q25 -105 27 -112q1 -5 9.5 -48.5t16.5 -75.5q0 -3 3.5 -17.5t3.5 -22.5q0 -1 -0.5 -3t-0.5 -3q0 -2 3.5 -41t5.5 -59q2 -19 8 -57t8 -57z" />
    <glyph glyph-name="aacute" unicode="&#xe1;" horiz-adv-x="392" 
d="M214 777q-12 -6 -18 -6q-7 0 -11.5 5t-2.5 13q1 4 8 14q10 13 26 38.5t23 35.5q29 42 60 57q8 4 23 7t18 4q9 2 17 -12q6 -10 0 -23l-8 -16t-7 -16q-8 -18 -29 -32q-30 -20 -44 -37q-13 -16 -34 -22q-7 -2 -21 -10zM256 237q10 2 10 13v3q0 3 -2 11t-2 13v4v5q0 12 -1 18
q-6 42 -8 59q-11 123 -20 171q-1 5 -3.5 16t-3.5 17q-2 9 -6 9h-1q-3 0 -5 -9q0 -5 -2 -15.5t-2 -15.5q-3 -29 -12 -81t-11 -67q-1 -9 -4 -25.5t-5 -30t-3 -25.5q0 -1 -0.5 -2.5t-0.5 -2.5q0 -2 0.5 -7t0.5 -7q0 -6 -2 -14q-2 -10 -3 -28.5t-2 -26.5v-4q0 -10 9 -10
q1 0 2 0.5t2 0.5q18 6 26 9q5 2 22 11t27 11zM343 203q3 -27 15 -76t15 -70q2 -10 2 -16q0 -12 -12 -17q-3 -2 -3 -10q-1 -13 -9 -39q-5 -14 -18 -14h-2q-13 0 -20 13q-10 22 -15 49q-13 79 -17 110q-2 14 -12 14q-5 0 -8 -2q-46 -23 -61 -25q-4 0 -13.5 -2t-14.5 -3
q-16 -3 -20 -20q-27 -113 -36 -134q-1 -4 -4 -4q-1 0 -5 1.5t-7 1.5q-2 0 -6 -2q-26 -4 -36 -4q-20 0 -33 10q-7 6 -7 14v2q0 21 -4 37q-1 3 -1 9q0 3 2 11q2 7 16 82q4 22 13 66.5t14 66.5q5 24 18.5 68t18.5 65q6 27 21.5 78.5t21.5 75.5q18 86 31 127q10 34 28 65
q6 10 15 10q3 0 5 -1q1 -1 10.5 -2.5t14.5 -5.5q14 -11 19 -33q25 -105 27 -112q1 -5 9.5 -48.5t16.5 -75.5q0 -3 3.5 -17.5t3.5 -22.5q0 -1 -0.5 -3t-0.5 -3q0 -2 3.5 -41t5.5 -59q2 -19 8 -57t8 -57z" />
    <glyph glyph-name="acircumflex" unicode="&#xe2;" horiz-adv-x="392" 
d="M107 760h-5q-23 0 -28 25q0 1 -0.5 2.5t-0.5 2.5q0 13 23 28q11 7 26.5 20.5t17.5 14.5q14 11 36 25.5t30 20.5q21 15 49 22q4 1 13 1q24 0 48 -21q10 -9 33 -43q11 -17 13 -49v-3q0 -3 -6 -33q-2 -10 -2 -14t1 -6v-4q0 -10 -12 -13q-10 -2 -14 -2q-13 0 -27 6q-5 2 -9 6
t-9 10.5t-7 9.5q-35 40 -53 50q-8 4 -11 4q-5 0 -11 -3q-10 -5 -31 -22t-30 -22q-19 -11 -34 -13zM256 237q10 2 10 13v3q0 3 -2 11t-2 13v4v5q0 12 -1 18q-6 42 -8 59q-11 123 -20 171q-1 5 -3.5 16t-3.5 17q-2 9 -6 9h-1q-3 0 -5 -9q0 -5 -2 -15.5t-2 -15.5
q-3 -29 -12 -81t-11 -67q-1 -9 -4 -25.5t-5 -30t-3 -25.5q0 -1 -0.5 -2.5t-0.5 -2.5q0 -2 0.5 -7t0.5 -7q0 -6 -2 -14q-2 -10 -3 -28.5t-2 -26.5v-4q0 -10 9 -10q1 0 2 0.5t2 0.5q18 6 26 9q5 2 22 11t27 11zM343 203q3 -27 15 -76t15 -70q2 -10 2 -16q0 -12 -12 -17
q-3 -2 -3 -10q-1 -13 -9 -39q-5 -14 -18 -14h-2q-13 0 -20 13q-10 22 -15 49q-13 79 -17 110q-2 14 -12 14q-5 0 -8 -2q-46 -23 -61 -25q-4 0 -13.5 -2t-14.5 -3q-16 -3 -20 -20q-27 -113 -36 -134q-1 -4 -4 -4q-1 0 -5 1.5t-7 1.5q-2 0 -6 -2q-26 -4 -36 -4q-20 0 -33 10
q-7 6 -7 14v2q0 21 -4 37q-1 3 -1 9q0 3 2 11q2 7 16 82q4 22 13 66.5t14 66.5q5 24 18.5 68t18.5 65q6 27 21.5 78.5t21.5 75.5q18 86 31 127q10 34 28 65q6 10 15 10q3 0 5 -1q1 -1 10.5 -2.5t14.5 -5.5q14 -11 19 -33q25 -105 27 -112q1 -5 9.5 -48.5t16.5 -75.5
q0 -3 3.5 -17.5t3.5 -22.5q0 -1 -0.5 -3t-0.5 -3q0 -2 3.5 -41t5.5 -59q2 -19 8 -57t8 -57z" />
    <glyph glyph-name="atilde" unicode="&#xe3;" horiz-adv-x="392" 
d="M118 791q-8 -5 -15 -5q-12 0 -18 14q-5 10 -5 25q0 7 1 10q6 22 8 34q1 8 10 13q28 16 45 19q5 1 16 1q12 0 23 -4q1 -1 15.5 -6t21.5 -9q14 -8 26 -8q14 0 28 9q20 13 43 14q1 0 2 0.5t2 0.5q9 0 16 -6q22 -17 30 -38q2 -6 2 -10q0 -8 -3 -15q-8 -26 -43 -43
q-18 -9 -81 -16q-35 2 -49 15q-9 8 -40 19q-2 1 -7 1q-8 0 -13 -4q-3 -1 -8 -5t-7 -6zM256 237q10 2 10 13v3q0 3 -2 11t-2 13v4v5q0 12 -1 18q-6 42 -8 59q-11 123 -20 171q-1 5 -3.5 16t-3.5 17q-2 9 -6 9h-1q-3 0 -5 -9q0 -5 -2 -15.5t-2 -15.5q-3 -29 -12 -81t-11 -67
q-1 -9 -4 -25.5t-5 -30t-3 -25.5q0 -1 -0.5 -2.5t-0.5 -2.5q0 -2 0.5 -7t0.5 -7q0 -6 -2 -14q-2 -10 -3 -28.5t-2 -26.5v-4q0 -10 9 -10q1 0 2 0.5t2 0.5q18 6 26 9q5 2 22 11t27 11zM343 203q3 -27 15 -76t15 -70q2 -10 2 -16q0 -12 -12 -17q-3 -2 -3 -10q-1 -13 -9 -39
q-5 -14 -18 -14h-2q-13 0 -20 13q-10 22 -15 49q-13 79 -17 110q-2 14 -12 14q-5 0 -8 -2q-46 -23 -61 -25q-4 0 -13.5 -2t-14.5 -3q-16 -3 -20 -20q-27 -113 -36 -134q-1 -4 -4 -4q-1 0 -5 1.5t-7 1.5q-2 0 -6 -2q-26 -4 -36 -4q-20 0 -33 10q-7 6 -7 14v2q0 21 -4 37
q-1 3 -1 9q0 3 2 11q2 7 16 82q4 22 13 66.5t14 66.5q5 24 18.5 68t18.5 65q6 27 21.5 78.5t21.5 75.5q18 86 31 127q10 34 28 65q6 10 15 10q3 0 5 -1q1 -1 10.5 -2.5t14.5 -5.5q14 -11 19 -33q25 -105 27 -112q1 -5 9.5 -48.5t16.5 -75.5q0 -3 3.5 -17.5t3.5 -22.5
q0 -1 -0.5 -3t-0.5 -3q0 -2 3.5 -41t5.5 -59q2 -19 8 -57t8 -57z" />
    <glyph glyph-name="adieresis" unicode="&#xe4;" horiz-adv-x="392" 
d="M291 759q-6 -3 -12 -3q-12 0 -20.5 10t-8.5 23q0 15 11 26q21 21 34 21q11 0 25 -10q15 -10 15 -25q0 -11 -8 -17q-24 -19 -36 -25zM153 773h-1q-7 0 -21 6q-13 6 -13 25q0 8 4 16q6 11 20 20t25 9h5q34 -8 34 -33q0 -16 -15 -29t-38 -14zM256 237q10 2 10 13v3
q0 3 -2 11t-2 13v4v5q0 12 -1 18q-6 42 -8 59q-11 123 -20 171q-1 5 -3.5 16t-3.5 17q-2 9 -6 9h-1q-3 0 -5 -9q0 -5 -2 -15.5t-2 -15.5q-3 -29 -12 -81t-11 -67q-1 -9 -4 -25.5t-5 -30t-3 -25.5q0 -1 -0.5 -2.5t-0.5 -2.5q0 -2 0.5 -7t0.5 -7q0 -6 -2 -14q-2 -10 -3 -28.5
t-2 -26.5v-4q0 -10 9 -10q1 0 2 0.5t2 0.5q18 6 26 9q5 2 22 11t27 11zM343 203q3 -27 15 -76t15 -70q2 -10 2 -16q0 -12 -12 -17q-3 -2 -3 -10q-1 -13 -9 -39q-5 -14 -18 -14h-2q-13 0 -20 13q-10 22 -15 49q-13 79 -17 110q-2 14 -12 14q-5 0 -8 -2q-46 -23 -61 -25
q-4 0 -13.5 -2t-14.5 -3q-16 -3 -20 -20q-27 -113 -36 -134q-1 -4 -4 -4q-1 0 -5 1.5t-7 1.5q-2 0 -6 -2q-26 -4 -36 -4q-20 0 -33 10q-7 6 -7 14v2q0 21 -4 37q-1 3 -1 9q0 3 2 11q2 7 16 82q4 22 13 66.5t14 66.5q5 24 18.5 68t18.5 65q6 27 21.5 78.5t21.5 75.5
q18 86 31 127q10 34 28 65q6 10 15 10q3 0 5 -1q1 -1 10.5 -2.5t14.5 -5.5q14 -11 19 -33q25 -105 27 -112q1 -5 9.5 -48.5t16.5 -75.5q0 -3 3.5 -17.5t3.5 -22.5q0 -1 -0.5 -3t-0.5 -3q0 -2 3.5 -41t5.5 -59q2 -19 8 -57t8 -57z" />
    <glyph glyph-name="aring" unicode="&#xe5;" horiz-adv-x="392" 
d="M243 896l-1 1h-2q-3 0 -11 -3t-16 -14l-3 -5q-1 -1 -3 -4q-1 -2 -3.5 -5.5t-3.5 -4.5q-1 -4 -2 -4h-1v-4q0 -14 2 -17q1 -1 1.5 -2t1 -2.5t1.5 -2.5q4 -6 14 -7q10 -2 14 -2h3q10 4 17.5 19t7.5 31q0 22 -16 26zM249 749q-10 -5 -33 -5h-3q-6 2 -8 2h-2h-1q-6 0 -14 4
l-8 4q-1 0 -1.5 1.5t-2 4.5t-4.5 7q-15 20 -23 44q-5 18 -5 34v3q0 7 7 21q11 22 17 30q9 12 13 15q9 7 15 16q2 3 14 12q1 1 4.5 5t6.5 5q20 7 41 7q14 0 27 -5q29 -13 32 -54q1 -9 1 -25q0 -23 -5 -46q-12 -57 -68 -80zM256 237q10 2 10 13v3q0 3 -2 11t-2 13v4v5
q0 12 -1 18q-6 42 -8 59q-11 123 -20 171q-1 5 -3.5 16t-3.5 17q-2 9 -6 9h-1q-3 0 -5 -9q0 -5 -2 -15.5t-2 -15.5q-3 -29 -12 -81t-11 -67q-1 -9 -4 -25.5t-5 -30t-3 -25.5q0 -1 -0.5 -2.5t-0.5 -2.5q0 -2 0.5 -7t0.5 -7q0 -6 -2 -14q-2 -10 -3 -28.5t-2 -26.5v-4
q0 -10 9 -10q1 0 2 0.5t2 0.5q18 6 26 9q5 2 22 11t27 11zM343 203q3 -27 15 -76t15 -70q2 -10 2 -16q0 -12 -12 -17q-3 -2 -3 -10q-1 -13 -9 -39q-5 -14 -18 -14h-2q-13 0 -20 13q-10 22 -15 49q-13 79 -17 110q-2 14 -12 14q-5 0 -8 -2q-46 -23 -61 -25q-4 0 -13.5 -2
t-14.5 -3q-16 -3 -20 -20q-27 -113 -36 -134q-1 -4 -4 -4q-1 0 -5 1.5t-7 1.5q-2 0 -6 -2q-26 -4 -36 -4q-20 0 -33 10q-7 6 -7 14v2q0 21 -4 37q-1 3 -1 9q0 3 2 11q2 7 16 82q4 22 13 66.5t14 66.5q5 24 18.5 68t18.5 65q6 27 21.5 78.5t21.5 75.5q18 86 31 127
q10 34 28 65q6 10 15 10q3 0 5 -1q1 -1 10.5 -2.5t14.5 -5.5q14 -11 19 -33q25 -105 27 -112q1 -5 9.5 -48.5t16.5 -75.5q0 -3 3.5 -17.5t3.5 -22.5q0 -1 -0.5 -3t-0.5 -3q0 -2 3.5 -41t5.5 -59q2 -19 8 -57t8 -57z" />
    <glyph glyph-name="ae" unicode="&#xe6;" horiz-adv-x="602" 
d="M265 245q0 3 -0.5 8.5t-0.5 8.5q-2 10 -2 15v4v1v9.5t-1 10.5v2q-6 42 -8 59q-11 123 -20 171q-1 5 -3.5 16t-3.5 17q-2 9 -6 9h-1q-3 0 -5 -9q0 -5 -2 -15.5t-2 -15.5q-3 -29 -12 -81t-11 -67q-1 -9 -4 -25.5t-5 -30t-3 -25.5q0 -1 -0.5 -2.5t-0.5 -2.5q0 -2 0.5 -7
t0.5 -7q0 -6 -2 -14q-2 -10 -3 -28.5t-2 -26.5v-4q0 -10 9 -10q1 0 2 0.5t2 0.5q18 6 26 9q5 2 22 11t27 11q7 1 9 8zM415 745q9 1 28 1q35 0 59 -6q7 -2 14 -3.5t14 -3.5q20 -4 27.5 -7t14 -10.5t6.5 -21.5q0 -12 -1 -19q-3 -18 -8 -23t-16 -5h-7h-9q-11 -1 -32 -1
q-23 0 -34 2q-69 11 -75 11h-5q-8 0 -38 -7q-13 -3 -13 -17v-3q4 -55 7 -79q3 -26 11.5 -83.5t11.5 -87.5q2 -18 3 -49.5t2 -41.5q1 -15 16 -18q5 -1 15 -1q24 0 41 8q16 6 24 6q11 0 18 -5q31 -22 32 -44v-4v-9q0 -9 1 -13q0 -1 0.5 -1t0.5 -1q0 -4 -4 -7.5t-12.5 -7.5
t-10.5 -5q-23 -15 -59 -26q-16 -4 -23 -4q-9 0 -14 2q-4 2 -7 2q-2 0 -4 -1.5t-3 -1.5q0 -1 -2 -3.5t-2 -4.5q-3 -63 -3 -64q0 -18 3 -38q1 -8 2.5 -11.5t4.5 -5.5t10 -2h2q18 0 54 6q56 9 59 9q18 2 28 9q8 5 14 5q4 0 25 -8q7 -3 7 -11q0 -2 -2 -6q-4 -8 -5.5 -24
t-2.5 -21l-1 -1h1q1 -3 1 -9t-2.5 -11t-8 -12.5t-6.5 -9.5q-18 -28 -54 -36q-8 -1 -24 -7t-24 -7q-3 0 -7 -4q-4 -5 -10.5 -7.5t-9.5 -3.5t-12.5 -2t-10.5 -1q-5 -1 -16.5 -1t-18.5 -2q-1 0 -2 -0.5t-2 -0.5q-3 0 -9 2q-18 5 -32 5h-1q-3 0 -13 -1t-15 -1q-16 0 -20 7
q-6 13 -6 30q0 7 1 20t1 19v1q0 3 -1.5 7t-1.5 7l-3 120v17v22v16q-1 0 -2 0.5t-2 0.5q-5 0 -8 -2q-46 -23 -61 -25q-4 0 -13.5 -2t-14.5 -3q-16 -3 -20 -20q-27 -113 -36 -134q-1 -4 -4 -4q-1 0 -5 1.5t-7 1.5q-2 0 -6 -2q-26 -4 -36 -4q-20 0 -33 10q-7 6 -7 14v2
q0 21 -4 37q-1 3 -1 9q0 3 2 11q2 7 16 82q4 22 13 66.5t14 66.5q5 24 18 68t18 65q6 27 22 78t22 76q18 86 31 127q10 34 28 65q6 10 15 10q3 0 5 -1q1 -1 10.5 -2.5t14.5 -5.5q5 -3 8 -8v1q1 1 1 2q7 14 29 14h18h12q8 1 28 3t31 4q1 0 2.5 0.5t2.5 0.5q3 0 5 -1
q12 -5 20 -5q6 0 18 2z" />
    <glyph glyph-name="ccedilla" unicode="&#xe7;" horiz-adv-x="428" 
d="M117 -153q-14 0 -14 13v4q1 4 8 14q10 13 26.5 38.5t23.5 35.5q21 30 38 44q-59 38 -100 89q-5 6 -17 18q-41 41 -56 100q-9 37 -9 76q0 20 4 60v8v6v4q3 104 40 183q3 11 9 20q2 9 7 16q2 10 7 17v1q0 5 3 6q4 12 16 26q3 2 7 8.5t5 7.5q5 14 26 35q19 19 44 33
q24 14 37 20q25 13 55 13h17q32 0 49 -1q1 0 3 -0.5t3 -0.5q21 -2 24 -14q1 -2 1 -7q0 -10 -10 -20q-12 -12 -16 -14q-16 -8 -44 -28q-15 -11 -76 -45q-23 -12 -34 -35q-42 -78 -54 -168q0 -2 -2 -6q-3 -30 -3 -31v-17q0 -67 19 -114q0 -1 2 -2.5t2 -2.5q2 -3 5.5 -9.5
t5.5 -9.5q13 -21 26 -26q12 -5 23 -21q7 -9 40 -33q6 -5 18 -5q3 0 9 0.5t9 0.5h17q5 0 17 -2h6h7q10 2 14 2q22 0 43 -25q11 -13 11 -22q0 -6 -3 -12q-2 -4 -2 -6q0 -1 0.5 -2.5t0.5 -2.5q1 -3 1 -8q0 -12 -8 -32q-6 -16 -23 -21q-36 -9 -47 -15q-3 -2 -10 -2q-6 0 -8 1
q-10 2 -15 2q-2 0 -17 -3l-15 -33q-8 -18 -28 -31q-11 -16 -37 -46q-16 -19 -36 -25q-15 -4 -31 -4h-7h-7z" />
    <glyph glyph-name="egrave" unicode="&#xe8;" horiz-adv-x="374" 
d="M179 786q-14 8 -21 10q-21 6 -34 22q-14 17 -44 37q-19 13 -28 32q-2 6 -8 16.5t-8 15.5q-6 13 0 23q8 14 17 12q3 -1 18 -4t23 -7q31 -15 60 -57q7 -10 23.5 -35.5t26.5 -38.5q6 -8 7 -14q2 -8 -2.5 -13t-11.5 -5q-6 0 -18 6zM187 748q9 1 28 1q31 0 59 -7l28 -6
q20 -4 27.5 -7t14 -10.5t6.5 -21.5q0 -5 -2 -19q-3 -18 -7.5 -23t-15.5 -5h-8h-9q-11 -1 -32 -1q-22 0 -33 2q-63 10 -75 10h-5q-12 0 -38 -6q-13 -3 -13 -18v-2q4 -55 7 -79q3 -25 11 -82.5t11 -88.5q0 -4 6 -91q1 -15 16 -18q5 -1 15 -1q24 0 41 8q16 6 24 6q11 0 18 -5
q31 -22 32 -44v-4v-9q0 -9 1 -13v-2q0 -5 -3.5 -8t-12 -7t-10.5 -5q-23 -15 -59 -26q-16 -4 -23 -4q-9 0 -14 2q-2 1 -7 1q-2 0 -8 -2l-3 -9q0 -7 -1 -20t-1.5 -23.5t-0.5 -19.5q0 -26 2 -39q1 -11 4.5 -14.5t13.5 -3.5h1q19 0 55 6q56 9 59 9q18 2 28 9q8 5 14 5q4 0 25 -8
q7 -3 7 -11q0 -2 -2 -6q-4 -8 -5.5 -24t-2.5 -21l-1 -1q2 -6 2 -9q0 -6 -2.5 -11t-8 -12.5t-6.5 -9.5q-18 -28 -54 -36q-8 -1 -24.5 -7t-24.5 -7q-2 0 -6 -4q-4 -5 -10.5 -7.5t-9.5 -3.5t-12.5 -2t-10.5 -1q-5 -1 -16.5 -1t-18.5 -2q-1 0 -2 -0.5t-2 -0.5q-3 0 -9 2
q-18 5 -32 5h-1q-3 0 -13 -1t-15 -1q-16 0 -20 6q-6 13 -6 31q0 6 1 19t1 20q0 3 -1.5 8t-1.5 7l-3 120v17v22q0 31 -4 56q-1 3 -1 10q0 3 0.5 9.5t0.5 9.5v5q-2 19 -5 59t-4 60v2q0 4 1 11t1 10v1l-1 2q-2 21 -2 63v19v29v15q0 3 -0.5 9t-0.5 9q0 6 0.5 20t0.5 20l1 1v2
q0 12 -7 22q-5 6 -5 18v2v14v40q0 4 -1 20t-1 25q0 25 5 34q7 14 29 14q3 0 9 -0.5t9 -0.5q8 0 12 1q8 1 28 3t31 4q1 0 2.5 0.5t2.5 0.5t5 -2q9 -4 20 -4q6 0 18 2z" />
    <glyph glyph-name="eacute" unicode="&#xe9;" horiz-adv-x="374" 
d="M197 786q-12 -6 -18 -6q-7 0 -11.5 5t-2.5 13q1 4 8 14q10 13 26 38.5t23 35.5q29 42 60 57q8 4 23 7t18 4q9 2 17 -12q6 -10 0 -23l-8 -16t-7 -16q-8 -18 -29 -32q-30 -20 -44 -37q-13 -16 -34 -22q-7 -2 -21 -10zM187 748q9 1 28 1q31 0 59 -7l28 -6q20 -4 27.5 -7
t14 -10.5t6.5 -21.5q0 -5 -2 -19q-3 -18 -7.5 -23t-15.5 -5h-8h-9q-11 -1 -32 -1q-22 0 -33 2q-63 10 -75 10h-5q-12 0 -38 -6q-13 -3 -13 -18v-2q4 -55 7 -79q3 -25 11 -82.5t11 -88.5q0 -4 6 -91q1 -15 16 -18q5 -1 15 -1q24 0 41 8q16 6 24 6q11 0 18 -5q31 -22 32 -44
v-4v-9q0 -9 1 -13v-2q0 -5 -3.5 -8t-12 -7t-10.5 -5q-23 -15 -59 -26q-16 -4 -23 -4q-9 0 -14 2q-2 1 -7 1q-2 0 -8 -2l-3 -9q0 -7 -1 -20t-1.5 -23.5t-0.5 -19.5q0 -26 2 -39q1 -11 4.5 -14.5t13.5 -3.5h1q19 0 55 6q56 9 59 9q18 2 28 9q8 5 14 5q4 0 25 -8q7 -3 7 -11
q0 -2 -2 -6q-4 -8 -5.5 -24t-2.5 -21l-1 -1q2 -6 2 -9q0 -6 -2.5 -11t-8 -12.5t-6.5 -9.5q-18 -28 -54 -36q-8 -1 -24.5 -7t-24.5 -7q-2 0 -6 -4q-4 -5 -10.5 -7.5t-9.5 -3.5t-12.5 -2t-10.5 -1q-5 -1 -16.5 -1t-18.5 -2q-1 0 -2 -0.5t-2 -0.5q-3 0 -9 2q-18 5 -32 5h-1
q-3 0 -13 -1t-15 -1q-16 0 -20 6q-6 13 -6 31q0 6 1 19t1 20q0 3 -1.5 8t-1.5 7l-3 120v17v22q0 31 -4 56q-1 3 -1 10q0 3 0.5 9.5t0.5 9.5v5q-2 19 -5 59t-4 60v2q0 4 1 11t1 10v1l-1 2q-2 21 -2 63v19v29v15q0 3 -0.5 9t-0.5 9q0 6 0.5 20t0.5 20l1 1v2q0 12 -7 22
q-5 6 -5 18v2v14v40q0 4 -1 20t-1 25q0 25 5 34q7 14 29 14q3 0 9 -0.5t9 -0.5q8 0 12 1q8 1 28 3t31 4q1 0 2.5 0.5t2.5 0.5t5 -2q9 -4 20 -4q6 0 18 2z" />
    <glyph glyph-name="ecircumflex" unicode="&#xea;" horiz-adv-x="374" 
d="M77 806h-5q-23 0 -28 25q0 1 -0.5 2.5t-0.5 2.5q0 13 23 28q11 7 26.5 20.5t17.5 14.5q14 11 36 25.5t30 20.5q21 15 49 22q4 1 13 1q24 0 48 -21q10 -9 33 -43q11 -17 13 -49v-3q0 -3 -6 -33q-2 -10 -2 -14t1 -6v-4q0 -10 -12 -13q-10 -2 -14 -2q-13 0 -27 6q-5 2 -9 6
t-9 10.5t-7 9.5q-35 40 -53 50q-8 4 -11 4q-5 0 -11 -3q-10 -5 -31 -22t-30 -22q-19 -11 -34 -13zM187 748q9 1 28 1q31 0 59 -7l28 -6q20 -4 27.5 -7t14 -10.5t6.5 -21.5q0 -5 -2 -19q-3 -18 -7.5 -23t-15.5 -5h-8h-9q-11 -1 -32 -1q-22 0 -33 2q-63 10 -75 10h-5
q-12 0 -38 -6q-13 -3 -13 -18v-2q4 -55 7 -79q3 -25 11 -82.5t11 -88.5q0 -4 6 -91q1 -15 16 -18q5 -1 15 -1q24 0 41 8q16 6 24 6q11 0 18 -5q31 -22 32 -44v-4v-9q0 -9 1 -13v-2q0 -5 -3.5 -8t-12 -7t-10.5 -5q-23 -15 -59 -26q-16 -4 -23 -4q-9 0 -14 2q-2 1 -7 1
q-2 0 -8 -2l-3 -9q0 -7 -1 -20t-1.5 -23.5t-0.5 -19.5q0 -26 2 -39q1 -11 4.5 -14.5t13.5 -3.5h1q19 0 55 6q56 9 59 9q18 2 28 9q8 5 14 5q4 0 25 -8q7 -3 7 -11q0 -2 -2 -6q-4 -8 -5.5 -24t-2.5 -21l-1 -1q2 -6 2 -9q0 -6 -2.5 -11t-8 -12.5t-6.5 -9.5q-18 -28 -54 -36
q-8 -1 -24.5 -7t-24.5 -7q-2 0 -6 -4q-4 -5 -10.5 -7.5t-9.5 -3.5t-12.5 -2t-10.5 -1q-5 -1 -16.5 -1t-18.5 -2q-1 0 -2 -0.5t-2 -0.5q-3 0 -9 2q-18 5 -32 5h-1q-3 0 -13 -1t-15 -1q-16 0 -20 6q-6 13 -6 31q0 6 1 19t1 20q0 3 -1.5 8t-1.5 7l-3 120v17v22q0 31 -4 56
q-1 3 -1 10q0 3 0.5 9.5t0.5 9.5v5q-2 19 -5 59t-4 60v2q0 4 1 11t1 10v1l-1 2q-2 21 -2 63v19v29v15q0 3 -0.5 9t-0.5 9q0 6 0.5 20t0.5 20l1 1v2q0 12 -7 22q-5 6 -5 18v2v14v40q0 4 -1 20t-1 25q0 25 5 34q7 14 29 14q3 0 9 -0.5t9 -0.5q8 0 12 1q8 1 28 3t31 4
q1 0 2.5 0.5t2.5 0.5t5 -2q9 -4 20 -4q6 0 18 2z" />
    <glyph glyph-name="edieresis" unicode="&#xeb;" horiz-adv-x="374" 
d="M253 783q-6 -3 -12 -3q-12 0 -20.5 10t-8.5 23q0 15 11 26q21 21 34 21q11 0 25 -10q15 -10 15 -25q0 -11 -8 -17q-24 -19 -36 -25zM115 797h-1q-7 0 -21 6q-13 6 -13 25q0 8 4 16q6 11 20 20t25 9h5q34 -8 34 -33q0 -16 -15 -29t-38 -14zM187 748q9 1 28 1q31 0 59 -7
l28 -6q20 -4 27.5 -7t14 -10.5t6.5 -21.5q0 -5 -2 -19q-3 -18 -7.5 -23t-15.5 -5h-8h-9q-11 -1 -32 -1q-22 0 -33 2q-63 10 -75 10h-5q-12 0 -38 -6q-13 -3 -13 -18v-2q4 -55 7 -79q3 -25 11 -82.5t11 -88.5q0 -4 6 -91q1 -15 16 -18q5 -1 15 -1q24 0 41 8q16 6 24 6
q11 0 18 -5q31 -22 32 -44v-4v-9q0 -9 1 -13v-2q0 -5 -3.5 -8t-12 -7t-10.5 -5q-23 -15 -59 -26q-16 -4 -23 -4q-9 0 -14 2q-2 1 -7 1q-2 0 -8 -2l-3 -9q0 -7 -1 -20t-1.5 -23.5t-0.5 -19.5q0 -26 2 -39q1 -11 4.5 -14.5t13.5 -3.5h1q19 0 55 6q56 9 59 9q18 2 28 9
q8 5 14 5q4 0 25 -8q7 -3 7 -11q0 -2 -2 -6q-4 -8 -5.5 -24t-2.5 -21l-1 -1q2 -6 2 -9q0 -6 -2.5 -11t-8 -12.5t-6.5 -9.5q-18 -28 -54 -36q-8 -1 -24.5 -7t-24.5 -7q-2 0 -6 -4q-4 -5 -10.5 -7.5t-9.5 -3.5t-12.5 -2t-10.5 -1q-5 -1 -16.5 -1t-18.5 -2q-1 0 -2 -0.5
t-2 -0.5q-3 0 -9 2q-18 5 -32 5h-1q-3 0 -13 -1t-15 -1q-16 0 -20 6q-6 13 -6 31q0 6 1 19t1 20q0 3 -1.5 8t-1.5 7l-3 120v17v22q0 31 -4 56q-1 3 -1 10q0 3 0.5 9.5t0.5 9.5v5q-2 19 -5 59t-4 60v2q0 4 1 11t1 10v1l-1 2q-2 21 -2 63v19v29v15q0 3 -0.5 9t-0.5 9
q0 6 0.5 20t0.5 20l1 1v2q0 12 -7 22q-5 6 -5 18v2v14v40q0 4 -1 20t-1 25q0 25 5 34q7 14 29 14q3 0 9 -0.5t9 -0.5q8 0 12 1q8 1 28 3t31 4q1 0 2.5 0.5t2.5 0.5t5 -2q9 -4 20 -4q6 0 18 2z" />
    <glyph glyph-name="igrave" unicode="&#xec;" horiz-adv-x="185" 
d="M92 692q-14 8 -21 10q-21 6 -34 22q-14 17 -44 37q-19 13 -28 32q-2 6 -8 16.5t-8 15.5q-6 13 0 23q8 14 17 12q3 -1 18 -4t23 -7q31 -15 60 -57q7 -10 23.5 -35.5t26.5 -38.5q6 -8 7 -14q2 -8 -2.5 -13t-11.5 -5q-6 0 -18 6zM51 52q-7 7 -7 15v5v1q1 1 1 2q0 4 -2 12
q-2 6 -2 10q0 5 3 10q0 1 0.5 5t0.5 5q0 7 -2 20t-2 18q-11 112 -11 126v5q0 21 3 42q4 25 4 139v71v2q0 37 3 56q1 4 1 11q0 5 -2 15v6v12v6l1 1v2q2 6 14 12.5t19 6.5q16 0 25 -19q5 -10 46 -77q7 -7 7 -16q0 -3 -2 -11q-5 -15 -10 -80q0 -5 -1 -91.5t-5 -100.5
q-1 -3 -1 -8v-4q0 -11 -2 -33q0 -2 -0.5 -5t-0.5 -4q0 -6 1 -18.5t1 -18.5v-1q0 -17 4.5 -48.5t5.5 -37.5q1 -12 6 -24q4 -10 8 -34v-4q0 -8 -12 -22q-2 -2 -4 -2q-1 0 -2 0.5t-2 0.5h-6q-8 0 -14 -3q-2 -1 -6 -1q-5 0 -10 3q-21 11 -38 31q-6 8 -10 12z" />
    <glyph glyph-name="iacute" unicode="&#xed;" horiz-adv-x="185" 
d="M75 708q-12 -6 -18 -6q-7 0 -11.5 5t-2.5 13q1 4 8 14q10 13 26 38.5t23 35.5q29 42 60 57q8 4 23 7t18 4q9 2 17 -12q6 -10 0 -23l-8 -16t-7 -16q-8 -18 -29 -32q-30 -20 -44 -37q-13 -16 -34 -22q-7 -2 -21 -10zM51 52q-7 7 -7 15v5v1q1 1 1 2q0 4 -2 12q-2 6 -2 10
q0 5 3 10q0 1 0.5 5t0.5 5q0 7 -2 20t-2 18q-11 112 -11 126v5q0 21 3 42q4 25 4 139v71v2q0 37 3 56q1 4 1 11q0 5 -2 15v6v12v6l1 1v2q2 6 14 12.5t19 6.5q16 0 25 -19q5 -10 46 -77q7 -7 7 -16q0 -3 -2 -11q-5 -15 -10 -80q0 -5 -1 -91.5t-5 -100.5q-1 -3 -1 -8v-4
q0 -11 -2 -33q0 -2 -0.5 -5t-0.5 -4q0 -6 1 -18.5t1 -18.5v-1q0 -17 4.5 -48.5t5.5 -37.5q1 -12 6 -24q4 -10 8 -34v-4q0 -8 -12 -22q-2 -2 -4 -2q-1 0 -2 0.5t-2 0.5h-6q-8 0 -14 -3q-2 -1 -6 -1q-5 0 -10 3q-21 11 -38 31q-6 8 -10 12z" />
    <glyph glyph-name="icircumflex" unicode="&#xee;" horiz-adv-x="184" 
d="M-18.0127 708h-4.44238q-20.4385 0 -24.8818 25q0 1 -0.444336 2.5t-0.444336 2.5q0 13 20.4385 28q9.77441 7 23.5479 20.5t15.5508 14.5q12.4404 11 31.9902 25.5t26.6582 20.5q18.6611 15 43.542 22q3.55469 1 11.5518 1q21.3271 0 42.6533 -21
q8.88672 -9 29.3242 -43q9.77441 -17 11.5518 -49v-3q0 -3 -5.33105 -33q-1.77734 -10 -1.77734 -14t0.888672 -6v-4q0 -10 -10.6641 -13q-8.88574 -2 -12.4404 -2q-11.5518 0 -23.9922 6q-4.44336 2 -7.99707 6q-3.55469 4 -7.99805 10.5t-6.21973 9.5
q-31.1016 40 -47.0967 50q-7.10938 4 -9.77441 4q-4.44336 0 -9.77539 -3q-8.88574 -5 -27.5469 -22t-26.6582 -22q-16.8838 -11 -30.2129 -13zM51 52q-7 7 -7 15v5v1q1 1 1 2q0 4 -2 12q-2 6 -2 10q0 5 3 10q0 1 0.5 5t0.5 5q0 7 -2 20t-2 18q-11 112 -11 126v5q0 21 3 42
q4 25 4 139v71v2q0 37 3 56q1 4 1 11q0 5 -2 15v6v12v6l1 1v2q2 6 14 12.5t19 6.5q16 0 25 -19q5 -10 46 -77q7 -7 7 -16q0 -3 -2 -11q-5 -15 -10 -80q0 -5 -1 -91.5t-5 -100.5q-1 -3 -1 -8v-4q0 -11 -2 -33q0 -2 -0.5 -5t-0.5 -4q0 -6 1 -18.5t1 -18.5v-1q0 -17 4.5 -48.5
t5.5 -37.5q1 -12 6 -24q4 -10 8 -34v-4q0 -8 -12 -22q-2 -2 -4 -2q-1 0 -2 0.5t-2 0.5h-6q-8 0 -14 -3q-2 -1 -6 -1q-5 0 -10 3q-21 11 -38 31q-6 8 -10 12z" />
    <glyph glyph-name="idieresis" unicode="&#xef;" horiz-adv-x="184" 
d="M147.133 707q-5.28711 -3 -10.5762 -3q-10.5762 0 -18.0674 10t-7.49121 23q0 15 9.69531 26q18.5078 21 29.9648 21q9.69531 0 22.0342 -10q13.2197 -10 13.2197 -25q0 -11 -7.05078 -17q-21.1523 -19 -31.7285 -25zM25.5078 721h-0.881836q-6.16895 0 -18.5088 6
q-11.457 6 -11.457 25q0 8 3.52539 16q5.28809 11 17.627 20t22.0332 9h4.40723q29.9658 -8 29.9658 -33q0 -16 -13.2207 -29q-13.2197 -13 -33.4902 -14zM51 52q-7 7 -7 15v5v1q1 1 1 2q0 4 -2 12q-2 6 -2 10q0 5 3 10q0 1 0.5 5t0.5 5q0 7 -2 20t-2 18q-11 112 -11 126v5
q0 21 3 42q4 25 4 139v71v2q0 37 3 56q1 4 1 11q0 5 -2 15v6v12v6l1 1v2q2 6 14 12.5t19 6.5q16 0 25 -19q5 -10 46 -77q7 -7 7 -16q0 -3 -2 -11q-5 -15 -10 -80q0 -5 -1 -91.5t-5 -100.5q-1 -3 -1 -8v-4q0 -11 -2 -33q0 -2 -0.5 -5t-0.5 -4q0 -6 1 -18.5t1 -18.5v-1
q0 -17 4.5 -48.5t5.5 -37.5q1 -12 6 -24q4 -10 8 -34v-4q0 -8 -12 -22q-2 -2 -4 -2q-1 0 -2 0.5t-2 0.5h-6q-8 0 -14 -3q-2 -1 -6 -1q-5 0 -10 3q-21 11 -38 31q-6 8 -10 12z" />
    <glyph glyph-name="eth" unicode="&#xf0;" horiz-adv-x="395" 
d="M168 56q24 22 36 34q13 13 53 67q3 3 5 8q30 69 40 158q2 15 4 45.5t3 45.5v9q0 4 -0.5 12.5t-0.5 12.5q0 1 0.5 2.5t0.5 2.5v20q0 25 -3 49q-3 22 -21 90q-9 35 -34 52q-36 25 -72 26h-1q-12 0 -14 -12q0 -5 -1 -15t-1 -15q-3 -46 -3 -47q-3 -19 -3 -40v-8
q0 -9 0.5 -26.5t0.5 -26.5v-23q0 -1 -0.5 -2.5t-0.5 -2.5q0 -6 3 -14q1 -3 1 -8t-1 -7q1 0 3.5 -0.5t3.5 -0.5q4 -1 37.5 -5t46.5 -16q7 -7 7 -37v-21v-5v-1q0 -13 -13 -20q-16 -8 -35 -10q-6 1 -25.5 5t-28.5 5q2 -18 4 -29q2 -8 2 -25q0 -6 -0.5 -13t-1.5 -15.5t-1 -13.5
v-24v-8q0 -37 -6 -55v-2l-1 -2v-1q1 -4 1 -12q0 -7 -1 -20t-1 -19v-7v-14v-11v-7t4 -9q1 -1 4 -1t10 7zM206 -2q-12 -10 -12 -22q0 -4 1 -6v-3q0 -7 -10 -13q-59 -33 -79 -39q-12 -4 -19 -4q-2 0 -10 2q-3 1 -10 1q-1 0 -5 -0.5t-5 -0.5h-3q-18 0 -26 20q-7 14 -7 32v10
q2 22 2 31q0 13 -1.5 39.5t-1.5 39.5v5v5q0 13 -1.5 39.5t-1.5 39.5v7q0 37 9 147q0 4 1 11.5t1 11.5q-8 0 -12 1q-2 1 -18 2.5t-20 3.5q-11 7 -11 19q0 3 7 29q1 3 3 9.5t3 9.5q5 22 32 34q2 1 6 1q6 0 12 -3q1 -1 3 -1t3 -1q0 8 2 24.5t2 24.5q2 26 4 74q1 27 13 128
q3 22 21 37.5t41 17.5h25q45 0 80 -8q3 -1 47 -20q3 -1 9.5 -5t10.5 -5q21 -7 34 -32q10 -21 23 -55q19 -55 25 -105q1 -7 1.5 -21.5t0.5 -18.5q0 -3 0.5 -10t0.5 -11q0 -43 -11 -160q-7 -71 -27 -127q-19 -53 -48 -90q-50 -65 -84 -95z" />
    <glyph glyph-name="ntilde" unicode="&#xf1;" horiz-adv-x="474" 
d="M126 760q-8 -5 -15 -5q-12 0 -18 14q-5 10 -5 25q0 7 1 10q6 22 8 34q1 8 10 13q28 16 45 19q5 1 16 1q12 0 23 -4q1 -1 15.5 -6t21.5 -9q14 -8 26 -8q14 0 28 9q20 13 43 14q1 0 2 0.5t2 0.5q9 0 16 -6q22 -17 30 -38q2 -6 2 -10q0 -8 -3 -15q-8 -26 -43 -43
q-18 -9 -81 -16q-35 2 -49 15q-9 8 -40 19q-2 1 -7 1q-8 0 -13 -4q-3 -1 -8 -5t-7 -6zM193 343q-12 26 -21 38q-10 13 -33 57l-2.5 5l-2.5 5q-2 4 -5 4l-1 -1q-3 -1 -5 -6q0 -1 -0.5 -2t-0.5 -2v-6q0 -5 -0.5 -16t-0.5 -16q0 -7 2 -19v-5q0 -3 -1 -9t-1 -10v-5q0 -21 5 -129
q1 -19 1 -58q0 -16 2 -46t2 -46q0 -7 0.5 -21t0.5 -21q0 -27 -4 -48v-4v-4v-1q0 -25 -24 -25h-7q-4 0 -15.5 2.5t-17.5 2.5h-1h-1q-15 0 -22 18q-12 27 -12 49v16v32v19q0 17 -5 110q-1 15 -1 46v3v7q0 21 -2 63t-2 62q0 5 0.5 15t0.5 15q1 15 3 44.5t2 44.5q1 32 7 96
q1 9 2.5 19t3.5 22t3 19q3 10 5 12q26 18 42 20h6q21 0 35 -13q6 -6 11 -18q4 -11 17 -44.5t21 -51.5q47 -110 71 -143q6 -9 23 -49q26 -63 45 -124q0 -3 2 -5q2 -3 5 -3t5 3q2 6 2 10q5 30 9 120q1 9 3 26t2 25q5 90 5 107v1v1q0 15 5 82v19q0 13 -1 40.5t-1 36.5v4
q0 13 4.5 17t19.5 4.5t23 2.5q2 1 7 1q14 0 25.5 -9t13.5 -22q6 -37 6 -76v-27q0 -2 -0.5 -5t-0.5 -4q0 -5 0.5 -13t0.5 -13q1 -13 1 -38q0 -37 -2 -111v-2q0 -5 0.5 -15.5t0.5 -15.5q0 -1 -0.5 -4t-0.5 -4q-1 -12 -1.5 -36t-1.5 -36q0 -6 -1 -18t-1.5 -21.5t-0.5 -17.5
q0 -16 1 -23q0 -1 0.5 -4t0.5 -4q0 -9 -2 -29q-1 -10 -1 -32v-32q0 -25 -3 -49q-6 -45 -23 -60q-1 -1 -6 -13q-6 -17 -23 -21l-7.5 -2.5t-8.5 -2.5t-8 -1q-7 0 -11 2q-34 17 -44 36q-37 71 -70 189q-24 87 -46 139z" />
    <glyph glyph-name="ograve" unicode="&#xf2;" horiz-adv-x="453" 
d="M177 822q-14 8 -21 10q-21 6 -34 22q-14 17 -44 37q-19 13 -28 32q-2 6 -8 16.5t-8 15.5q-6 13 0 23q8 14 17 12q3 -1 18 -4t23 -7q31 -15 60 -57q7 -10 23.5 -35.5t26.5 -38.5q6 -8 7 -14q2 -8 -2.5 -13t-11.5 -5q-6 0 -18 6zM123 333v-8q0 -7 -0.5 -25.5t-0.5 -28.5
q0 -3 0.5 -8t0.5 -7t0.5 -5t0.5 -5v-1q0 -18 6 -51.5t7 -39.5q22 -66 34 -87q12 -20 26 -20q7 0 17 3q14 4 31 11q22 8 27 37q6 33 9 70q3 25 3 73.5t2 70.5q2 18 2 26q0 22 -12 113q-2 11 -7 31.5t-6 27.5q-3 14 -9 42.5t-9 42.5q-7 34 -22 54q-9 12 -18 12q-32 0 -57 -133
t-25 -195zM19 261q-2 16 -2 25q0 6 0.5 19t0.5 19q0 5 -0.5 14.5t-0.5 14.5q0 163 71 347q5 12 11 22t10.5 15t14.5 14.5t15 14.5q25 28 52 28q25 0 50 -24q34 -31 41 -42q64 -80 80 -127q10 -27 41 -138q2 -7 9.5 -28t9.5 -33q12 -58 12 -101q0 -19 -1 -28q-1 -4 -2.5 -11
t-1.5 -9q-6 -24 -7 -37q-2 -26 -11 -76.5t-16 -62.5q-5 -10 -18.5 -34.5t-19.5 -34.5t-18.5 -28.5t-22 -28.5t-24.5 -22t-32 -20q-15 -9 -36 -9q-25 0 -47 16q-63 45 -106 121q-24 41 -33 76q-10 36 -13 81q-1 11 -3 33.5t-3 33.5z" />
    <glyph glyph-name="oacute" unicode="&#xf3;" horiz-adv-x="453" 
d="M235 810q-12 -6 -18 -6q-7 0 -11.5 5t-2.5 13q1 4 8 14q10 13 26 38.5t23 35.5q29 42 60 57q8 4 23 7t18 4q9 2 17 -12q6 -10 0 -23l-8 -16t-7 -16q-8 -18 -29 -32q-30 -20 -44 -37q-13 -16 -34 -22q-7 -2 -21 -10zM123 333v-8q0 -7 -0.5 -25.5t-0.5 -28.5q0 -3 0.5 -8
t0.5 -7t0.5 -5t0.5 -5v-1q0 -18 6 -51.5t7 -39.5q22 -66 34 -87q12 -20 26 -20q7 0 17 3q14 4 31 11q22 8 27 37q6 33 9 70q3 25 3 73.5t2 70.5q2 18 2 26q0 22 -12 113q-2 11 -7 31.5t-6 27.5q-3 14 -9 42.5t-9 42.5q-7 34 -22 54q-9 12 -18 12q-32 0 -57 -133t-25 -195z
M19 261q-2 16 -2 25q0 6 0.5 19t0.5 19q0 5 -0.5 14.5t-0.5 14.5q0 163 71 347q5 12 11 22t10.5 15t14.5 14.5t15 14.5q25 28 52 28q25 0 50 -24q34 -31 41 -42q64 -80 80 -127q10 -27 41 -138q2 -7 9.5 -28t9.5 -33q12 -58 12 -101q0 -19 -1 -28q-1 -4 -2.5 -11t-1.5 -9
q-6 -24 -7 -37q-2 -26 -11 -76.5t-16 -62.5q-5 -10 -18.5 -34.5t-19.5 -34.5t-18.5 -28.5t-22 -28.5t-24.5 -22t-32 -20q-15 -9 -36 -9q-25 0 -47 16q-63 45 -106 121q-24 41 -33 76q-10 36 -13 81q-1 11 -3 33.5t-3 33.5z" />
    <glyph glyph-name="ocircumflex" unicode="&#xf4;" horiz-adv-x="453" 
d="M103 803h-5q-23 0 -28 25q0 1 -0.5 2.5t-0.5 2.5q0 13 23 28q11 7 26.5 20.5t17.5 14.5q14 11 36 25.5t30 20.5q21 15 49 22q4 1 13 1q24 0 48 -21q10 -9 33 -43q11 -17 13 -49v-3q0 -3 -6 -33q-2 -10 -2 -14t1 -6v-4q0 -10 -12 -13q-10 -2 -14 -2q-13 0 -27 6q-5 2 -9 6
t-9 10.5t-7 9.5q-35 40 -53 50q-8 4 -11 4q-5 0 -11 -3q-10 -5 -31 -22t-30 -22q-19 -11 -34 -13zM123 333v-8q0 -7 -0.5 -25.5t-0.5 -28.5q0 -3 0.5 -8t0.5 -7t0.5 -5t0.5 -5v-1q0 -18 6 -51.5t7 -39.5q22 -66 34 -87q12 -20 26 -20q7 0 17 3q14 4 31 11q22 8 27 37
q6 33 9 70q3 25 3 73.5t2 70.5q2 18 2 26q0 22 -12 113q-2 11 -7 31.5t-6 27.5q-3 14 -9 42.5t-9 42.5q-7 34 -22 54q-9 12 -18 12q-32 0 -57 -133t-25 -195zM19 261q-2 16 -2 25q0 6 0.5 19t0.5 19q0 5 -0.5 14.5t-0.5 14.5q0 163 71 347q5 12 11 22t10.5 15t14.5 14.5
t15 14.5q25 28 52 28q25 0 50 -24q34 -31 41 -42q64 -80 80 -127q10 -27 41 -138q2 -7 9.5 -28t9.5 -33q12 -58 12 -101q0 -19 -1 -28q-1 -4 -2.5 -11t-1.5 -9q-6 -24 -7 -37q-2 -26 -11 -76.5t-16 -62.5q-5 -10 -18.5 -34.5t-19.5 -34.5t-18.5 -28.5t-22 -28.5t-24.5 -22
t-32 -20q-15 -9 -36 -9q-25 0 -47 16q-63 45 -106 121q-24 41 -33 76q-10 36 -13 81q-1 11 -3 33.5t-3 33.5z" />
    <glyph glyph-name="otilde" unicode="&#xf5;" horiz-adv-x="453" 
d="M120 825q-8 -5 -15 -5q-12 0 -18 14q-5 10 -5 25q0 7 1 10q6 22 8 34q1 8 10 13q28 16 45 19q5 1 16 1q12 0 23 -4q1 -1 15.5 -6t21.5 -9q14 -8 26 -8q14 0 28 9q20 13 43 14q1 0 2 0.5t2 0.5q9 0 16 -6q22 -17 30 -38q2 -6 2 -10q0 -8 -3 -15q-8 -26 -43 -43
q-18 -9 -81 -16q-35 2 -49 15q-9 8 -40 19q-2 1 -7 1q-8 0 -13 -4q-3 -1 -8 -5t-7 -6zM123 333v-8q0 -7 -0.5 -25.5t-0.5 -28.5q0 -3 0.5 -8t0.5 -7t0.5 -5t0.5 -5v-1q0 -18 6 -51.5t7 -39.5q22 -66 34 -87q12 -20 26 -20q7 0 17 3q14 4 31 11q22 8 27 37q6 33 9 70
q3 25 3 73.5t2 70.5q2 18 2 26q0 22 -12 113q-2 11 -7 31.5t-6 27.5q-3 14 -9 42.5t-9 42.5q-7 34 -22 54q-9 12 -18 12q-32 0 -57 -133t-25 -195zM19 261q-2 16 -2 25q0 6 0.5 19t0.5 19q0 5 -0.5 14.5t-0.5 14.5q0 163 71 347q5 12 11 22t10.5 15t14.5 14.5t15 14.5
q25 28 52 28q25 0 50 -24q34 -31 41 -42q64 -80 80 -127q10 -27 41 -138q2 -7 9.5 -28t9.5 -33q12 -58 12 -101q0 -19 -1 -28q-1 -4 -2.5 -11t-1.5 -9q-6 -24 -7 -37q-2 -26 -11 -76.5t-16 -62.5q-5 -10 -18.5 -34.5t-19.5 -34.5t-18.5 -28.5t-22 -28.5t-24.5 -22t-32 -20
q-15 -9 -36 -9q-25 0 -47 16q-63 45 -106 121q-24 41 -33 76q-10 36 -13 81q-1 11 -3 33.5t-3 33.5z" />
    <glyph glyph-name="odieresis" unicode="&#xf6;" horiz-adv-x="453" 
d="M290 808q-6 -3 -12 -3q-12 0 -20.5 10t-8.5 23q0 15 11 26q21 21 34 21q11 0 25 -10q15 -10 15 -25q0 -11 -8 -17q-24 -19 -36 -25zM152 822h-1q-7 0 -21 6q-13 6 -13 25q0 8 4 16q6 11 20 20t25 9h5q34 -8 34 -33q0 -16 -15 -29t-38 -14zM123 333v-8q0 -7 -0.5 -25.5
t-0.5 -28.5q0 -3 0.5 -8t0.5 -7t0.5 -5t0.5 -5v-1q0 -18 6 -51.5t7 -39.5q22 -66 34 -87q12 -20 26 -20q7 0 17 3q14 4 31 11q22 8 27 37q6 33 9 70q3 25 3 73.5t2 70.5q2 18 2 26q0 22 -12 113q-2 11 -7 31.5t-6 27.5q-3 14 -9 42.5t-9 42.5q-7 34 -22 54q-9 12 -18 12
q-32 0 -57 -133t-25 -195zM19 261q-2 16 -2 25q0 6 0.5 19t0.5 19q0 5 -0.5 14.5t-0.5 14.5q0 163 71 347q5 12 11 22t10.5 15t14.5 14.5t15 14.5q25 28 52 28q25 0 50 -24q34 -31 41 -42q64 -80 80 -127q10 -27 41 -138q2 -7 9.5 -28t9.5 -33q12 -58 12 -101q0 -19 -1 -28
q-1 -4 -2.5 -11t-1.5 -9q-6 -24 -7 -37q-2 -26 -11 -76.5t-16 -62.5q-5 -10 -18.5 -34.5t-19.5 -34.5t-18.5 -28.5t-22 -28.5t-24.5 -22t-32 -20q-15 -9 -36 -9q-25 0 -47 16q-63 45 -106 121q-24 41 -33 76q-10 36 -13 81q-1 11 -3 33.5t-3 33.5z" />
    <glyph glyph-name="divide" unicode="&#xf7;" horiz-adv-x="477" 
d="M246 586q10 -10 10 -20v-3v-4v-6q0 -4 -0.5 -15t-1.5 -17q-3 -15 -19 -20q-8 -2 -12 -2q-5 0 -15 2q-22 6 -40 21q-9 8 -9 18q0 6 1 10q7 23 38 41q14 7 22 7q14 0 26 -12zM181 294q7 5 14 5q12 0 19 -9q27 -31 27 -79q0 -1 -0.5 -2.5t-0.5 -2.5q0 -24 -36 -24
q-36 2 -62 31q-7 7 -7 16q0 7 2 11q11 28 44 54zM10 401q7 46 36 68q6 5 17 5q28 0 44 -11q8 -6 17 -6h5q9 1 33 3.5t38 5.5q15 4 62 6q13 0 39 1t39 1h1q18 0 33 -12l57 -39q20 -13 20 -36v-6q-1 -6 -12 -13q-38 -24 -82 -24h-7h-5h-8h-9q-26 0 -52 3q-15 2 -43 2.5
t-41 1.5q-12 1 -33 2.5t-38.5 3t-33.5 3.5q-8 1 -23 1q-10 0 -16 -1h-3l-2 -1q-8 0 -12 7q-3 3 -8 9.5t-8 9.5q-5 7 -5 13v3z" />
    <glyph glyph-name="oslash" unicode="&#xf8;" horiz-adv-x="484" 
d="M285 386q-12 -44 -17 -66q-30 -126 -55 -205q-4 -11 -11 -34t-11 -34h6q7 0 17 3q14 4 31 11q22 8 27 37q6 33 9 70q3 25 3 73.5t2 70.5q2 18 2 26q0 24 -3 48zM123 333v-8q0 -7 -0.5 -25.5t-0.5 -28.5q0 -3 0.5 -8t0.5 -7t0.5 -5t0.5 -5v-1q0 -18 6 -51.5t7 -39.5
q3 -10 9 -28q12 40 28 100q25 100 38 140q35 112 39 121q5 13 10 34q-9 44 -16 74q-7 34 -22 54q-9 12 -18 12q-32 0 -57 -133t-25 -195zM86 -94q0 5 4 15q11 31 18 61q-20 25 -37 55q-24 41 -33 76q-10 36 -13 81q-1 11 -3 33.5t-3 33.5q-2 16 -2 27q0 8 0.5 21t0.5 15
q0 5 -0.5 14.5t-0.5 14.5q0 163 71 347q5 12 11 22t10.5 15t14.5 14.5t15 14.5q25 28 52 28q25 0 50 -24q34 -31 41 -42q5 -7 14.5 -19t14.5 -19q14 44 20 61q7 20 22 37q6 7 9 7q4 0 11 -9q5 -7 5 -19v-4q-2 -7 -4.5 -23.5t-3.5 -20.5q-3 -18 -22 -85q7 -15 14 -33
q10 -27 41 -138q2 -7 9.5 -28t9.5 -33q12 -58 12 -101q0 -19 -1 -28q-1 -4 -2.5 -11t-1.5 -9q-6 -24 -7 -37q-2 -26 -11 -76.5t-16 -62.5q-5 -10 -18.5 -34.5t-19.5 -34.5t-18.5 -28.5t-22 -28.5t-24.5 -22t-32 -20q-15 -9 -36 -9q-25 0 -47 16q-7 5 -17 13v-1l-1 -2
q-1 -5 -15 -47q-3 -10 -11 -13v-1q0 -1 1 -1l2 -2q-6 -6 -12 -6q-5 0 -13 4q-25 13 -25 46z" />
    <glyph glyph-name="ugrave" unicode="&#xf9;" horiz-adv-x="436" 
d="M209 786q-14 8 -21 10q-21 6 -34 22q-14 17 -44 37q-19 13 -28 32q-2 6 -8 16.5t-8 15.5q-6 13 0 23q8 14 17 12q3 -1 18 -4t23 -7q31 -15 60 -57q7 -10 23.5 -35.5t26.5 -38.5q6 -8 7 -14q2 -8 -2.5 -13t-11.5 -5q-6 0 -18 6zM90 410q7 -91 7 -118v-7v-6q0 -40 11 -102
q10 -66 17 -99q5 -24 23 -68q13 -31 44 -31q1 0 4 1q16 2 21 14q26 63 27 83q1 12 3 38t3 38q4 35 7 49q2 13 3.5 38t1.5 31q4 52 4 79q0 22 -1 33q-1 20 -5 61t-5 61q-1 18 -1 55q0 51 7 96q5 37 8 44q11 27 39 31q33 5 40 9q2 1 5 1q10 0 15 -11q4 -9 6 -19q2 -17 7 -48.5
t7 -42.5q13 -91 19 -127q9 -49 10 -62v-21q0 -21 -3 -31q-7 -25 -7 -53v-12v-14q0 -35 -6 -105q-1 -13 -3 -46t-4 -51q-8 -66 -20 -98q-17 -47 -48 -70q-13 -10 -31 -13q-1 0 -19.5 -3t-27.5 -3h-5h-1q-7 0 -15 -8q-18 -19 -46 -19h-8q-57 4 -89 63q-3 4 -25 66
q-11 30 -22 82q-2 12 -4.5 34t-3.5 28q-5 32 -5 97q0 22 -3 66t-3 66q0 2 0.5 5.5t0.5 5.5q2 88 4 134q0 3 0.5 8t0.5 8v3q0 18 1 27q4 32 4 48q0 2 -0.5 6t-0.5 6v3q0 26 30 64q5 6 10 6q6 0 11 -6q6 -7 6 -20v-12v-15q0 -10 -1 -29.5t-1 -29.5q0 -15 1 -23q1 -4 1 -14
q0 -3 -0.5 -9t-0.5 -10v-13q0 -39 6 -119z" />
    <glyph glyph-name="uacute" unicode="&#xfa;" horiz-adv-x="436" 
d="M187 743q-12 -6 -18 -6q-7 0 -11.5 5t-2.5 13q1 4 8 14q10 13 26 38.5t23 35.5q29 42 60 57q8 4 23 7t18 4q9 2 17 -12q6 -10 0 -23l-8 -16t-7 -16q-8 -18 -29 -32q-30 -20 -44 -37q-13 -16 -34 -22q-7 -2 -21 -10zM90 410q7 -91 7 -118v-7v-6q0 -40 11 -102
q10 -66 17 -99q5 -24 23 -68q13 -31 44 -31q1 0 4 1q16 2 21 14q26 63 27 83q1 12 3 38t3 38q4 35 7 49q2 13 3.5 38t1.5 31q4 52 4 79q0 22 -1 33q-1 20 -5 61t-5 61q-1 18 -1 55q0 51 7 96q5 37 8 44q11 27 39 31q33 5 40 9q2 1 5 1q10 0 15 -11q4 -9 6 -19q2 -17 7 -48.5
t7 -42.5q13 -91 19 -127q9 -49 10 -62v-21q0 -21 -3 -31q-7 -25 -7 -53v-12v-14q0 -35 -6 -105q-1 -13 -3 -46t-4 -51q-8 -66 -20 -98q-17 -47 -48 -70q-13 -10 -31 -13q-1 0 -19.5 -3t-27.5 -3h-5h-1q-7 0 -15 -8q-18 -19 -46 -19h-8q-57 4 -89 63q-3 4 -25 66
q-11 30 -22 82q-2 12 -4.5 34t-3.5 28q-5 32 -5 97q0 22 -3 66t-3 66q0 2 0.5 5.5t0.5 5.5q2 88 4 134q0 3 0.5 8t0.5 8v3q0 18 1 27q4 32 4 48q0 2 -0.5 6t-0.5 6v3q0 26 30 64q5 6 10 6q6 0 11 -6q6 -7 6 -20v-12v-15q0 -10 -1 -29.5t-1 -29.5q0 -15 1 -23q1 -4 1 -14
q0 -3 -0.5 -9t-0.5 -10v-13q0 -39 6 -119z" />
    <glyph glyph-name="ucircumflex" unicode="&#xfb;" horiz-adv-x="436" 
d="M107 806h-5q-23 0 -28 25q0 1 -0.5 2.5t-0.5 2.5q0 13 23 28q11 7 26.5 20.5t17.5 14.5q14 11 36 25.5t30 20.5q21 15 49 22q4 1 13 1q24 0 48 -21q10 -9 33 -43q11 -17 13 -49v-3q0 -3 -6 -33q-2 -10 -2 -14t1 -6v-4q0 -10 -12 -13q-10 -2 -14 -2q-13 0 -27 6q-5 2 -9 6
t-9 10.5t-7 9.5q-35 40 -53 50q-8 4 -11 4q-5 0 -11 -3q-10 -5 -31 -22t-30 -22q-19 -11 -34 -13zM90 410q7 -91 7 -118v-7v-6q0 -40 11 -102q10 -66 17 -99q5 -24 23 -68q13 -31 44 -31q1 0 4 1q16 2 21 14q26 63 27 83q1 12 3 38t3 38q4 35 7 49q2 13 3.5 38t1.5 31
q4 52 4 79q0 22 -1 33q-1 20 -5 61t-5 61q-1 18 -1 55q0 51 7 96q5 37 8 44q11 27 39 31q33 5 40 9q2 1 5 1q10 0 15 -11q4 -9 6 -19q2 -17 7 -48.5t7 -42.5q13 -91 19 -127q9 -49 10 -62v-21q0 -21 -3 -31q-7 -25 -7 -53v-12v-14q0 -35 -6 -105q-1 -13 -3 -46t-4 -51
q-8 -66 -20 -98q-17 -47 -48 -70q-13 -10 -31 -13q-1 0 -19.5 -3t-27.5 -3h-5h-1q-7 0 -15 -8q-18 -19 -46 -19h-8q-57 4 -89 63q-3 4 -25 66q-11 30 -22 82q-2 12 -4.5 34t-3.5 28q-5 32 -5 97q0 22 -3 66t-3 66q0 2 0.5 5.5t0.5 5.5q2 88 4 134q0 3 0.5 8t0.5 8v3
q0 18 1 27q4 32 4 48q0 2 -0.5 6t-0.5 6v3q0 26 30 64q5 6 10 6q6 0 11 -6q6 -7 6 -20v-12v-15q0 -10 -1 -29.5t-1 -29.5q0 -15 1 -23q1 -4 1 -14q0 -3 -0.5 -9t-0.5 -10v-13q0 -39 6 -119z" />
    <glyph glyph-name="udieresis" unicode="&#xfc;" horiz-adv-x="436" 
d="M261 759q-6 -3 -12 -3q-12 0 -20.5 10t-8.5 23q0 15 11 26q21 21 34 21q11 0 25 -10q15 -10 15 -25q0 -11 -8 -17q-24 -19 -36 -25zM123 773h-1q-7 0 -21 6q-13 6 -13 25q0 8 4 16q6 11 20 20t25 9h5q34 -8 34 -33q0 -16 -15 -29t-38 -14zM90 410q7 -91 7 -118v-7v-6
q0 -40 11 -102q10 -66 17 -99q5 -24 23 -68q13 -31 44 -31q1 0 4 1q16 2 21 14q26 63 27 83q1 12 3 38t3 38q4 35 7 49q2 13 3.5 38t1.5 31q4 52 4 79q0 22 -1 33q-1 20 -5 61t-5 61q-1 18 -1 55q0 51 7 96q5 37 8 44q11 27 39 31q33 5 40 9q2 1 5 1q10 0 15 -11q4 -9 6 -19
q2 -17 7 -48.5t7 -42.5q13 -91 19 -127q9 -49 10 -62v-21q0 -21 -3 -31q-7 -25 -7 -53v-12v-14q0 -35 -6 -105q-1 -13 -3 -46t-4 -51q-8 -66 -20 -98q-17 -47 -48 -70q-13 -10 -31 -13q-1 0 -19.5 -3t-27.5 -3h-5h-1q-7 0 -15 -8q-18 -19 -46 -19h-8q-57 4 -89 63
q-3 4 -25 66q-11 30 -22 82q-2 12 -4.5 34t-3.5 28q-5 32 -5 97q0 22 -3 66t-3 66q0 2 0.5 5.5t0.5 5.5q2 88 4 134q0 3 0.5 8t0.5 8v3q0 18 1 27q4 32 4 48q0 2 -0.5 6t-0.5 6v3q0 26 30 64q5 6 10 6q6 0 11 -6q6 -7 6 -20v-12v-15q0 -10 -1 -29.5t-1 -29.5q0 -15 1 -23
q1 -4 1 -14q0 -3 -0.5 -9t-0.5 -10v-13q0 -39 6 -119z" />
    <glyph glyph-name="yacute" unicode="&#xfd;" horiz-adv-x="452" 
d="M194 715q-12 -6 -18 -6q-7 0 -11.5 5t-2.5 13q1 4 8 14q10 13 26 38.5t23 35.5q29 42 60 57q8 4 23 7t18 4q9 2 17 -12q6 -10 0 -23l-8 -16t-7 -16q-8 -18 -29 -32q-30 -20 -44 -37q-13 -16 -34 -22q-7 -2 -21 -10zM379 239q0 -9 -1 -13q-11 -37 -23 -113q-2 -16 -10 -50
t-10 -53t-8 -57q-2 -12 -3.5 -25t-3 -28.5t-2.5 -24.5q-4 -35 -5 -50q0 -12 -9 -18q-11 -6 -19 -13q-8 -5 -14 -5q-5 0 -13 4q-39 21 -46 62l-3 12q-2 3 -2 14v2v3q0 8 -4 13q-1 1 -1 4q0 1 1 3.5t1 3.5v1q0 1 -0.5 1t-0.5 1t0.5 3t0.5 4q0 3 -1 5q0 1 -0.5 2t-0.5 2
q0 3 3 6q13 13 23 46q0 2 1 4l2 4q-1 5 -1 15q0 7 5 44q5 27 13.5 81t12.5 81v7q0 10 -7 18q-8 9 -25 26q-12 11 -17 21q-37 41 -71 91q-43 62 -73 114q-20 34 -37 73q-6 13 -14.5 36t-11.5 30q-7 19 -10 23q-4 5 -4 13v1v1q0 8 -3 15q-2 8 -2 12q0 20 16 29q6 4 30 13
q2 1 4 1q7 0 10 -7q5 -11 20.5 -31t20.5 -33q22 -54 28 -67q25 -53 48 -86q13 -18 35 -56q21 -38 41 -62q10 -12 17 -16q15 -8 20 -23q2 -8 8 -8h1q3 1 6 11q3 16 9.5 49t10.5 50q8 39 23 95q3 12 3 13v1v5q0 20 8 41q3 9 7 28t7 28q1 2 1 6q0 6 -3 11q-2 6 -2 8q0 6 4 10
q9 9 17 33q6 18 35 26h1l2 1q7 0 11 -11q6 -16 6 -26v-1q0 -40 -2 -60q4 -15 4 -34v-1q0 -59 -7 -109q-9 -63 -24 -126q-14 -61 -21 -121q-1 -5 -1 -16t-1 -17z" />
    <glyph glyph-name="thorn" unicode="&#xfe;" horiz-adv-x="453" 
d="M137 594h9q14 0 39 -2t33 -2q37 -2 87 -32q14 -9 24 -27q8 -13 25 -36t23 -32l3 -3t2 -3q37 -61 49 -110q2 -7 2 -22v-9v-40v-18v-1q0 -13 -11 -21q-24 -19 -57 -29q-40 -11 -80 -44q-33 -28 -65 -33q-4 -1 -14.5 -4.5t-15.5 -4.5q-20 -11 -41 -11v0q-28 0 -28 -28v-8
q0 -20 4 -62q5 -68 5 -81q0 -9 -6 -15q-7 -7 -22 -21q-4 -3 -10 -3h-3q-33 4 -53 31q-10 13 -10 32q-9 19 -9 40q0 1 0.5 3.5t0.5 3.5q2 48 2 73v19v9q-2 30 -2 45q0 35 4 63q0 1 0.5 3t0.5 3v1v7q0 12 2 35.5t2 35.5q0 8 1 23t1 23q0 2 -0.5 7t-0.5 7q-2 19 -2 57v29v28
q0 7 -0.5 21.5t-0.5 21.5q0 27 1 40q2 17 2 49v35v1q0 44 4 80q0 2 0.5 4t0.5 4q0 16 -10 33q-4 5 -4 13t11 21q9 10 21 10q5 0 8 -1q11 -2 14 -12q9 -27 11 -35q13 -57 14 -62q0 -7 2 -10q5 -10 8 -22.5t5.5 -27.5t4.5 -23q4 -16 18 -16h1zM184 473h-3q-7 0 -19 -1.5
t-19 -1.5q-10 0 -12.5 -2t-3.5 -12q-1 -8 -1 -25q0 -11 1 -33.5t1 -33.5q0 -10 1.5 -32t1.5 -32v-1v-2q0 -10 1.5 -29.5t1.5 -29.5q0 -2 -0.5 -6.5t-0.5 -6.5v-1q0 -11 9 -11l1 1h2q39 13 44 17q48 39 61 54q27 32 33 72v4v7v18v7q1 2 1 7q0 4 -0.5 7.5t-1.5 8t-1 7.5
q0 1 -0.5 4t-0.5 4.5t-1 3t-3 2.5t-5 1t-8 8q-7 8 -16 10q-4 1 -8.5 2.5t-10 3.5t-8.5 3q-20 7 -36 8z" />
    <glyph glyph-name="ydieresis" unicode="&#xff;" horiz-adv-x="452" 
d="M289 710q-6 -3 -12 -3q-12 0 -20.5 10t-8.5 23q0 15 11 26q21 21 34 21q11 0 25 -10q15 -10 15 -25q0 -11 -8 -17q-24 -19 -36 -25zM151 724h-1q-7 0 -21 6q-13 6 -13 25q0 8 4 16q6 11 20 20t25 9h5q34 -8 34 -33q0 -16 -15 -29t-38 -14zM379 239q0 -9 -1 -13
q-11 -37 -23 -113q-2 -16 -10 -50t-10 -53t-8 -57q-2 -12 -3.5 -25t-3 -28.5t-2.5 -24.5q-4 -35 -5 -50q0 -12 -9 -18q-11 -6 -19 -13q-8 -5 -14 -5q-5 0 -13 4q-39 21 -46 62l-3 12q-2 3 -2 14v2v3q0 8 -4 13q-1 1 -1 4q0 1 1 3.5t1 3.5v1q0 1 -0.5 1t-0.5 1t0.5 3t0.5 4
q0 3 -1 5q0 1 -0.5 2t-0.5 2q0 3 3 6q13 13 23 46q0 2 1 4l2 4q-1 5 -1 15q0 7 5 44q5 27 13.5 81t12.5 81v7q0 10 -7 18q-8 9 -25 26q-12 11 -17 21q-37 41 -71 91q-43 62 -73 114q-20 34 -37 73q-6 13 -14.5 36t-11.5 30q-7 19 -10 23q-4 5 -4 13v1v1q0 8 -3 15
q-2 8 -2 12q0 20 16 29q6 4 30 13q2 1 4 1q7 0 10 -7q5 -11 20.5 -31t20.5 -33q22 -54 28 -67q25 -53 48 -86q13 -18 35 -56q21 -38 41 -62q10 -12 17 -16q15 -8 20 -23q2 -8 8 -8h1q3 1 6 11q3 16 9.5 49t10.5 50q8 39 23 95q3 12 3 13v1v5q0 20 8 41q3 9 7 28t7 28
q1 2 1 6q0 6 -3 11q-2 6 -2 8q0 6 4 10q9 9 17 33q6 18 35 26h1l2 1q7 0 11 -11q6 -16 6 -26v-1q0 -40 -2 -60q4 -15 4 -34v-1q0 -59 -7 -109q-9 -63 -24 -126q-14 -61 -21 -121q-1 -5 -1 -16t-1 -17z" />
    <glyph glyph-name="dotlessi" unicode="&#x131;" horiz-adv-x="185" 
d="M51 52q-7 7 -7 15v5v1q1 1 1 2q0 4 -2 12q-2 6 -2 10q0 5 3 10q0 1 0.5 5t0.5 5q0 7 -2 20t-2 18q-11 112 -11 126v5q0 21 3 42q4 25 4 139v71v2q0 37 3 56q1 4 1 11q0 5 -2 15v6v12v6l1 1v2q2 6 14 12.5t19 6.5q16 0 25 -19q5 -10 46 -77q7 -7 7 -16q0 -3 -2 -11
q-5 -15 -10 -80q0 -5 -1 -91.5t-5 -100.5q-1 -3 -1 -8v-4q0 -11 -2 -33q0 -2 -0.5 -5t-0.5 -4q0 -6 1 -18.5t1 -18.5v-1q0 -17 4.5 -48.5t5.5 -37.5q1 -12 6 -24q4 -10 8 -34v-4q0 -8 -12 -22q-2 -2 -4 -2q-1 0 -2 0.5t-2 0.5h-6q-8 0 -14 -3q-2 -1 -6 -1q-5 0 -10 3
q-21 11 -38 31q-6 8 -10 12z" />
    <glyph glyph-name="OE" unicode="&#x152;" horiz-adv-x="681" 
d="M400 665q5 7 17 11q10 4 15 4q6 0 11 -4q3 -3 9 -3q8 -1 27 -6t29 -6q4 0 15.5 -2.5t18.5 -2.5h3h7h1q18 -1 38 -11q3 -1 12 -10q33 -20 48 -40q7 -9 7 -17v-2q0 -16 -16 -23q-10 -5 -25 -5t-22 1q-11 1 -38 5q-10 2 -15 4q-54 18 -61 20q-3 1 -8 1q-7 0 -7 -12v-1
q0 -12 0.5 -36t0.5 -36v-9q0 -14 -1.5 -42.5t-1.5 -43.5q0 -10 3 -19q3 -1 16.5 -5t22.5 -5q1 0 3.5 0.5t3.5 0.5q5 0 10 -3h1q1 0 7 -3q9 -7 36 -14t35 -22q2 -4 2 -9q0 -13 -7 -30t-14 -22q-9 -6 -17 -6q-4 0 -12 2q-9 3 -27.5 8.5t-27.5 8.5t-20 8q-6 2 -7 2q-6 0 -6 -10
v-10q0 -21 1 -31q4 -42 4 -63q0 -5 0.5 -16t0.5 -17v-1v-1q0 -4 4 -10h1q1 -1 2 -1h9q4 0 13 -0.5t13 -0.5q6 0 10 1h10h38q29 0 34 3q1 1 3 1t6 -2t6 -4q4 -4 6.5 -7t3.5 -5t2.5 -7t3.5 -9q3 -5 4.5 -9.5t3 -7.5t5.5 -9q11 -16 14 -26v-6q0 -5 -7 -21q-3 -6 -16 -8
q-14 -3 -42 -5q-13 -1 -43.5 -6t-47.5 -6q-4 0 -11 -0.5t-10 -0.5q-33 0 -55 10l-2 1q0 1 -1 1l-1 2q0 -1 -1 -3.5t-1 -3.5q-4 -16 -14 -32q-6 -22 -29 -30q-19 -7 -28 -17q-15 -16 -46 -18q-3 0 -9 -0.5t-9 -0.5q-41 0 -74 15q-7 3 -15 3h-3h-5q-14 0 -29 10q-46 31 -66 57
q-1 0 -2 2l-1 2q-10 10 -15 20q-31 34 -41 76q-15 65 -19 118q0 7 -0.5 20t-1 24t-1.5 20q0 1 -0.5 3.5t-0.5 3.5q0 4 2 10q5 21 5 62v10v11q0 17 3 26q1 2 1 8q0 5 -1 7q-5 16 -5 38q0 24 7 57q17 82 65 166q2 11 16 27q4 6 17.5 20t19.5 23q2 2 15 10q30 16 33 19
q5 5 14 5h1q2 0 6 -0.5t6 -0.5q5 0 7 1h3q4 0 9 -4.5t8 -4.5h3q6 3 12 3q3 0 11 -2q50 -17 94 -61q25 -25 29 -39q0 -1 0.5 -2.5t1.5 -2.5zM342 374q-1 2 -1 6q0 2 0.5 5t0.5 5q1 15 1 46q0 38 -6 63q-8 34 -24 104q-6 24 -9 35q-12 41 -51 50q-5 1 -16 2t-12 1t-3 1
q-16 0 -27 -16q-31 -48 -43 -84q-5 -15 -11.5 -45t-9.5 -42q-10 -36 -11 -72q-4 -66 -4 -100v-35q0 -49 4 -88q6 -68 14 -102q4 -17 17 -31q11 -11 13 -16h1h2q3 0 12 -7q12 -9 25 -9q8 0 16 3t14 3q13 0 21 -12q3 -4 9 -4h3l9 6q20 30 31 69q22 79 30 164q1 5 1 14t1 13v2
q0 8 1 11v1q1 1 1 2q1 3 1 8.5v8.5v1q1 6 1 18q0 14 -1 21z" />
    <glyph glyph-name="oe" unicode="&#x153;" horiz-adv-x="653" 
d="M123 333v-8q0 -7 -0.5 -25.5t-0.5 -28.5q0 -3 0.5 -8t0.5 -7t0.5 -5t0.5 -5v-1q0 -18 6 -51.5t7 -39.5q22 -66 34 -87q12 -20 26 -20q7 0 17 3q14 4 31 11q22 8 27 37q6 33 9 70q3 25 3 73.5t2 70.5q2 18 2 26q0 22 -12 113q-2 11 -7 31.5t-6 27.5q-3 14 -9 42.5t-9 42.5
q-7 34 -22 54q-9 12 -18 12q-32 0 -57 -133t-25 -195zM466 748q9 1 28 1q31 0 59 -7l28 -6q20 -4 27.5 -7t14 -10.5t6.5 -21.5q0 -5 -2 -19q-3 -18 -7.5 -23t-15.5 -5h-8h-9q-11 -1 -32 -1q-23 0 -34 2q-62 10 -75 10h-4q-13 0 -39 -6q-13 -3 -13 -18v-2q4 -55 7 -79
q2 -26 9.5 -72.5t9.5 -58.5q2 -7 6 -23q12 -58 12 -101q0 -16 -1 -23q4 -2 8 -2q5 -1 15 -1q24 0 41 8q16 6 24 6q11 0 19 -5q30 -22 31 -44v-4v-9q0 -5 2 -13v-2q0 -4 -4 -7.5t-12.5 -7.5t-10.5 -5q-24 -15 -58 -26q-16 -4 -23 -4q-10 0 -15 2q-2 1 -6 1q-2 0 -8 -2
q0 -1 -2 -4t-2 -5q-2 -42 -2 -63q0 -26 2 -39q2 -11 5 -14.5t13 -3.5h1q18 0 54 6q56 9 59 9q18 2 28 9q8 5 14 5q4 0 25 -8q7 -3 7 -11q0 -4 -1 -6q-4 -8 -6 -24t-3 -21v-1q1 -3 1 -9t-2.5 -11t-8 -12.5t-6.5 -9.5q-18 -28 -54 -36q-8 -1 -24 -7t-24 -7q-3 0 -7 -4
q-4 -5 -10.5 -7.5t-9.5 -3.5t-12.5 -2t-10.5 -1q-5 -1 -16 -1t-18 -2l-2 -1h-3q-2 0 -8 2q-18 5 -33 5q-3 0 -13.5 -1t-15.5 -1q-16 0 -20 6q-5 11 -5 31q0 6 0.5 19t0.5 20v4q-27 -35 -67 -54q-15 -9 -36 -9q-25 0 -47 16q-63 45 -106 121q-24 41 -33 76q-10 36 -13 81
q-1 11 -3 33.5t-3 33.5q-2 16 -2 27q0 8 0.5 21t0.5 15q0 5 -0.5 14.5t-0.5 14.5q0 163 71 347q5 12 11 22t10.5 15t14.5 14.5t15 14.5q25 28 52 28q25 0 50 -24q34 -31 41 -42q2 -3 6 -8.5t7 -8.5q2 13 4 19q7 14 29 14q3 0 9 -0.5t9 -0.5q9 0 13 1q8 1 27.5 3t30.5 4
q1 0 2.5 0.5t2.5 0.5q2 0 6 -2q9 -4 20 -4q6 0 18 2z" />
    </font>
</defs>
</svg>
